<svg width="557" height="579" viewBox="0 0 557 579" fill="none" xmlns="http://www.w3.org/2000/svg">
<g clip-path="url(#clip0)">
<path d="M201.1 564.9C169.6 576.1 137.8 581.2 103.9 574.8C66.1002 567.6 33.3002 535.3 14.8002 503C8.00018 491 2.50018 477.6 3.30018 463.8C4.90018 432 35.0002 428.4 60.6002 433.6C75.0002 436.5 88.2002 443.1 101.3 449.6C123 460.5 148.5 465.8 167.9 480.8C174.4 485.9 179.3 491.9 186.9 495.6C198.7 501.3 212.2 504 224.3 509.3C234.7 513.8 246.2 521.1 246.2 532.4C246.2 544 234.1 551.3 223.5 555.9C216.1 559.3 208.6 562.3 201.1 564.9Z" fill="url(#paint0_linear)"/>
<path d="M85.3 153.9C136.9 77.9001 243.5 47.4001 329.9 76.0001C371.6 89.8001 406.5 118.5 438.7 148.3C467.1 174.6 494.6 202.9 514 236.6C527.2 259.6 536.7 287.3 543.4 313.1C553.4 351.7 544.3 401.5 494.4 397.8C482.7 396.9 472.6 392.7 461.6 389C452.7 386 444.1 387.8 434.9 386.3C411.7 382.6 389.4 374.1 368.4 364.1C325.4 343.7 286.1 316.1 241.9 298.2C205.7 283.6 167 276.1 127.9 276C111.4 276 94.1 277.1 79.4 269.8C43.1 251.6 59.4 202.6 73 175C76.6 167.8 80.7 160.7 85.3 153.9Z" fill="url(#paint1_linear)"/>
<path d="M489.6 165.4C498.1 173.1 531.4 194.1 532.1 169.4C532.3 163.3 529.5 157.3 525.7 152.8C521.4 147.6 516.5 144.9 513.1 138.9C509 131.6 504.2 124.8 499 118.5C488.3 105.4 475.8 93.3001 460.7 87.9001C450.1 84.1001 432.1 85.1 427.1 98.7001C419.8 118.5 451.2 122.1 460.7 129.3C469.8 136.1 474.9 147.9 482.1 157.2C484.4 160.3 486.9 163 489.6 165.4Z" fill="url(#paint2_linear)"/>
<path d="M332.6 141.3C350.6 151.9 364.1 167.7 380.5 180.5C407.8 201.7 445.2 206.1 476.5 220.9C508.4 236 532.5 259.4 543.4 293.2C557.5 336.8 558.8 388.6 546.9 433.4C533.7 482.7 502.8 515.5 457.6 537.3C412.4 559.1 362.3 569.3 312.4 571.4C307.6 571.6 302.8 571.7 297.9 571.8C189.4 572.4 45 534.2 7.99997 417.7C7.69997 416.6 7.29997 415.6 6.99997 414.5C3.19997 401.5 0.99997 388.1 0.29997 374.6C-2.00003 326.7 6.39997 273.8 23.2 228.9C34.5 198.7 58.8 173.1 84.5 154.9C120.5 129.3 164.5 122.8 208.2 119.7C240.6 117.4 277 116.6 307.6 129C316.3 132.4 324.6 136.6 332.6 141.3Z" fill="url(#paint3_linear)"/>
<path d="M408.1 561.4C269.1 601.8 153.2 562.8 112.6 538.3L75 509.4L88 487.7L169.1 480.5L303.8 473.3L412.5 495L525.5 457.5H533.7C516.2 516.4 443.9 551.3 408.1 561.4Z" fill="#FB4C47"/>
<path d="M396.6 274C396.6 274 506.6 279 533.1 394.5C554.1 543.5 455.1 490.8 431.4 483.5C407.8 476.1 323.4 285.4 396.6 274Z" fill="#D9423D"/>
<path d="M120.7 506.3H456.7C456.7 506.3 468.5 313.1 425.7 284.8C382.9 256.5 182.7 262.4 138.4 286.6C93.8999 310.8 120.7 506.3 120.7 506.3Z" fill="#FB4C47"/>
<path d="M172.1 257.8C171.7 257.8 171.3 257.7 171 257.5C170 256.9 146 242.2 152.2 204.3C154.4 191 157 181.5 159.3 173.1C163.5 157.9 166.5 147 164.1 124.9C164 123.7 164.8 122.6 166 122.5C167.2 122.4 168.3 123.2 168.4 124.4C170.9 147.3 167.6 159.2 163.5 174.3C161.2 182.6 158.6 192.1 156.5 205.1C150.8 240.1 173 253.7 173.3 253.8C174.3 254.4 174.7 255.8 174.1 256.8C173.6 257.4 172.8 257.8 172.1 257.8Z" fill="#000C3E"/>
<path d="M257.8 24.4C259.5 39.5 248.7 53.1 233.6 54.8C218.5 56.5 204.9 45.7 203.2 30.6C201.5 15.5 212.3 1.89999 227.4 0.199994C242.5 -1.50001 256.1 9.29999 257.8 24.4Z" fill="#000C3E"/>
<path d="M168.4 247.5C168.4 247.5 178.8 262.7 212.3 263.6C245.7 264.5 269.5 248.8 296 254.1C322.5 259.4 357 242.1 362.6 230.4C368.2 218.8 349 102.1 326.3 85.4C303.5 68.8 197.2 68.1 178.2 94.4C159.1 120.9 152.1 236.5 168.4 247.5Z" fill="#000C3E"/>
<path d="M342.4 126.9C348 176.6 312.3 221.4 262.6 227C212.9 232.6 168.1 196.9 162.5 147.2C156.9 97.5 192.6 52.7 242.3 47.1C291.9 41.5 336.8 77.2 342.4 126.9Z" fill="#000C3E"/>
<path d="M300.9 209.7C300.9 209.7 317.2 278.5 312.6 287.2C308 295.8 270.3 295.6 260.3 295.1C250.3 294.6 235 219.7 240.8 218.8C246.7 217.9 297.5 194.4 300.9 209.7Z" fill="#FFCEB0"/>
<path d="M178.8 144.8C178.8 144.8 198.9 252.9 273.1 246.5C347.3 240.1 324.1 87.0001 295.3 76.4001C266.5 65.9001 155.9 85.3001 178.8 144.8Z" fill="#FFCEB0"/>
<path d="M257.7 156.6C257.7 156.6 276.8 187.9 273.5 190.7C270.2 193.5 259.6 194.7 256.4 192.6C253.2 190.6 251.4 153.7 257.7 156.6Z" fill="#EE9B68"/>
<path d="M227.9 78.1001C227.9 78.1001 203.5 94.8001 202.1 119.5C200.7 144.2 212.5 205 184.2 206.4C184.2 206.4 111.8 93.3001 227.9 78.1001Z" fill="#000C3E"/>
<path d="M241.9 76.4999C239.8 78.5999 269.3 73.9999 289.3 91.9999C309.3 109.9 321 160.5 323.8 161.1C326.6 161.7 327.3 95.6999 305.8 79.0999C284.3 62.4999 254 64.6999 241.9 76.4999Z" fill="#000C3E"/>
<path d="M245.2 240.5C245.2 240.5 276.2 252.4 303.6 232.8C303.6 232.8 308.7 250.7 307 255.3C305.3 259.9 258.8 270 246.4 250.6C246.4 250.6 242.4 240.1 245.2 240.5Z" fill="#EE9B68"/>
<path d="M318.1 166.3C318.1 166.3 321 138 334.8 145.9C348.5 153.7 341.7 183.8 330 188.3C318.2 192.7 313.5 181.4 318.1 166.3Z" fill="#FFCEB0"/>
<path d="M201.5 179.5C201.5 179.5 192.3 152.6 180.7 163.3C169.1 174 182.4 201.8 194.8 203.5C207.3 205.2 209.3 193.1 201.5 179.5Z" fill="#FFCEB0"/>
<path d="M282.7 137.2C282.7 137.2 293.7 127.2 304 134.8C313.1 141.5 295.6 138.7 290.1 141.3C284.6 143.9 276.8 145.4 282.7 137.2Z" fill="#41294A"/>
<path d="M232.1 146.8C232.1 146.8 219.1 139.7 210.8 149.5C203.5 158.2 219.9 151.3 225.9 152.5C231.9 153.8 239.8 153.4 232.1 146.8Z" fill="#41294A"/>
<path d="M230.8 156.5C230 156.5 229.2 156.5 228.4 156.6C216.7 157.9 208.3 168.5 209.6 180.1C210.9 191.7 221.4 200.2 233.1 198.9C238.8 198.3 243.8 195.5 247.4 191C250.9 186.6 252.5 181 251.9 175.3C250.7 164.7 241.7 156.5 230.8 156.5ZM230.8 202C218.5 202 208.2 192.8 206.8 180.5C205.3 167.2 214.9 155.2 228.1 153.7C241.6 152.1 253.4 161.9 254.9 175C255.6 181.4 253.8 187.7 249.8 192.8C245.8 197.9 240 201 233.6 201.8C232.6 202 231.7 202 230.8 202Z" fill="#FFFCF6"/>
<path d="M290 144.2C289.2 144.2 288.4 144.2 287.6 144.3C281.9 144.9 276.9 147.7 273.3 152.2C269.8 156.6 268.2 162.2 268.8 167.9C270.1 179.5 280.6 188 292.3 186.7C298 186.1 303 183.3 306.6 178.8C310.1 174.4 311.7 168.8 311.1 163.1C309.9 152.3 300.9 144.2 290 144.2ZM290 189.7C277.7 189.7 267.4 180.5 266 168.2C265.3 161.8 267.1 155.5 271.1 150.4C275.1 145.3 280.9 142.2 287.3 141.4C300.7 139.8 312.6 149.6 314.1 162.7C314.8 169.1 313 175.4 309 180.5C305 185.6 299.2 188.7 292.8 189.5C291.8 189.6 290.9 189.7 290 189.7Z" fill="#FFFCF6"/>
<path d="M208.2 176.9C208.1 176.9 208 176.9 207.9 176.9L198.6 174.8C197.8 174.6 197.3 173.8 197.5 173.1C197.7 172.3 198.5 171.8 199.2 172L208.5 174.1C209.3 174.3 209.8 175.1 209.6 175.8C209.5 176.5 208.9 176.9 208.2 176.9Z" fill="#FFFCF6"/>
<path d="M310.7 157.6C310.1 157.6 309.6 157.3 309.4 156.7C309.1 156 309.4 155.1 310.1 154.8L321.7 149.5C322.4 149.2 323.3 149.5 323.6 150.2C323.9 150.9 323.6 151.8 322.9 152.1L311.3 157.4C311.1 157.5 310.9 157.6 310.7 157.6Z" fill="#FFFCF6"/>
<path d="M235.9 71C235.9 71 248.1 129.4 265.2 132.3C282.2 135.2 322 127.7 322.9 121C323.9 114.3 283.1 67.4 258.3 62.6C214.7 54.3 189.2 126.9 196.3 142.4C203.5 157.9 236.9 138.3 244.2 135.1C251.4 131.9 236.2 82.9 235.9 71Z" fill="#000C3E"/>
<path d="M253.2 175.5C252.5 175.5 251.9 175 251.8 174.4C251.6 173.6 252.1 172.8 252.9 172.6L267.5 169.2C268.3 169 269.1 169.5 269.3 170.3C269.5 171.1 269 171.9 268.2 172.1L253.6 175.5C253.4 175.5 253.3 175.5 253.2 175.5Z" fill="#FFFCF6"/>
<path d="M217.3 57.3C217.1 57.3 216.8 57.3 216.6 57.2C208 54.3 202.4 49.3 200 42.3C194.5 27 206.2 7.99999 206.8 7.19999C207.4 6.19999 208.8 5.89999 209.8 6.49999C210.8 7.09999 211.1 8.49999 210.5 9.49999C210.4 9.69999 199.4 27.6 204.1 40.8C206.1 46.4 210.8 50.5 218 53C219.1 53.4 219.8 54.6 219.4 55.8C219.1 56.7 218.2 57.3 217.3 57.3Z" fill="#000C3E"/>
<path d="M249.4 57.4001C248.9 57.4001 248.4 57.2001 248 56.9001C247.1 56.1001 247 54.7001 247.8 53.8001C247.9 53.6001 261.7 37.8001 259.3 23.9001C258.2 18.0001 254.3 13.2001 247.6 9.60009C246.5 9.00009 246.1 7.70009 246.7 6.60009C247.3 5.50009 248.6 5.10009 249.7 5.70009C257.7 10.0001 262.4 15.8001 263.7 23.1001C266.6 39.1001 251.8 55.9001 251.2 56.6001C250.6 57.1001 250 57.4001 249.4 57.4001Z" fill="#000C3E"/>
<path d="M354.5 228.3C354 228.3 353.4 228.1 353 227.7C352.1 226.9 352.1 225.5 352.9 224.6C353.6 223.9 369 207.3 360.8 184.4C357.6 175.4 352.8 165.7 347.7 155.5C338.8 137.6 329.5 119 326.6 100.2C326.4 99 327.2 97.9 328.4 97.7C329.6 97.4 330.7 98.3 330.9 99.5C333.7 117.6 342.8 135.9 351.6 153.5C356.8 163.9 361.7 173.7 364.9 182.9C374 208.4 356.7 226.8 356 227.6C355.7 228.1 355.1 228.3 354.5 228.3Z" fill="#000C3E"/>
<path d="M346.8 128.5C345.6 128.5 344.6 127.6 344.6 126.4C343.9 102.1 336.4 83.4 322.4 70.6C299.7 50 267.3 51.9 267 51.9C265.7 52.1 264.8 51.1 264.7 49.9C264.6 48.7 265.5 47.7 266.7 47.6C268.1 47.5 301.3 45.5 325.4 67.4C340.4 81 348.4 100.9 349.1 126.3C349.1 127.5 348.1 128.5 346.8 128.5Z" fill="#000C3E"/>
<path d="M268.6 226.5C266.1 226.5 264.2 226.1 264.1 226C262.9 225.7 262.2 224.5 262.5 223.3C262.8 222.1 264 221.4 265.1 221.7C265.2 221.7 271.4 223.2 276.2 219.9C277.2 219.2 278.6 219.5 279.2 220.4C279.9 221.4 279.7 222.8 278.7 223.4C275.4 225.9 271.5 226.5 268.6 226.5Z" fill="#EE9B68"/>
<path d="M196.1 196.4C196 196.4 195.9 196.4 195.8 196.4C194.6 196.2 193.8 195.1 194 193.9C196 180.4 185.3 173.2 185.2 173.1C184.2 172.4 183.9 171.1 184.6 170.1C185.3 169.1 186.6 168.8 187.6 169.5C188.1 169.9 200.8 178.3 198.4 194.6C198.1 195.6 197.2 196.4 196.1 196.4Z" fill="#EE9B68"/>
<path d="M325.4 183.3C324.2 183.3 323.3 182.4 323.2 181.2C322.2 164.8 328.9 155 329.2 154.6C329.9 153.6 331.3 153.4 332.2 154.1C333.2 154.8 333.4 156.2 332.7 157.1C332.6 157.2 326.5 166.1 327.5 180.9C327.6 182.1 326.7 183.1 325.5 183.2C325.5 183.3 325.5 183.3 325.4 183.3Z" fill="#EE9B68"/>
<path d="M204.9 291.1C204.9 291.1 254.6 350.5 293 334.6C331.3 318.7 367.3 275.6 348 269.9C328.6 264.2 174.7 267.2 204.9 291.1Z" fill="#FFCEB0"/>
<path d="M242.3 177.8C242.8 181.4 240.4 184.8 236.7 185.3C233.1 185.8 229.7 183.4 229.2 179.7C228.7 176.1 231.1 172.7 234.8 172.2C238.4 171.7 241.7 174.2 242.3 177.8Z" fill="#41294A"/>
<path d="M304.5 165.9C305 169.5 302.6 172.9 298.9 173.4C295.3 173.9 291.9 171.5 291.4 167.8C290.9 164.2 293.3 160.8 297 160.3C300.5 159.8 303.9 162.3 304.5 165.9Z" fill="#41294A"/>
<path d="M253.1 218.5C252.8 218.5 252.4 218.4 252.1 218.3C251 217.7 250.6 216.4 251.2 215.4C251.5 214.8 259.1 200.4 271.2 199C278.1 198.2 284.8 201.8 291.3 209.5C292.1 210.4 292 211.8 291 212.6C290.1 213.4 288.7 213.3 287.9 212.3C282.4 205.8 277 202.7 271.6 203.4C261.8 204.5 255 217.3 255 217.4C254.7 218.1 253.9 218.5 253.1 218.5Z" fill="#EE9B68"/>
<path d="M377 548C435.211 548 482.4 500.811 482.4 442.6C482.4 384.389 435.211 337.2 377 337.2C318.789 337.2 271.6 384.389 271.6 442.6C271.6 500.811 318.789 548 377 548Z" fill="white"/>
<path d="M322.9 395.5C322.9 395.5 367 454.3 378 459.2C389 464.1 402.9 463 404.1 468.6C405.3 474.2 381 464.7 384.8 473.4C388.7 482.1 403.8 492.1 403.9 500.8C404 509.6 379.8 482 379.8 482C379.8 482 402.6 507.3 395 507.9C387.5 508.5 368 483.8 368 483.8C368 483.8 389.8 516.2 382.6 513.2C375.4 510.2 308.3 432.7 298 424.5C287.7 416.3 322.9 395.5 322.9 395.5Z" fill="#E27B5A"/>
<path d="M451.1 409.8C451.1 409.8 400.8 463.4 389.3 467.1C377.8 470.7 364.2 468.1 362.4 473.6C360.6 479.1 385.8 472.3 381 480.5C376.2 488.7 360 497 359 505.7C358 514.4 385 489.6 385 489.6C385 489.6 359.6 512.2 367 513.6C374.4 515 396.5 492.6 396.5 492.6C396.5 492.6 371.3 522.4 378.8 520.3C386.3 518.2 461.5 448.5 472.6 441.5C483.9 434.4 451.1 409.8 451.1 409.8Z" fill="#F8B38A"/>
<path d="M408.3 447C408.3 447 423.8 476.3 438 479.4C452.2 482.5 474.8 459.9 481.5 446.2C488.2 432.4 473.2 391.4 459.8 377.5C449.7 376.2 401.2 420.9 408.3 447Z" fill="#F65551"/>
<path d="M309.4 361.9C309.4 361.9 363.3 417.2 360.9 430.2C358.5 443.2 339.1 458.8 323.4 463.9C307.7 469 272.2 448.2 272.2 433.2C273.7 404.8 289.7 378 309.4 361.9Z" fill="#128E5A"/>
<path d="M129 426C129 426 247.9 491 270.1 490.7C292.3 490.4 314.7 478 321 486.6C327.3 495.1 279.2 497.7 292.4 509.4C305.6 521 338.6 526.1 345.4 540.8C352.2 555.5 290.6 527.6 290.6 527.6C290.6 527.6 348.1 552.5 335.9 559.3C323.7 566.1 272.1 539.6 272.1 539.6C272.1 539.6 333.4 577.2 319.1 577.8C304.7 578.4 133 499.6 109.4 493.8C85.7001 487.8 129 426 129 426Z" fill="#FFC6A6"/>
<path d="M220.7 422.3C220.7 422.3 222.1 477.5 209.5 498.5C179.4 548.5 97.8998 542.4 73.5998 506.5C49.2998 470.6 102.4 289.4 138.3 286.6C174.2 283.9 220.7 370 220.7 422.3Z" fill="#D9423D"/>
<path d="M244 5.6999C243.3 5.6999 242.6 5.7999 241.8 5.8999C239.9 6.2999 238.6 7.1999 237.9 8.8999C234.6 16.0999 241.6 33.3999 246.6 43.5999C249.7 32.2999 253.4 13.3999 248.2 7.4999C247.1 6.1999 245.8 5.6999 244 5.6999ZM247.2 51.9999C246.4 51.9999 245.6 51.4999 245.2 50.7999C243.4 47.5999 228 19.1999 233.7 6.8999C235.1 3.8999 237.6 1.9999 241 1.2999C246.7 0.199904 250 2.2999 251.8 4.2999C261 14.5999 250.7 46.7999 249.5 50.3999C249.2 51.2999 248.4 51.8999 247.5 51.9999C247.3 51.9999 247.2 51.9999 247.2 51.9999Z" fill="#FFD310"/>
<path d="M275.4 17.2C275.2 17.2 275 17.2 274.7 17.2C266.8 18.2 257.3 35 252.2 45.6C262.7 41.2 279.3 32.8 281.5 25.1C282 23.4 281.7 21.8 280.5 20.3C278.9 18.2 277.3 17.2 275.4 17.2ZM247.8 52.2C247.2 52.2 246.6 51.9 246.1 51.5C245.5 50.8 245.3 49.8 245.6 49C247.1 45.5 260.4 14.5 274.1 12.6C276.7 12.3 280.6 12.8 284.2 17.4C286.3 20.1 287 23.2 286 26.4C282.2 39.5 252 50.8 248.5 52.1C248.4 52.1 248.1 52.2 247.8 52.2Z" fill="#FFD310"/>
<path d="M204 43.8999C215.3 51.1999 241.3 56.8999 261.5 43.8999" stroke="#FFD310" stroke-width="4.87"/>
</g>
<defs>
<linearGradient id="paint0_linear" x1="106.251" y1="437.779" x2="138.908" y2="551.172" gradientUnits="userSpaceOnUse">
<stop stop-color="#FFCCCC"/>
<stop offset="1" stop-color="#FFEEEE"/>
</linearGradient>
<linearGradient id="paint1_linear" x1="584.445" y1="277.633" x2="218.933" y2="193.232" gradientUnits="userSpaceOnUse">
<stop stop-color="white"/>
<stop offset="1" stop-color="#FFCECE"/>
</linearGradient>
<linearGradient id="paint2_linear" x1="538.576" y1="155.769" x2="413.174" y2="102.208" gradientUnits="userSpaceOnUse">
<stop stop-color="#FFD1D1"/>
<stop offset="1" stop-color="#FFFBFC"/>
</linearGradient>
<linearGradient id="paint3_linear" x1="515.046" y1="504.208" x2="10.9216" y2="212.271" gradientUnits="userSpaceOnUse">
<stop stop-color="#FFCDCD"/>
<stop offset="1" stop-color="#FFF3F3"/>
</linearGradient>
<clipPath id="clip0">
<rect width="556.1" height="578.9" fill="white"/>
</clipPath>
</defs>
</svg>
