<?xml version="1.0" encoding="utf-8"?>
<!-- Generator: Adobe Illustrator 24.0.0, SVG Export Plug-In . SVG Version: 6.00 Build 0)  -->
<svg version="1.1" id="Layer_1" xmlns="http://www.w3.org/2000/svg" xmlns:xlink="http://www.w3.org/1999/xlink" x="0px" y="0px"
	 viewBox="0 0 258.4 238.5" style="enable-background:new 0 0 258.4 238.5;" xml:space="preserve">
<style type="text/css">
	.st0{fill:url(#SVGID_1_);}
	.st1{fill:url(#SVGID_2_);}
	.st2{fill:url(#SVGID_3_);}
	.st3{fill:url(#SVGID_4_);}
	.st4{fill:#FB4C47;}
	.st5{fill:#D9423D;}
	.st6{fill:#FF807C;}
	.st7{fill:#C63F3B;}
	.st8{fill:#F5C827;}
	.st9{fill:#FFAE00;}
	.st10{opacity:0.31;}
	.st11{opacity:0.31;fill:#FFFFFF;enable-background:new    ;}
	.st12{opacity:0.3;}
	.st13{opacity:0.3;fill:#FFC7D3;enable-background:new    ;}
</style>
<linearGradient id="SVGID_1_" gradientUnits="userSpaceOnUse" x1="49.4727" y1="66.3155" x2="64.6788" y2="13.5165" gradientTransform="matrix(1 0 0 -1 0 239.6847)">
	<stop  offset="0" style="stop-color:#FFD0D0"/>
	<stop  offset="1" style="stop-color:#FFF7F7"/>
</linearGradient>
<path class="st0" d="M93.7,232.6c-14.7,5.2-29.5,7.6-45.2,4.6c-17.6-3.3-32.9-18.4-41.5-33.4c-3.2-5.6-5.8-11.8-5.4-18.2
	c0.8-14.8,14.8-16.5,26.7-14.1c6.7,1.3,12.9,4.4,19,7.5c10.1,5.1,22,7.5,31,14.5c3,2.4,5.3,5.2,8.9,6.9c5.5,2.7,11.8,3.9,17.4,6.4
	c4.8,2.1,10.2,5.5,10.2,10.8c0,5.4-5.6,8.8-10.6,11C100.6,229.9,97.1,231.3,93.7,232.6z"/>
<linearGradient id="SVGID_2_" gradientUnits="userSpaceOnUse" x1="272.1347" y1="140.8838" x2="101.9427" y2="180.1835" gradientTransform="matrix(1 0 0 -1 0 239.6847)">
	<stop  offset="0" style="stop-color:#FFF7F7"/>
	<stop  offset="1" style="stop-color:#FFD0D0"/>
</linearGradient>
<path class="st1" d="M39.7,41.2c24-35.4,73.7-49.6,113.9-36.3c19.4,6.4,35.7,19.8,50.7,33.7c13.2,12.2,26,25.4,35.1,41.1
	c6.2,10.7,10.6,23.6,13.7,35.6c4.7,18,0.4,41.1-22.8,39.4c-5.5-0.4-10.2-2.4-15.3-4.1c-4.1-1.4-8.2-0.6-12.5-1.2
	c-10.8-1.7-21.2-5.7-31-10.3c-20-9.5-38.3-22.4-58.9-30.7c-16.9-6.8-34.9-10.3-53.1-10.3c-7.7,0-15.7,0.5-22.6-2.9
	c-16.9-8.5-9.3-31.3-3-44.1C35.7,47.6,37.6,44.4,39.7,41.2z"/>
<linearGradient id="SVGID_3_" gradientUnits="userSpaceOnUse" x1="250.777" y1="197.6271" x2="192.386" y2="222.5668" gradientTransform="matrix(1 0 0 -1 0 239.6847)">
	<stop  offset="0" style="stop-color:#FFD0D0"/>
	<stop  offset="1" style="stop-color:#FFFBFC"/>
</linearGradient>
<path class="st2" d="M228,46.5c4,3.6,19.5,13.4,19.8,1.9c0.1-2.9-1.2-5.6-3-7.7c-2-2.4-4.3-3.7-5.9-6.5c-1.9-3.4-4.1-6.6-6.6-9.5
	c-5-6.1-10.8-11.7-17.8-14.2c-4.9-1.8-13.3-1.3-15.7,5c-3.4,9.2,11.2,10.9,15.7,14.3c4.2,3.2,6.6,8.6,10,13
	C225.5,44.2,226.7,45.4,228,46.5z"/>
<linearGradient id="SVGID_4_" gradientUnits="userSpaceOnUse" x1="239.8195" y1="35.3847" x2="5.0854" y2="171.3182" gradientTransform="matrix(1 0 0 -1 0 239.6847)">
	<stop  offset="0" style="stop-color:#FFCFCF"/>
	<stop  offset="1" style="stop-color:#FFF8F8"/>
</linearGradient>
<path class="st3" d="M154.9,35.3c8.4,4.9,14.7,12.3,22.3,18.2c12.7,9.9,30.1,11.9,44.7,18.8c14.9,7,26.1,17.9,31.2,33.6
	c6.6,20.3,7.2,44.4,1.6,65.3c-6.1,23-20.5,38.2-41.6,48.4c-21,10.2-44.4,14.9-67.6,15.9c-2.2,0.1-4.5,0.1-6.7,0.2
	C88.2,236,20.9,218.3,3.7,164c-0.2-0.5-0.3-1-0.5-1.5c-1.8-6-2.8-12.3-3.1-18.6C-0.9,121.6,3,97,10.8,76.1
	c5.3-14.1,16.6-26,28.5-34.5c16.8-11.9,37.2-15,57.6-16.4c15.1-1.1,32-1.4,46.3,4.3C147.3,31.2,151.1,33.1,154.9,35.3z"/>
<path class="st4" d="M177.2,90.8c0,0-0.7,9.6-1.6,23.1c-0.7,10.6-1.7,23.6-2.6,36.4c-0.2,3.1-0.4,6.2-0.7,9.3
	c-0.5,7.4-1,14.4-1.5,20.4c-0.4,5.1-0.7,9.6-1,13.1c-0.3,4.5-0.6,7.3-0.7,7.8c-0.5,3.2-10,9.5-31.9,9.5c-21.9,0-34.6,0.3-38.9-4.9
	c-0.6-0.8-1.4-3.9-2.3-8.6c-1.8-10.3-4-28.1-6-46.2c-1.2-11.2-2.4-22.4-3.4-32c-1.5-14.8-2.5-25.5-2.5-25.5l26.6-0.7l33.8-0.9
	L177.2,90.8z"/>
<path class="st5" d="M175.6,113.9c-0.7,10.6-1.7,23.6-2.6,36.4c-8.5,2.3-33.6,7-82.9,0.4c-1.2-11.2-2.4-22.4-3.4-32
	C99.8,120.1,141.8,123.8,175.6,113.9z"/>
<path class="st5" d="M169.9,193.1c-0.3,4.5-0.6,7.3-0.7,7.8c-0.5,3.2-10,9.5-31.9,9.5c-21.9,0-34.6,0.3-38.9-4.9
	c-0.6-0.8-1.4-3.9-2.3-8.6C107.7,198.9,140.3,203.2,169.9,193.1z"/>
<path class="st6" d="M180.1,92c-1.5,1.7-13.9,7.5-47.7,9.2c-3.2,0.2-6.2,0.2-9.1,0.3c-25.5,0.2-40.2-4.4-40.5-5.3
	c-0.3-1-1-7.8-0.2-8.7l0,0c0.8-0.7,10.5,4.3,38.4,3.5c3.4-0.1,7.1-0.3,11.2-0.6c32.8-2.4,43.4-7.4,46-7.6c0.3,0,0.5,0,0.6,0.1
	C180.1,84,181.6,90.3,180.1,92z"/>
<path class="st7" d="M178.2,83.5c-1.2,4.4-35.5,12.6-52.3,12.2c-1.3,0-2.8-0.1-4.3-0.1c-17-0.8-41.1-4.3-39-8.2l0,0
	c0.2-0.3,7-10.3,34.1-13.1c1.6-0.2,3.4-0.3,5.2-0.4c0.9-0.1,1.9-0.1,2.9-0.2c0.2,0,0.4,0,0.5,0c1,0,2-0.1,3-0.1c1.2,0,2.4,0,3.5,0
	c32.6-0.2,45.9,4.9,46.5,9.1C178.3,83,178.3,83.2,178.2,83.5z"/>
<path class="st8" d="M139.9,94.6c-0.5,0.9-3.4,1.7-6.7,2.1c-3.3,0.4-7,0.4-9.3-0.2c-1.1-0.3-1.8-0.7-2.2-1.2
	c-0.2-0.3-0.5-1.1-0.8-2.3c-0.6-2.1-1.4-5.4-2.4-9.1c-0.1-0.5-0.2-0.9-0.3-1.4c-0.5-2.3-1.1-4.7-1.7-7.1c-0.4-1.5-0.7-3.1-1.1-4.6
	c-0.2-0.9-0.4-1.7-0.6-2.5c-0.7-3-1.5-5.9-2.1-8.2c-0.8-3-1.5-5.3-2-6.2c-0.1-0.2-0.2-0.3-0.3-0.3c-0.1-0.1-0.3-0.1-0.5-0.1
	c-1.2-0.2-4.2,0-7.7,0.3c-7,0.5-16.1,1.3-16.9-0.3c-0.5-1-0.9-3.3-1-5.8c-0.2-3.9,0.3-8.4,1.8-9.4c1.2-0.8,8-1.6,15.5-2
	c3.9-0.2,7.9-0.2,11.4-0.1c4.5,0.2,8.1,0.6,9.4,1.6c0.6,0.4,1.3,1.6,2.1,3.5c1.2,2.6,2.6,6.5,4.2,11c0.9,2.7,1.8,5.6,2.7,8.5
	c0.9,2.9,1.8,6,2.6,8.9c0.1,0.5,0.3,0.9,0.4,1.3c0.2,0.6,0.3,1.1,0.5,1.7c0.5,2,1.1,3.9,1.5,5.7c0.3,1.1,0.6,2.2,0.8,3.2
	c0.7,2.6,1.2,5,1.7,7C139.9,91.9,140.2,94.2,139.9,94.6z"/>
<path class="st9" d="M138.9,88.3l-7.7,1.8l-10.7,2.5c-0.6-2-1.4-5.2-2.4-8.8l10.4-3l7.8-2.3C137.5,82.2,138.3,85.6,138.9,88.3z"/>
<path class="st9" d="M134.6,70.5c-2.2,0.6-5,1.3-7.9,2c-3.7,1-7.5,1.9-10.1,2.6c-0.4-1.6-0.7-3.2-1.1-4.7c-0.2-0.9-0.4-1.8-0.6-2.6
	l9.3-4.4l7.4-3.5c0.9,3,1.8,6.2,2.6,9.3C134.3,69.6,134.4,70,134.6,70.5z"/>
<path class="st9" d="M129.1,52.1l-7.4,3.5l-9.1,4.3c-0.8-3-1.5-5.2-2-6l8-7l6.3-5.5C126.1,43.9,127.6,47.7,129.1,52.1z"/>
<path class="st9" d="M112.8,36c-0.4,2.4-0.9,5.4-1.5,8.4c-0.5,2.9-1.1,5.9-1.6,8.7c-1.2-0.2-4,0-7.3,0.3l-0.2-8.3l-0.3-9
	C105.6,35.9,109.4,35.8,112.8,36z"/>
<g class="st10">
	<g class="st10">
		<path class="st11" d="M139.6,80.9c8.2,0.4,16.3,1.3,24.4,2.8c2.6,0.5,3.7-3.5,1.1-3.9c-8.4-1.6-16.9-2.5-25.5-2.9
			C136.9,76.7,136.9,80.8,139.6,80.9z"/>
	</g>
</g>
<g class="st12">
	<g class="st12">
		<path class="st13" d="M165,111.6c-0.5,14.9-1.4,29.7-2.8,44.6c-0.3,2.6,3.8,2.6,4.1,0c1.4-14.8,2.4-29.7,2.8-44.6
			C169.2,108.9,165.1,108.9,165,111.6z"/>
	</g>
	<g class="st12">
		<path class="st13" d="M164.1,167.4c2.6,0,2.6-4.1,0-4.1C161.4,163.3,161.4,167.4,164.1,167.4z"/>
	</g>
</g>
</svg>
