<svg width="999" height="570" viewBox="0 0 999 570" fill="none" xmlns="http://www.w3.org/2000/svg">
<g clip-path="url(#clip0)">
<path d="M800.6 497.3C800.6 497.3 798.2 497.3 800.6 485.5C803 473.7 803 455.7 807.7 450.2C812.4 444.7 828.1 438.4 839.9 432.1C851.7 425.8 858.7 418 863.5 418C868.3 418 866.6 425.1 872.9 418C879.2 410.9 880 417.2 886.3 418L892.6 418.8C892.6 418.8 891 425.1 892.6 429C894.2 432.9 896.5 433.7 902 432.1C907.5 430.5 914.6 416 916.9 414.6C919.3 413.2 922.4 428.9 924 434.4C925.6 439.9 936.6 454 940.5 461.9C944.4 469.8 915.4 505.9 909.1 507.4C902.8 509 884 505.8 880.8 507.4C877.7 509 870.7 493.3 870.2 491.7C869.8 490.1 865.8 492.5 865.8 492.5C865.8 492.5 856.4 485.4 850.1 486.2C843.8 487 832 493.3 828.1 494.1C824.2 494.9 814 494.1 814 494.1L808.5 498.8L800.6 497.3Z" fill="#F44A45"/>
<path d="M882.8 529.7C882.8 529.7 884.4 523.4 884.9 520.3C885.4 517.2 891.2 516.1 891.2 516.1C891.2 516.1 892.8 522.4 891.2 525.5C889.6 528.7 882.8 529.7 882.8 529.7Z" fill="#F44A45"/>
<path d="M943.6 539.7C943.6 539.7 944.6 531.3 949.4 529.8C954.1 528.2 970.9 516.7 975.1 516.2C979.3 515.7 975.1 525.6 975.1 525.6C975.1 525.6 958.9 537.1 954.7 539.7C950.4 542.3 943 542.4 943.6 539.7Z" fill="#167C51"/>
<path d="M984.9 516.1C984.9 516.1 989.1 508.3 989.6 504.1C990.1 499.9 993.8 496.8 993.8 496.8C993.8 496.8 995.4 505.7 995.9 506.5C996.4 507.3 998 508.9 998 512C998 515.1 986 520.9 984.9 520.4C983.9 519.8 983.4 519.2 984.9 516.1Z" fill="#167C51"/>
<path d="M877.6 374.2C877.6 374.2 881 383.1 882.3 383.6C883.6 384.1 895.6 386.7 899.1 389.4C902.5 392 900.7 395.7 899.1 397.3C897.5 398.9 900.4 401.5 902.8 401.2C905.2 400.9 907.8 402.2 908.6 403.8C909.4 405.4 913.8 407.2 915.1 406.2C916.4 405.2 918 401 919.8 400.4C921.6 399.9 927.7 398.8 928.2 400.4C928.7 402 932.4 405.2 934 406.5C935.6 407.8 939.5 407.6 942.4 406.5C945.3 405.4 941.1 404.4 939.5 403.3C937.9 402.3 935.6 400.7 934.3 396.5C933 392.3 934.8 391 931.4 389.2C928 387.4 913.3 377.4 909.4 376.4C905.5 375.4 892.1 378.5 888.2 377.2C884.3 375.9 884.3 373.5 883.2 373C882 372.4 875.8 369.8 877.6 374.2Z" fill="#167C51"/>
<path d="M939.1 388.1C939.1 388.1 943.3 388.1 945.4 389.5C947.5 391 949.6 391.5 947.8 392C946 392.5 940.7 394.4 939.2 392.8C937.5 391.2 936.7 387.9 939.1 388.1Z" fill="#035755"/>
<path d="M849.1 399.6C849.1 399.6 852.4 396.5 855 396.5C857.6 396.5 860.9 398 860.9 398C860.9 398 856.1 400.6 853.9 401.3C851.8 402 847.6 400.9 849.1 399.6Z" fill="#035755"/>
<path d="M836.5 399.1C836.5 399.1 839.1 396.2 841.5 395.7C843.9 395.3 847.6 396.6 847.6 396.6C847.6 396.6 845 397.9 842 399.1C839.1 400.3 835.4 400.1 836.5 399.1Z" fill="#035755"/>
<path d="M835.4 401.6C835.4 401.6 838 402 839.1 401.6C840.2 401.2 839.8 404.2 838.2 404.2C836.7 404.2 834.3 404.1 835.4 401.6Z" fill="#035755"/>
<path d="M826 398C826 398 828.4 396.7 830.6 396.3C832.8 395.8 836.1 395.5 835.5 396.3C834.9 397.1 833.9 398.8 832 399.1C830.2 399.4 824 398.9 826 398Z" fill="#035755"/>
<path d="M795.3 389.5C795.3 389.5 798 387.4 802.3 388.1C806.5 388.7 812 389.8 815.5 390.8C819 391.8 824.2 395.8 826.4 395.7C828.6 395.6 830.1 396.8 827.4 397.2C824.7 397.5 816.2 397.8 812.1 396.7C808 395.6 803.5 393 800.3 392.8C797 392.4 793.5 390.4 795.3 389.5Z" fill="#0C6C44"/>
<path d="M838.9 388C838.9 388 836 379.8 835.6 376.3C835.2 372.8 839.9 364.5 840.5 363.1C841 361.7 851.3 361.9 853.9 360.9C856.5 359.9 853 365.4 850.5 365.4C848 365.4 843.7 365.9 842 366.7C840.3 367.5 841.2 369.8 841.5 369.8C841.8 369.8 847 369.9 847.6 370.6C848.2 371.3 845.1 373.2 845.1 373.8C845.2 374.3 848.1 379.6 848.2 381.2C848.3 382.8 847.4 387.4 846.9 387C846.4 386.6 843.7 384.9 843.4 383.6C843.1 382.3 842.1 380.1 840.8 379.9C839.5 379.7 840.1 383.6 840.1 385C840.2 386.3 839.3 389.3 838.9 388Z" fill="#0C6C44"/>
<path d="M853.8 372.4C853.8 372.4 856.3 372.7 857.1 373.9C857.9 375.1 856.1 375.4 854.9 375.3C853.6 375.2 851.9 372.6 853.8 372.4Z" fill="#035755"/>
<path d="M862.6 368.4C862.6 368.4 862.5 365.1 862.6 363.4C862.7 361.7 862.9 359.6 863.8 359.6C864.7 359.6 866.7 363.2 866.4 364C866.1 364.8 865.3 367.8 864.5 368.4C863.7 369.1 862.6 370 862.6 368.4Z" fill="#0C6C44"/>
<path d="M868 373.2C868 373.2 870.3 373.2 871.3 373.8C872.3 374.4 872.8 375 872.3 375.3C871.8 375.6 869.4 375.4 868.7 375.3C868 375.2 866.6 373.1 868 373.2Z" fill="#035755"/>
<path d="M805.1 360.8C805.4 360.7 809.6 359.1 812.3 359.1C815 359.1 817.7 352.2 820.8 351.8C824 351.4 826.3 345.3 828.8 344.3C831.2 343.3 836.9 346.2 836.3 347C835.7 347.9 833.5 350.3 832.7 351.9C831.8 353.5 832.5 358.1 833.1 359.7C833.8 361.2 835.9 363.3 835.6 363.7C835.2 364.1 829.7 375.1 828.9 376.8C828.1 378.5 826.2 380 823.9 380.1C821.6 380.2 814 379.4 811.9 378.5C809.8 377.5 808.3 373.2 807.7 371.8C807.2 370.4 805.8 368.5 805.7 366.7C805.6 364.7 804.4 361 805.1 360.8Z" fill="#167C51"/>
<path d="M763.2 345.7C763.2 345.7 770.4 348.2 771.9 349.4C773.4 350.6 777.7 356.3 780.3 359.1C782.9 361.9 787.3 365 787.6 366.3C787.9 367.6 794.4 377.4 794.7 378.6C795 379.8 796 385 794.7 385.2C793.4 385.3 786.4 383.5 785.2 381.8C784 380.2 778 374.7 777.8 372.3C777.6 369.9 775.1 362.5 773.8 360.7C772.5 359 769.9 359.1 769 357.9C768.1 356.7 765.8 351.2 764.3 350.8C762.8 350.4 762.2 345.4 763.2 345.7Z" fill="#0C6C44"/>
<path d="M793.1 371.4C793.1 371.4 793.1 374.6 794.3 375.4C795.5 376.1 796.2 377.1 796.6 376.8C797 376.5 797.4 375.2 797 373.9C796.7 372.6 793 370 793.1 371.4Z" fill="#035755"/>
<path d="M715.5 331V338.5C715.5 340.1 720.3 343.5 720.5 344C720.7 344.4 722 337.2 722 335.9C722 334.6 715.5 328.7 715.5 331Z" fill="#0C6C44"/>
<path d="M543.1 231.8C543.1 231.8 545.3 232.4 546 232.6C546.7 232.8 549.7 234.1 549.4 234.4C549.1 234.7 545.7 234.9 545.4 234.9C545.1 234.9 543 235.6 542.6 234.9C542.2 234.2 540.6 231.5 541 231.8C541.3 232.1 542.1 231.6 543.1 231.8Z" fill="#035755"/>
<path d="M511 221.4C511 221.4 514 223 515 223.3C516 223.5 517 225.3 517.5 226.1C518 226.8 515.5 226 515 225.7C514.5 225.4 512.3 225.2 511.6 224.6C510.8 224.1 510.2 221 511 221.4Z" fill="#035755"/>
<path d="M498.6 211.5C498.6 211.5 500 212.8 500.4 213.3C500.8 213.8 499.8 216.6 500.4 217.5C501 218.4 499.6 220.5 499.6 220C499.6 219.5 497.9 217.6 497.3 216.5C496.6 215.4 496.5 214.7 496.6 213.6C496.7 212.4 497.8 210.8 498.6 211.5Z" fill="#035755"/>
<path d="M496.9 204.4C496.9 204.4 495.8 206 496.9 206.7C498 207.4 499.8 208.3 499.8 208.3C499.8 208.3 500 207.4 499.8 206.3C499.6 205.3 497.4 203 496.9 204.4Z" fill="#035755"/>
<path d="M482.6 214.4C482.6 214.4 483.3 215.6 483.8 215.7C484.3 215.8 485.4 215.1 485.8 215C486.2 214.9 484.2 213.9 484.2 213.7C484.2 213.5 482.6 214.4 482.6 214.4Z" fill="#035755"/>
<path d="M476.3 216.7C476.3 216.7 476.7 216.2 477.9 215.7C479 215.3 480.4 215.4 480.8 215.3C481.2 215.2 480.9 216 480.1 216.7C479.4 217.4 478.4 218.3 476.9 218.4C475.4 218.6 475.2 219.2 475.4 218.6C475.7 217.9 475.3 217.4 476.3 216.7Z" fill="#035755"/>
<path d="M456.2 171.3C456.2 171.3 456.7 169.3 457.7 167.7C458.7 166.1 458.2 161.4 458.6 160.6C458.9 159.8 461.9 155.6 462 155.2C462.1 154.9 454.8 148.1 454.5 147.1C454.2 146.1 454.7 143.2 455.2 142.1C455.6 141 458.4 135.7 458.9 135.4C459.4 135.2 461.1 135.4 461.1 135.4C461.1 135.4 461.8 137.5 462.6 138C463.5 138.5 465.5 139.3 466.1 139.9C466.6 140.4 467.2 147.7 467.4 148.3C467.6 149 471.4 156.9 471.9 157.1C472.3 157.3 476.8 160.8 476.9 161.2C477 161.6 475.9 168.4 475.4 168.7C474.9 169 469.8 170.4 469.3 170.6C468.8 170.7 467.7 171.8 466.5 172C465.1 172.4 456.2 171.3 456.2 171.3Z" fill="#167C51"/>
<path d="M441.3 160.9C441.3 160.9 442.7 155.8 443.6 154.7C444.5 153.6 447.1 151.6 448.1 151.2C449.1 150.8 454.5 149.7 454.3 150.2C454.2 150.7 453.7 154.3 453.7 154.9C453.7 155.4 455 158.1 454.9 158.8C454.8 159.6 452.2 164 451.2 164.7C450.2 165.4 443.2 167 443 166.3C442.8 165.6 442.5 163.5 442.5 163.5C442.5 163.5 441.7 162.6 441.3 162.3C440.9 162 441.3 160.9 441.3 160.9Z" fill="#167C51"/>
<path d="M454.3 134.8C454.3 134.8 452.4 136.7 452.1 137.3C451.8 137.9 451.1 140.2 451.4 140.1C451.7 140 452.8 139.3 453.6 138.9C454.4 138.5 454.7 136.7 454.9 136.3C455.2 135.8 454.3 134.8 454.3 134.8Z" fill="#035755"/>
<path d="M468.5 125C468.5 125 466.5 127.1 466.2 127.8C465.9 128.6 464.9 130.1 465.6 130.2C466.2 130.3 468.4 128.9 468.5 128.8C468.6 128.7 468.8 128.6 469.4 127.6C469.9 126.6 468.5 125 468.5 125Z" fill="#035755"/>
<path d="M603.7 85.8C603.7 85.8 604.6 84.2 605 83.8C605.4 83.5 607.4 82.7 607.7 82.7C608 82.7 608.6 85.4 607.7 85.8C606.8 86.1 604.3 87.5 604.3 87.5C604.3 87.5 603.4 86.3 603.7 85.8Z" fill="#41294A"/>
<path d="M610.2 69.8001C610.2 69.8001 611.4 64.9001 612.6 63.5001C613.8 62.1001 621.4 51.7001 622.2 51.5001C623 51.3001 625.8 49.9001 627.2 49.3001C628.6 48.8001 627.2 54.8001 627.2 54.8001C627.2 54.8001 627.6 54.9001 628.6 54.7001C629.6 54.5001 631.5 54.2001 631.5 54.8001V58.2001C631.5 58.2001 622.8 64.5001 622.7 65.2001C622.6 65.9001 622.3 71.6001 622.3 71.6001C622.7 73.1001 624.4 76.6001 624.4 77.2001C624.4 77.7001 624.3 79.9001 624.3 79.9001C624.3 79.9001 619.8 78.7001 618.8 78.3001C617.8 77.9001 614.9 73.4001 614.3 73.2001C613.8 73.0001 611.9 71.9001 611.4 71.5001C610.8 70.8001 610.2 69.8001 610.2 69.8001Z" fill="#0C6C44"/>
<path d="M631.6 48.4C631.6 48.4 630.4 49.6 630 50.5C629.6 51.4 631.6 52.4 632.6 53C633.6 53.7 635.4 53.5 636.2 53C637 52.5 640.2 49.3 640.2 49.3C640.1 48.6 637.3 47.4 636.3 47.4C635.3 47.3 631.6 48.4 631.6 48.4Z" fill="#0C6C44"/>
<path d="M646.1 44.2999C646.1 44.2999 640.6 45.2999 640.2 45.8999C639.8 46.5999 644.1 48.2999 645.1 48.2999C646.1 48.2999 647.5 48.5999 648.8 48.2999C650 47.9999 652.1 45.3999 652.1 45.3999C652.1 45.3999 648.9 43.6999 646.1 44.2999Z" fill="#0C6C44"/>
<path d="M619.7 407.3C619.7 407.3 617.4 412.9 616.8 413.4C616.1 413.9 610.2 419.5 608.8 420.4C607.3 421.4 605.7 422.5 605.2 423.7C604.7 424.8 602.6 428.1 602.9 428.8C603.2 429.5 604.7 431.3 604.7 432.1C604.7 432.9 602.6 436.4 602.1 438.2C601.6 440 600.6 447.4 601.1 448.4C601.6 449.4 603.2 454.8 605 455.4C606.8 456.1 615.2 443.6 616.1 441.3C617.1 439 616.3 438 617.6 437C618.9 436 620.4 423.6 620.9 422.1C621.4 420.6 623 419.8 623.2 419.2C623.4 418.5 621.9 407.9 621.6 407.4C621.2 406.8 621.4 406 619.7 407.3Z" fill="#167C51"/>
<path d="M602.2 323.8C602.2 323.8 602.7 324.3 604.7 325.4C606.7 326.5 609.1 324.4 611.3 324.6C613.4 324.8 622.3 322.1 623.9 322.1C625.5 322.1 626.2 322.6 625.5 325.7C624.8 328.8 621.6 342.2 620.3 344.7C619 347.2 604.1 361.2 601 364.3C597.9 367.4 590.8 376.1 590.7 376.9C590.5 377.7 591.2 390.5 591.8 392.1C592.5 393.7 593.8 397.5 593.9 399.6C594.1 401.7 593.2 416.6 592.6 418.6C591.9 420.6 576.7 433.2 576.1 435C575.4 436.8 574.5 439.7 575.1 440.4C575.8 441.1 577.7 441.9 577.1 444.3C576.4 446.8 575.4 448.9 574.9 449.9C574.5 450.9 571.2 450.9 569.9 452.5C568.6 454.1 568.9 458.1 567.9 460.9C566.9 463.7 564.1 466.6 562.7 469.1C561.2 471.6 556.8 475.2 555.7 477.6C554.6 480.1 552.8 482 552.1 483C551.4 484 539.3 485 536.9 485.9C534.4 486.9 533.3 489 531.5 489.2C529.7 489.4 525.4 489.2 525.4 489.2C525.4 489.2 522.3 484.8 522 483.1C521.7 481.5 519.9 478.8 520.4 476.2C520.9 473.6 513.9 456.2 512.9 454.1C511.9 452 511.6 438.7 511.4 435.8C511.2 432.9 505.3 428.1 505.9 426.1C506.5 424.1 506.7 416.9 507 415.3C507.3 413.7 510.1 407.5 510.9 405.6C511.7 403.7 511.9 400.7 511.9 399.1C511.9 397.5 510.4 395.7 510.4 393.9C510.4 392.1 510.6 389.1 510.6 388.7C510.6 388.3 500.6 373 499.6 371.7C498.6 370.4 498.5 369.1 498.6 367C498.8 364.9 499.1 362.1 498.5 361.3C497.9 360.5 498 352.9 498.5 351.5C499 350 495.6 346.1 495.6 346.1L487.7 345.1C487.7 345.1 483.8 340 483 339.9C482.2 339.7 479.2 339.2 478.4 339.7C477.6 340.2 474.3 341.2 473.3 341.2H467.2C467.2 341.2 465.4 344 463.8 344.3C462.2 344.6 460.2 345 460.2 345L457.6 343.4C457.6 343.4 453.2 342.6 451.5 342.9C449.9 343.2 447.7 344.5 447.1 344.5C446.4 344.5 444.2 344.5 443.7 344.3C443.2 344.1 428 329.9 426.7 327.9C425.4 325.9 420.5 319.1 420.3 318.2C420.1 317.4 419.5 310.2 419.5 310.2L417.2 308.2C417.2 308.2 417.7 304.1 418 302.8C418.3 301.5 421.4 296.4 421.9 295.6C422.4 294.8 421.1 293.1 421.2 292.3C421.4 291.5 423 289 423 289C423 289 421.4 283.6 421.5 282C421.7 280.4 421.2 280 422.2 277.7C423.2 275.4 422.5 267.9 423 266.9C423.5 265.9 434.8 256.4 436.4 256.1C438 255.8 439.3 253.3 439.3 253.3C439.3 253.3 439.1 249.2 439.5 247.2C439.8 245.2 447.2 236 448.5 235.1C449.8 234.2 452.3 230.8 452.9 230.8H468.5C470 230.8 472.9 227.7 474.1 227.7C475.2 227.7 501.3 228 501.9 227.7C502.6 227.4 503 237.9 504 238C505 238.2 509.1 240.5 509.4 241.1C509.7 241.8 510.5 242.6 510.7 242.7C510.9 242.9 517.2 244 517.7 244.5C518.2 245 522.2 250.7 522.2 250.7C522.2 250.7 528.6 250.7 529.1 250.4C529.6 250.1 532 244.8 532.5 244.2C533 243.5 534.5 243.5 536.1 243.5C537.7 243.5 542 245.3 542.7 245.3C543.4 245.3 543.7 249.9 544 250.4C544.3 250.9 546.3 248.1 546.8 248.1C547.3 248.1 556.8 250.4 557.9 250.9C559 251.4 569.6 261.9 571.5 263C573.4 264 578.5 278.4 579.2 279.6C579.9 280.7 580 284.2 580 284.2C580 284.2 582.8 286.2 583.3 287.8C583.8 289.4 585 292.8 585.7 294.1C586.4 295.4 587.4 299.1 589 300.4C590.6 301.7 591.3 306.8 591.9 307.8C592.6 308.8 592.7 312.6 593.4 312.7C594.1 312.9 596.7 314 597.7 314.8C598.7 315.6 600.3 317.7 601.3 318.6C602.2 319.5 602.2 323.8 602.2 323.8Z" fill="#167C51"/>
<path d="M279.5 567.8C279.5 567.8 275.6 565.8 273.2 564.7C270.8 563.6 268.2 561.6 268.2 561.6C268.2 561.6 266.9 559.2 266 559C265.1 558.8 261.2 561.4 261.2 561.4L264 567.7C264 567.7 269.2 569.4 270.3 569.9C271.5 570.4 279.5 567.8 279.5 567.8Z" fill="#0C6C44"/>
<path d="M267.3 553.1L265.6 547.9C265.6 547.9 271.5 542 272.2 539.8C272.9 537.6 273.1 531.1 273.1 531.1L270.5 527.8C270.5 527.8 277.3 517.8 277.7 516C278.1 514.3 277.7 510.1 277.7 510.1C277.7 510.1 278.1 509 279.7 508.6C281.2 508.2 283.4 503.1 284.5 501.8C285.6 500.5 296.3 496.3 296.7 495.5C297.1 494.6 297.6 491.6 297.6 491.6C297.6 491.6 294.5 484.6 295.6 484C296.7 483.3 301.7 484 301.7 484C301.7 484 312.4 473.1 317 467.6C321.6 462.1 321.1 453 322.5 449.7C323.8 446.4 341.5 438.1 343 435.5C344.5 432.9 348.7 416.1 348.7 416.1C348.7 416.1 350.4 403.2 351.1 401.3C351.8 399.3 358.7 396.5 359.2 394.3C359.6 392.1 360.3 377.9 360.3 377.9C360.3 377.9 348.7 374.8 348.3 373.3C347.9 371.8 347.9 369.8 346.8 368.7C345.7 367.6 333.5 366.1 332.6 365.9C331.7 365.7 326.3 358.7 326.3 358.7C326.3 358.7 316.5 359.6 315 358.7C313.5 357.8 313.1 355.9 313.1 355.9C313.1 355.9 313.2 349.6 313.1 348C313 346.5 304.3 339 301.9 337.5C299.5 336 289.2 332 287.5 330.5C285.8 329 284 322.9 283.4 322C282.7 321.1 263.5 318.9 262.9 318.5C262.2 318.1 256.1 315 256.1 315C256.1 315 253 318.5 252 317.8C250.9 317.1 250 312.8 249.2 312.8C248.3 312.8 242.9 316.1 242.9 316.1C242.9 316.1 238.3 317.2 237.2 318.3C236.1 319.4 233.9 324.4 232.8 324.9C231.7 325.3 228.9 326 228.9 326C228.9 326 227.6 329.7 228 330.6C228.4 331.5 230.6 335.6 230.6 335.6C230.6 335.6 230.2 344.3 229.5 345C228.8 345.7 219.9 357.7 219.7 358.8C219.5 359.9 219.7 363.6 219.7 363.6C219.7 363.6 223.2 366.7 222.3 368.8C221.4 371 218.2 374.3 218.2 375.6C218.2 376.9 222.8 383.5 223.9 384.1C225 384.8 225.2 393.5 225.9 394.4C226.6 395.3 235.9 408.4 237 409.2C238.1 410.1 251.8 421.6 252.3 424C252.7 426.4 254.9 436.9 253.8 443.6C252.7 450.3 251.4 459.1 250.5 461.7C249.6 464.3 250.3 487.5 249.8 489.4C249.4 491.3 248.9 494.4 248.3 495.1C247.6 495.8 248.5 511.9 249 514.5C249.4 517.1 250.3 524.8 249 527.2C247.7 529.6 246.8 534 247 535.3C247.2 536.6 249.4 542.7 249.6 543.6C249.8 544.5 250 548.2 250 548.2L253.9 551.3L254.8 556.3C254.8 556.3 259.2 557.4 260.3 557.6C261.4 557.8 261.6 555.4 261.6 555.4C261.6 555.4 263.6 556.5 266 555.8C268 555.1 267.3 553.1 267.3 553.1Z" fill="#167C51"/>
<path d="M213.2 273.3C213.2 273.3 223.8 272.8 225 273.3C226.1 273.8 236.6 280.5 237.6 281C238.6 281.5 244 283.9 244 283.9C244 283.9 242.5 285 241.4 285.4C240.3 285.7 232.2 285.4 232.2 285.4C232.2 285.4 230.7 281.5 229.9 281C229.1 280.5 224.2 277.9 223 277.6C221.9 277.3 214.8 279.4 214.8 279.4C214.8 279.4 211.9 277.5 211.4 276.8C210.9 276.1 213.2 273.3 213.2 273.3Z" fill="#0C6C44"/>
<path d="M230.7 289.6C230.7 289.6 234.3 290.3 235.6 290.6C236.9 290.9 238.4 292.9 238.4 292.9C238.4 292.9 235.1 292.6 234.6 292.9C234 293.2 230.8 292.9 230.8 292.9C230.8 292.9 229.6 289.4 230.7 289.6Z" fill="#0C6C44"/>
<path d="M243.9 289.5C243.9 289.5 245.5 290.3 246.7 289.5C247.8 288.7 249.5 287.1 250.5 287.1C251.5 287.1 255.4 286.8 256.2 287.1C257 287.4 259.5 288.4 258.8 289.5C258.1 290.7 255.4 293.9 254.2 293.9C253.1 293.9 250.1 294.6 249.6 293.9C249.1 293.2 247.8 292.9 247.8 292.9C247.8 292.9 245.5 292.3 244.9 292.1C244.3 292 242 289.2 243.9 289.5Z" fill="#0C6C44"/>
<path d="M299 175.1C299 175.1 310.6 164.8 311.6 165.6C312.6 166.4 311.6 171.3 311.6 171.3C311.6 171.3 313.1 172.4 314.7 172.6C316.3 172.8 317.1 177.7 317.5 178.3C317.8 179 317.5 184.7 316.4 184.7C315.3 184.7 312.8 182.9 312.8 182.9L305.3 181.8L302.8 180.8C302.8 180.8 298.1 180 298.2 179.3C298.3 178.7 299 175.1 299 175.1Z" fill="#F44A45"/>
<path d="M232.3 104.7C232.3 104.7 235.4 98.4999 236.7 97.6999C238 96.8999 242.6 96.3999 242.6 96.3999C242.6 96.3999 245.2 101.8 245.9 102C246.6 102.2 250.5 104.8 250.5 104.8L249.4 105.8H242.7C242.7 105.8 238.4 109.6 237.8 109.7C237.1 109.8 231.7 105.9 232.3 104.7Z" fill="#F44A45"/>
<path d="M240 110.7C240 110.7 239.2 113.2 240 113.3C240.8 113.5 243.8 112 244.1 110.7L244.4 109.4C244.4 109.4 240.3 109.6 240 110.7Z" fill="#F44A45"/>
<path d="M255.7 106.5L254.2 109.6C254.2 109.6 253.7 109.9 255.7 109.4C257.7 108.9 259.1 106.5 259.1 106.5C259.1 106.5 257.5 105.2 255.7 106.5Z" fill="#F44A45"/>
<path d="M258.2 103C258.2 103 266.7 104.7 267.9 104.7C269 104.7 271.3 109.1 272.7 109.5C274 109.8 278.8 110 280.4 111.5C282 113 285.6 118 286.5 117.9C287.3 117.7 286.5 115.3 286.5 115.3L284 107.9C284 107.9 290.1 113.8 290.7 113.5C291.4 113.2 292.3 103.1 292.3 103.1C292.3 103.1 287.7 96.9999 287.6 96.4999C287.4 95.9999 288.1 94.9999 289.2 94.8999C290.3 94.6999 294.8 99.2999 296.4 99.1999C298 98.9999 304.9 91.4999 304.9 91.4999C304.9 91.4999 288 80.8999 289.3 80.3999C290.6 79.8999 291.1 79.6999 291.1 79.0999C291.1 78.3999 292.2 75.1999 292.2 75.1999C292.2 75.1999 284.5 66.1999 283.4 66.1999H278.2C278.2 66.1999 278 65.9999 275.7 64.3999C273.4 62.7999 259.2 61.8999 259.2 61.8999C259.2 61.8999 256.3 57.2999 255.8 56.9999C255.3 56.6999 249.4 56.9999 249.4 56.9999C249.4 56.9999 245.8 64.9999 245.3 64.3999C244.8 63.6999 245.3 60.5999 245.3 60.5999L246.9 55.3999L241.4 56.3999C241.4 56.3999 234.6 63.5999 234.8 64.3999C235 65.1999 235.5 73.0999 235.5 73.0999C235.5 73.0999 240.4 75.5999 242.1 75.8999C243.8 76.1999 252.6 76.1999 254.3 76.1999C256 76.1999 260.7 75.4999 260.7 75.4999L263.2 73.9999L264.5 77.3999C264.5 77.3999 266.6 81.7999 267.3 81.9999C268 82.1999 273.5 83.9999 273.5 83.9999C273.5 83.9999 273 90.1999 273 90.6999C273 91.1999 268.1 95.5999 267.3 96.2999C266.5 96.9999 261.2 100.2 260.6 100.2C259.8 100.3 257 102.7 258.2 103Z" fill="#F44A45"/>
<path d="M267.7 84.2C267.7 84.2 263.8 86.5 263.8 87.3C263.8 88.1 263 92 263.8 91.9C264.6 91.7 267.2 88.6 267.7 88.1C268.2 87.5 267.7 84.2 267.7 84.2Z" fill="#F44A45"/>
<path d="M261.1 77.8C261.1 77.8 259 77.8 258.2 78.9C257.4 80 256.7 81.1999 256.7 81.1999C256.7 81.1999 259 81.4999 260 81.1999C261 80.8999 262 79.6 262 79.6C262 79.6 262 77.7 261.1 77.8Z" fill="#F44A45"/>
<path d="M140 60.8C140 60.8 141.5 62.2 141.6 62.5C141.7 62.8 141.6 65.8 141.6 65.8C141.6 65.8 151.7 66.5 152.2 65.8C152.6 65.1 153.6 61.8 154.4 61.4C155.2 61.1 158.4 58 158.4 58C158.4 58 159.1 62 158.4 62C157.7 62 157.7 63.7 157.7 63.7L158.6 69.1C158.6 69.1 170.4 69.6 170.2 70C170 70.3 167.4 71.2 167.4 71.2C167.4 71.2 159.4 72.3 159.2 72.7C159 73.1 158.8 75.2 158.8 75.2C158.8 75.2 166.6 78.9 167.8 79.6C169 80.3 173 80.8 173.7 80.7C174.4 80.6 177.7 78.4 177.7 78.4C177.7 78.4 186.4 78.8 187.4 78.8C188.4 78.8 191.7 79.7 192.4 79.6C193.2 79.6 196.2 79.6 196.2 79.6C196.2 79.6 197.9 75.2 198.5 75C199 74.8 200.5 73.6 200.5 73.6C200.5 73.6 200.6 72.2 200.5 71.5C200.4 70.8 193 62.7 192.4 61.7C191.9 60.7 191 57.1 191 57.1H187.8C187.8 57.1 186.5 59.4 185.9 59.5C185.4 59.6 184.3 58 184.3 58L180.4 59.4C180.4 59.4 171.4 59 170.9 58.5C170.4 58.1 167.7 56.1 167.7 56.1L165.7 56.9L164.4 55.4C164.4 55.4 165.3 54.7 165.5 54C165.7 53.3 165.4 51.8 165.4 51.8C165.4 51.8 158.4 52 158.1 51.8C157.8 51.6 156.1 50.6 155.7 50.5C155.3 50.4 145.9 50.5 145.9 50.5C145.9 50.5 143.1 55.2 143 56C142.9 56.8 140 60.8 140 60.8Z" fill="#F44A45"/>
<path d="M155.3 39.4001C155.3 39.4001 155.5 38.3001 156.1 37.9001C156.6 37.5001 165.2 33.0001 165.7 32.8001C166.2 32.6001 174.1 32.8001 174.1 32.8001C174.1 32.8001 172.5 35.8001 171.8 36.1001C171.1 36.4001 166.5 38.6001 166.5 38.6001C166.5 38.6001 164.9 41.7001 164.7 41.8001C164.5 41.9001 163.1 40.2001 163.1 40.2001C163.1 40.2001 155.1 40.0001 155.3 39.4001Z" fill="#F44A45"/>
<path d="M169.1 43.4001C169.1 43.4001 174.2 38.6001 174.8 38.4001C175.3 38.2001 180.4 41.6001 180.9 41.7001C181.4 41.8001 181.3 43.8001 181.3 44.4001C181.3 45.0001 178.4 47.7001 178.4 48.1001C178.4 48.5001 176.9 49.1001 176.9 49.1001C176.9 49.1001 176 47.6001 175.3 47.4001C174.5 47.2001 169.5 46.7001 169.2 46.6001C168.7 46.5001 168.1 44.3001 169.1 43.4001Z" fill="#F44A45"/>
<path d="M192.7 54.2001C192.7 54.2001 193.8 53.2001 194.6 53.1001C195.4 53.0001 196.5 53.1001 196.5 53.1001C196.5 53.1001 197.3 55.6001 196.5 55.9001C195.7 56.2001 194.1 56.8001 194.1 56.8001C194.1 56.8001 193 55.0001 192.7 54.2001Z" fill="#F44A45"/>
<path d="M202.5 59.6001C202.5 59.6001 203.4 59.2001 204.4 58.9001C205.4 58.7001 207.9 58.9001 207.9 58.9001C207.9 58.9001 208.3 57.8001 207.9 57.3001C207.5 56.8001 206.7 56.2001 206.7 56.2001V55.0001C206.7 55.0001 212.6 54.5001 212.8 54.0001C213 53.6001 214 53.1001 214.3 53.1001C214.6 53.0001 217.2 53.1001 217.2 53.1001C217.2 53.1001 215.8 55.9001 215.3 55.9001C214.9 55.9001 213.4 56.9001 213.4 56.9001C213.4 56.9001 214.2 57.7001 214.6 58.0001C215 58.3001 215.6 59.0001 215.7 59.6001C215.8 60.2001 215 63.2001 215 63.2001C215 63.2001 211.8 66.8001 211.3 66.8001C210.8 66.8001 208.9 67.6001 208.5 66.8001C208.1 66.0001 207.4 64.0001 207.4 64.0001C207.4 64.0001 204.1 63.2001 203.6 63.0001C203.1 62.8001 202.5 59.6001 202.5 59.6001Z" fill="#F44A45"/>
<path d="M194.8 46.2001C194.8 46.2001 194.3 45.3001 193.5 44.9001C192.7 44.5001 190.6 43.0001 190.3 42.9001C190.1 42.8001 188 42.3001 187.9 41.7001C187.8 41.1001 187.7 38.1001 188.3 37.7001C189 37.3001 190.8 36.6001 190.8 36.6001C190.8 36.6001 191.6 38.6001 191.9 38.8001C192.2 39.0001 193.4 40.0001 194.6 40.0001C195.8 40.0001 197.8 40.8001 197.8 40.8001C197.8 40.8001 196.3 42.1001 196 42.1001C195.7 42.1001 195.4 44.1001 195.4 44.1001L196.6 45.0001C196.8 45.1001 195.1 46.7001 194.8 46.2001Z" fill="#FA5652"/>
<path d="M181.3 32.0001C181.3 32.0001 180.8 30.6001 182.1 30.3001C183.3 30.0001 184.1 28.8001 184.1 28.8001C184.1 28.8001 186.1 26.4001 186.6 26.3001C187 26.2001 191.6 26.3001 191.6 26.3001C191.6 26.3001 189.6 28.7001 189.6 29.1001C189.6 29.5001 189.9 31.5001 189.9 31.5001C189.9 31.5001 188.8 33.5001 188.4 33.6001C188 33.7001 183.2 34.2001 183.1 34.1001C182.8 34.0001 181.3 32.0001 181.3 32.0001Z" fill="#F44A45"/>
<path d="M180.1 28.5001C180.1 28.5001 177.4 29.1001 177.4 29.6001C177.4 30.2001 175.4 31.9001 175.8 32.0001C176.1 32.1001 178 32.0001 178 32.0001C178 32.0001 179.7 30.9001 180.2 30.6001C180.6 30.3001 181.6 28.1001 180.1 28.5001Z" fill="#FA5652"/>
<path d="M198.8 45.4999C198.8 45.4999 200.5 44.8999 201.2 44.8999H203.6C203.6 44.8999 203.3 46.6999 202 47.0999C200.7 47.4999 198.9 47.4999 198.9 47.4999C198.9 47.4999 197.4 45.8999 198.8 45.4999Z" fill="#F44A45"/>
<path d="M220.8 56.4C220.8 56.4 223.3 55.3 224.4 55.4C225.5 55.6 227.8 55 227.8 55C227.8 55 229.4 53.5 231.2 53.5H234.8C234.8 53.5 233.4 56.3 232.9 56.9C232.4 57.5 230 58.2 230 58.2H226.5C226.5 58.2 224.9 60.6 224.5 60.7C224 60.9 222.6 62 222.2 62H219.3C219.3 62 219.5 56.9 220.8 56.4Z" fill="#FA5652"/>
<path d="M222.6 53.1C222.6 53.1 224.4 52 226 52H229.9C229.9 52 228.6 54.1 227.5 54.3C226.4 54.5 222.3 54.6 222 54.7C221.8 54.7 222.6 53.1 222.6 53.1Z" fill="#FA5652"/>
<path d="M220.8 47C220.8 47 222.2 45 222.5 44.8C222.8 44.6 224.3 44.2 225.9 44.2C227.6 44.1 229.9 44.2 229.9 44.2C229.9 44.2 229.7 47.9 228.7 48.1C227.7 48.3 224.1 49.3 222.8 49.7C221.4 50 220.8 47 220.8 47Z" fill="#F44A45"/>
<path d="M207.2 43.8C207.2 43.8 209 44.2 209.8 44.9C210.7 45.6 212.6 46.3 212.8 46.2C213 46.1 215.3 46.3 215.8 46.4C216.3 46.5 217.6 42.3 217.6 42.3C217.6 42.3 219 40.4 219.2 40.1C219.4 39.8 218.7 38.4 218.7 38.4H213.6C213.6 38.4 212.5 37.9 212.2 38C211.9 38.1 209.7 40.3 209.7 40.3L207.2 43.8Z" fill="#F44A45"/>
<path d="M202.5 40.2L204.4 38.1C204.4 38.1 205.5 38.3 206.4 38.1C207.3 37.9 207.2 39.8 207.2 39.8C207.2 39.8 205.6 41.7 205.3 41.5C205.1 41.3 203.3 41.5 203.3 41.5C203.3 41.5 201.5 41.2 202.5 40.2Z" fill="#F44A45"/>
<path d="M199.3 32C199.3 32 199.9 33.4 200.6 33.6C201.3 33.8 202.1 34.5 202.1 34.5L203.5 35C203.5 35 203.2 32.4 202.9 32C202.8 31.7 199 31.4 199.3 32Z" fill="#F44A45"/>
<path d="M213.3 24.2C213.3 24.2 210.7 22.7 210 22.5C209.3 22.2 207.2 22.5 207.2 22.5L206.4 24.2L203.8 26.3C203.8 26.3 202 28.1 202.2 28.1C202.4 28.2 205.8 28.4 207.2 28.6C208.6 28.8 212.8 28.3 212.8 28.3L214.3 30.2C214.3 30.2 215.9 30.8 216.4 30.8C216.9 30.8 218.7 30.5 218.7 30.5C218.7 30.5 218.2 27.6 217.8 27.3C217.5 27 215.1 25.9 215.1 25.9C215.1 25.9 213.8 24.5 213.3 24.2Z" fill="#F44A45"/>
<path d="M227.2 31.9999C227.2 31.9999 223.9 31.4999 223.5 30.8999C223.1 30.1999 222.4 29.4999 222.4 29.4999L220.3 27.2999C220.3 27.2999 224.5 25.9999 225.5 25.7999C226.5 25.5999 228.5 27.4999 228.7 27.6999C228.9 27.8999 229.2 29.1999 229.2 29.1999L229.9 30.3999L231.2 31.6999C231.2 31.5999 228 32.0999 227.2 31.9999Z" fill="#F44A45"/>
<path d="M229.3 32.3001C229.3 32.3001 231.2 32.1001 231.9 32.3001C232.6 32.5001 233.3 33.4001 233.3 33.4001L233.6 34.5001C233.6 34.5001 230.9 34.7001 230.5 34.5001C230.2 34.3001 229.3 34.1001 228.9 33.8001C228.5 33.5001 229.3 32.3001 229.3 32.3001Z" fill="#FA5652"/>
<path d="M223.1 36.5C223.1 36.5 228.4 36.4 229.2 36.5C230 36.6 231.5 37.3 231.5 37.3L233.5 38.1C233.5 38.1 231.2 39.2 230.8 39.3C230.4 39.4 227.6 39.2 227.4 39.3C227.2 39.4 225.3 38.6 225.3 38.6C225.3 38.6 223.8 38.7 223.1 38.5C222.3 38.4 221.6 37.6 221.6 37.6C221.6 37.6 222.3 36.2 223.1 36.5Z" fill="#FA5652"/>
<path d="M177.6 48.8C177.6 48.8 182.5 46.7001 183.7 46.9001C184.9 47.1001 190.8 46.9001 190.8 46.9001L195.4 46.1L191.4 41.7001L188.4 39.8L182.6 41.7001L178.7 40.5L177.5 44.8V48.8H177.6Z" fill="#F44A45"/>
<path d="M223.1 38.5C223.1 38.5 227.1 40.5 227 40.5C227 40.5 229.7 42.3 230.7 42.2C231.7 42 232.3 44.9 232.3 44.9L234.7 48.9L236.2 49.8C236.2 49.8 241.5 48.2 242.7 48.9C243.9 49.6 246.9 51 247.3 50.6C247.7 50.2 252.9 49.3 255.1 49.8C257.3 50.3 261.9 50.7 261.9 50.7L265.6 48.9C265.6 48.9 262.1 45.6 261.5 44.9C260.8 44.3 253 43.5 253 43.5C253 43.5 243.1 43.6 242.7 43.4C242.4 43.2 240 39.7 239.6 39.8C239.3 39.9 234.7 38.5 234.7 38.5H232.5H223.1V38.5Z" fill="#F44A45"/>
<path d="M260.6 55.3999C260.6 55.3999 261.8 57.9999 263.3 58.4999C264.8 58.9999 269.7 59.4999 269.7 59.4999H273.8C273.8 59.4999 271.3 55.5999 269.7 55.3999C268.2 55.1999 260.6 55.3999 260.6 55.3999Z" fill="#F44A45"/>
<path d="M271.3 40.8001C271.3 40.8001 269.5 39.2001 268.7 39.3001C267.9 39.4001 266.6 38.5001 266.6 38.5001L263.5 40.8001C263.5 40.8001 260.6 39.2001 259.4 39.3001C258.3 39.4001 253.5 39.3001 253.5 39.3001L249.6 39.8001L243.7 39.7001L241.2 38.1001C241.2 38.1001 244.8 34.9001 245.3 34.5001C245.8 34.2001 246.9 32.3001 247.4 32.2001C247.9 32.2001 250.2 31.7001 250.7 32.2001C251.2 32.7001 252.8 33.3001 252.8 33.3001L253.6 32.2001L252.5 30.2001L250.4 28.8001L251.5 28.4001L250.4 26.6001L247.5 28.4001H243.7L235.8 27.5001L232.9 20.3001L230 19.0001C230 19.0001 229 15.9001 230 15.9001C231 15.9001 233.7 12.8001 233.7 12.8001C233.7 12.8001 236.8 8.40006 237.4 8.40006C238.1 8.40006 243.1 9.90006 243.1 9.90006C243.1 9.90006 253.9 20.5001 254.1 21.0001C254.3 21.5001 255.4 25.8001 256.1 25.7001C256.8 25.6001 260.9 26.3001 260.9 26.3001C260.9 26.3001 260.1 23.0001 259.6 22.3001C259.1 21.7001 257 18.9001 257 18.9001L258.7 18.1001C258.7 18.1001 260.3 17.9001 262.3 19.1001L264.3 20.2001L263.8 15.9001L259.7 14.6001L255.1 14.1001L250.7 12.6001C250.7 12.6001 248.2 11.0001 247.1 9.80006C246 8.70006 245.8 6.70006 245.8 6.70006L250.7 4.60006L257 3.00006L259.6 3.80006L263.7 3.00006C263.7 3.00006 268 1.50006 270.1 1.00006C272.2 0.50006 275 1.80006 279.3 1.00006C283.6 0.20006 284.9 5.96642e-05 286.5 0.90006C288.1 1.80006 289.9 1.80006 289.9 1.80006L293.5 0.30006C293.5 0.30006 296.6 0.40006 301 0.30006C305.4 0.20006 307.4 0.30006 307.4 0.30006L311.3 3.00006L316.4 4.50006C316.4 4.50006 320.2 4.70006 320.7 5.20006C321.2 5.70006 317.8 8.30006 317.8 8.30006L308.3 9.30006C308.3 9.30006 307.2 15.2001 306.3 15.2001C305.5 15.2001 301.9 16.5001 301.9 16.5001C301.9 16.5001 295.4 19.1001 294 19.4001C292.7 19.7001 282.9 20.6001 282.9 20.6001C282.9 20.6001 282.1 26.1001 281.6 26.5001C281.1 26.8001 279.1 28.9001 279.1 28.9001L279.8 30.4001L271.3 36.5001C271.3 36.5001 273.6 37.8001 272.6 39.4001L271.3 40.8001Z" fill="#F44A45"/>
<path d="M286.7 29.9999C286.7 29.9999 288.3 27.6999 289.3 27.3999C290.3 27.0999 295.2 26.0999 295.2 26.0999C295.2 26.0999 302.1 23.5999 303.4 23.2999C304.7 22.9999 308.3 20.4999 308.3 20.4999C308.3 20.4999 305 20.2999 304.9 19.1999C304.7 18.0999 305.7 16.6999 305.7 16.6999C305.7 16.6999 307.2 13.7999 308.3 13.3999C309.4 13.0999 314.7 11.3999 314.7 11.3999L317.1 9.29992C317.1 9.29992 328.2 5.99992 330 5.19992C331.8 4.39992 344.4 5.69992 348.2 5.19992C352 4.69992 354.3 4.19992 354.3 4.19992C354.3 4.19992 356.3 2.89992 358.9 2.19992C361.5 1.49992 371.2 0.899919 375.3 1.39992C379.4 1.89992 382.3 0.0999186 382.3 0.0999186C382.3 0.0999186 405.1 -0.500081 407 0.0999186C409 0.699919 416 1.79992 416.5 1.79992C417 1.79992 420.4 5.19992 419.6 5.09992C418.8 4.89992 415 6.09992 415 6.09992C415 6.09992 398.3 6.89992 397.5 7.39992C396.7 7.89992 396.5 9.49992 397 9.49992C397.5 9.49992 417.5 8.49992 418 8.69992C418.5 8.89992 415.9 12.7999 416.7 12.7999C417.5 12.7999 421.4 10.7999 421.9 10.7999C422.4 10.7999 440.2 11.2999 441.3 11.2999C442.4 11.2999 440.3 14.0999 440.3 14.0999C440.3 14.0999 434.6 15.8999 432.9 16.5999C431.2 17.2999 431.1 20.3999 430.3 20.3999C429.5 20.3999 425.1 22.3999 425.1 22.3999C425.1 22.3999 424 26.9999 423.3 28.4999C422.6 29.9999 420.5 31.7999 420.5 31.7999C420.5 31.7999 421.8 34.5999 422.3 35.3999C422.8 36.1999 425.4 38.7999 425.4 40.8999V42.9999C425.4 42.9999 420 41.2999 419.5 40.8999C419 40.4999 419 42.9999 419 42.9999L420.8 44.4999C420.8 44.4999 421.3 55.2999 420.8 56.2999C420.3 57.2999 419 60.1999 419 60.1999L410.8 56.8999C410.8 56.8999 410.1 60.1999 410.8 60.1999C411.5 60.1999 414.7 62.7999 414.7 62.7999L415.4 66.6999C415.4 66.6999 411 65.0999 409.7 64.1999C408.4 63.3999 408.2 64.8999 408.2 64.8999L409.2 65.8999L414.1 68.4999C414.1 68.4999 415.6 72.0999 415.7 73.3999C415.9 74.6999 415.4 75.6999 415.4 75.6999H411L408.7 73.5999L405.3 73.2999L402.2 74.0999L399.1 74.5999L398.6 76.6999L403.5 77.4999C403.5 77.4999 408.7 76.7999 410.5 77.4999C412.3 78.1999 408 81.3999 407.6 82.0999C407.1 82.7999 401.5 86.6999 400.9 86.6999C400.3 86.6999 398.8 86.3999 393.2 86.6999C387.6 86.9999 384.4 87.9999 384.4 87.9999L382.1 91.2999C382.1 91.2999 378.8 94.1999 378.3 94.6999C377.8 95.1999 374 95.7999 374 95.7999H368.3C368.3 95.7999 367.5 99.0999 366.7 99.5999C365.9 100.1 360 107 360 107C360 107 356.7 115 355.6 117C354.5 119 353.6 121.7 352.7 122.6C351.7 123.4 349.3 125.9 349.3 125.9H344.9L335.2 118.9L331.8 107.8C331.8 107.8 330.5 107.6 330.3 106.5C330.1 105.4 327.2 95.4999 327.2 95.4999L327.4 86.6999L331.3 83.6999L333.1 82.6999L333.3 77.7999L332.2 76.9999L329.6 78.9999H327L328.1 74.2999L330.4 72.2999L334.7 71.9999L331.1 69.1999L326.3 68.0999C326.3 68.0999 325.3 55.6999 324.5 54.6999C323.7 53.6999 320.8 50.7999 320.8 50.7999L317.2 44.7999L312.1 42.6999L307.2 41.0999L303.6 40.9999L300 41.0999H295.1L291.5 38.6999L288.9 37.7999L291.2 36.4999L294.1 34.4999L297.2 33.6999L296.2 32.5999H291L289.4 31.4999L286.7 29.9999Z" fill="#167C51"/>
<path d="M409.6 96.2H413.7V98.3H416.2L421.1 96.2L429.9 95.2L432.5 96.8L434.6 100.6L430.8 108L425.7 110L420.5 112L417.9 109.7L412.2 108.6L409.6 103V102.2L408.5 99.7L405.7 98.7L407.2 96.7L409.6 96.2Z" fill="#167C51"/>
<path d="M101.2 161.8L104.3 163.9L107.6 167L108.7 169.9V171.7L104.9 169.2L101.8 166.7L101.1 163.3V161.8H101.2Z" fill="#FA5652"/>
<path d="M89.4 131.5V135.3V138.4L86 135V130.3C85.9 130.2 88.1 129.9 89.4 131.5Z" fill="#DA5C5D"/>
<path d="M93.9 138.4L96.5 142.5V146.1L93.9 143.8L91.4 141.3L93.9 138.4Z" fill="#FF5476"/>
<path d="M33.5 134.3L36.8 131L39.9 128.5L41.2 130.1L39.1 132.9L37.4 135.4H34.4L33.5 134.3Z" fill="#DA5C5D"/>
<path d="M862.5 253.6V245.3L864.2 241.7L867.2 244.4V249.4V253.7H862.5V253.6Z" fill="#F44A45"/>
<path d="M867.1 238.7L870.7 233.7H877L879.7 230.4L882.3 226.1C882.3 226.1 883 229.7 885 224.1L887 218.5V214.5H892.3L895.9 216.5V230.4L893.9 236.4L889.9 238.7L879.7 243.3C879.7 243.3 881.3 246.9 878 245L874.7 243L870.1 241.7H867.1V238.7Z" fill="#F44A45"/>
<path d="M886 209.9V205.6L889 201.3V196.3H894.3L897.9 198.3L901.5 200.3L897.9 206.3L892.6 209.9H889.6H886V209.9Z" fill="#F44A45"/>
<path d="M887.7 192.3L886 179.7V177.7L881.5 171.7V158.8H884.6L886 166.8L891 177.7L893.8 179.4V183.7V190.7V192.4H887.7V192.3Z" fill="#F44A45"/>
<path d="M801.4 296.5L805.8 292.7H810V296.5L805.7 299.6H804.8L801.4 296.5Z" fill="#0C6C44"/>
<path d="M835.8 283.2L837.6 277.5L839.6 274.9L841.8 273.8L844.5 278.6L840.1 283.4V285.6L835.8 286.5V283.2V283.2Z" fill="#0C6C44"/>
<path d="M837.6 297.2V305.2L835.8 310.1L839 313.9L843 316.8L844.5 311.3V303.8V297.4L840.2 296.4L837.6 297.2Z" fill="#0C6C44"/>
<path d="M846.7 312.9L847.6 316.7V318L850.7 320.4L851.8 316.6V312.8L850.3 311.7L846.7 312.9Z" fill="#0C6C44"/>
<path d="M853.4 320.4V322.6L851.8 326.6L849.3 327.7V331H850.5L853.5 329.7C853.5 329.7 856.1 327.3 857.2 325.7L858.3 324.2V321.8L853.4 320.4Z" fill="#0C6C44"/>
<path d="M840.1 316.6L845.5 318.4V320.4L842.8 321.3L840.1 320.4L839.4 319L840.1 316.6Z" fill="#0C6C44"/>
<path d="M830.5 331L832.9 325.7L835.7 323.3H838.2L839.3 324.6L838.2 328.6L835.7 331L834.9 335H830.5V331Z" fill="#0C6C44"/>
<path d="M845.5 338.5L851.8 335L853.7 331H856.4L857.8 332.3L858.2 334.7V338.5L857.8 342.9L855.2 343.8L851.7 342.1V340.3L846.6 342.1H845.4V338.5H845.5Z" fill="#0C6C44"/>
<path d="M975.8 99.7001C974.5 98.4001 948.3 86.8001 947.4 86.6001C946.5 86.4001 933.2 83.5001 932.6 84.4001C931.9 85.3001 931.5 89.0001 930.6 88.8001C929.7 88.6001 928.2 87.9001 928.2 87.9001L926.5 85.9001C926.5 85.9001 914.1 86.3001 912.7 86.3001C911.4 86.3001 908.8 88.9001 907.7 88.9001C906.6 88.9001 900.1 80.8001 899 80.6001C897.9 80.4001 879.3 79.7001 879.1 79.5001C878.9 79.3001 878.3 76.7001 876.7 76.2001C875.2 75.8001 860.5 70.3001 859 70.3001H844.2C842.7 70.3001 840.7 74.9001 840.7 74.9001C840.7 74.9001 826.5 75.3001 825.2 75.6001C823.9 75.8001 823.2 76.7001 822.1 76.7001C821 76.7001 814 66.2001 812.5 65.8001C811 65.4001 803.3 64.5001 801.4 64.7001C799.4 64.9001 797.7 66.7001 796.2 66.4001C794.7 66.2001 790.1 66.8001 788.8 66.0001C787.5 65.1001 785.7 65.3001 784.4 64.7001C783.1 64.1001 772.6 63.9001 771.5 63.6001C770.4 63.4001 768.7 61.2001 767.3 61.4001C766 61.6001 760.5 64.7001 759.7 64.5001C758.8 64.3001 762.8 61.4001 762.8 61.4001C762.8 61.4001 769.6 56.8001 770 55.1001C770.4 53.4001 767.4 51.2001 766.3 49.6001C765.2 48.1001 762.8 46.8001 761.5 46.5001C760.2 46.3001 753.6 45.6001 751.5 44.8001C749.3 43.9001 747.8 41.5001 746 41.1001C744.3 40.7001 742.1 40.9001 740.1 41.1001C738.1 41.3001 733.8 46.3001 732.7 46.6001C731.6 46.8001 718.3 47.9001 717.4 47.9001C716.5 47.9001 710.9 52.3001 709.1 52.5001C707.4 52.7001 703.2 54.2001 701.9 55.6001C700.6 56.9001 699.3 61.7001 697.5 61.7001C695.8 61.7001 690.5 61.3001 689.4 62.6001C688.3 63.9001 685.7 64.8001 687 65.7001C688.3 66.6001 695.7 71.8001 694.6 72.3001C693.5 72.7001 689.7 71.0001 686.6 70.1001C683.5 69.2001 680.8 69.0001 680.2 69.4001C679.5 69.8001 678.5 73.1001 677.1 72.9001C675.8 72.7001 674.9 67.2001 674 67.0001C673.1 66.8001 670.5 67.9001 670.5 70.7001C670.5 73.5001 672.5 78.1001 673.8 81.2001C675.1 84.3001 679 86.4001 681 87.1001C683 87.8001 684.3 90.2001 683.2 90.6001C682.1 91.0001 678.2 90.4001 677.5 90.8001C676.8 91.2001 674 97.4001 672 98.2001C670 99.1001 666.3 99.7001 666.8 99.1001C667.2 98.4001 670.5 93.0001 670.3 89.5001C670.1 86.0001 668 81.2001 666.8 78.6001C665.5 76.0001 667.2 72.5001 666.8 69.9001C666.4 67.3001 659.4 67.3001 657.2 68.2001C655 69.1001 652.6 72.6001 652.2 74.8001C651.8 77.0001 654.8 82.4001 657 84.6001C659.2 86.8001 657.9 89.0001 656.8 89.0001C655.7 89.0001 648.9 83.3001 645 81.4001C641.1 79.4001 635.8 79.7001 633.9 79.9001C631.9 80.1001 631.1 83.4001 632.6 83.2001C634.1 83.0001 637.8 86.3001 637.8 86.9001C637.8 87.6001 623.8 88.0001 621.9 88.4001C619.9 88.8001 617.5 87.5001 616.9 87.3001C616.2 87.1001 600.3 97.8001 599.4 97.6001C598.5 97.4001 598.3 91.7001 598.1 90.8001C597.9 89.9001 594.4 88.6001 593.7 88.4001C593 88.2001 592.8 91.9001 592.6 93.4001C592.4 94.9001 588.7 98.4001 588.7 98.4001L582.6 103.6C582.6 103.6 584.3 107.1 582.6 107.1C580.9 107.1 576 104.3 574.5 104.3C573 104.3 574.9 109 574.5 109.3C574.1 109.6 571.9 109.3 571.9 109.3C571.9 109.3 564.7 98.7001 565.6 97.8001C566.5 96.9001 572.1 97.1001 573.2 98.7001C574.3 100.2 573 100.7 574.3 100.2C575.6 99.8001 580.6 99.1001 580.6 99.1001C580.6 99.1001 583.7 95.8001 583.7 95.0001C583.7 94.1001 562.3 80.4001 561 79.9001C559.7 79.5001 560.6 80.3001 557.7 80.3001C554.9 80.3001 553.8 80.1001 553.8 80.1001C553.8 80.1001 552.9 80.3001 553.8 78.4001C554.7 76.4001 548.6 73.6001 547.9 73.4001C547.2 73.2001 542.7 75.4001 542 75.4001C541.3 75.4001 538.1 74.7001 538.1 74.7001L530.2 78.6001C530.2 78.6001 525 79.5001 524.1 80.3001C523.2 81.2001 519.1 81.4001 518.4 82.0001C517.7 82.7001 511.2 87.7001 512.7 88.3001C514.2 89.0001 513.8 92.7001 513.8 92.7001C513.8 92.7001 499.8 108.4 497.9 110.2C495.9 111.9 488.3 118.7 488.1 119.8C487.9 120.9 485.9 124 487 124.6C488.1 125.3 490.1 126.6 490.1 127.4C490.1 128.3 491 136.4 491.8 136.6C492.7 136.8 495.9 137 495.9 137C495.9 137 500.5 134.2 501.1 134.2C501.8 134.2 504.9 141.8 505.6 142.9C506.3 144 506.5 148.4 506.5 148.4L510 149.9C510 149.9 515.9 148.6 517.4 147.7C518.9 146.8 518.7 140.1 518.7 139C518.7 137.9 525 132 525.2 130.9C525.4 129.8 522.6 122.6 522.4 121.5C522.2 120.4 523.3 115.4 524.4 114.3C525.5 113.2 527.7 113.2 528.8 111.9C529.9 110.6 534.5 104.3 535.6 103.4C536.7 102.5 540.8 102.1 540.8 102.1C540.8 102.1 542.8 104.9 541.5 105.6C540.2 106.3 534.3 110.4 533.9 111.5C533.5 112.6 529.8 123.3 531.1 124.6C532.4 125.9 536.3 129 538.5 129.4C540.7 129.8 547.7 127.4 549.9 127.9C552.1 128.3 554.7 130.3 554.7 130.3C554.7 130.3 546.6 131.4 545.1 132C543.6 132.7 541 133.3 541 133.3C541 133.3 540.3 141.4 539.3 141.4C538.2 141.4 533.8 143.1 533.8 143.1C533.8 143.1 529.9 152.5 528.8 152.9C527.7 153.3 504.8 154 502.8 153.3L501.7 141.9C501.7 141.9 498.4 143.9 497.8 144.7C497.1 145.6 496.7 154.1 495.8 154.7C494.9 155.4 487.1 159.9 486.7 160.8C486.4 161.7 476.1 175 474.4 174.8C472.7 174.6 467.4 173.7 467 175C466.6 176.3 466.1 178.5 464.8 179.1C463.5 179.8 457.4 181.1 457.4 181.1C457.4 181.1 458.7 182.8 459.6 183.1C460.5 183.3 462.4 183.1 462.4 183.1C462.4 183.1 466.1 189.2 467 189.9C467.9 190.6 466.8 198.4 466.6 199.1C466.4 199.8 462 199.1 460.7 199.1C459.4 199.1 455.2 198 455.2 198C455.2 198 446.7 200.6 445.6 200.8C444.5 201 442.5 203 443.4 204.1C444.3 205.2 445.6 207.2 445.6 207.2L444.3 212L441.5 218.1C441.5 218.1 445.4 224.2 446.7 225.5C448 226.8 463.3 225.1 464.2 225.5C465.1 225.9 471 219.8 471.6 219C472.3 218.1 471.6 211.8 471.6 211.8C471.6 211.8 480.1 207.2 481.2 205.7C482.3 204.2 482.3 200.7 482.3 200.7C482.3 200.7 492.3 201.1 493.6 200.9C494.9 200.7 500.4 200 500.4 200C500.4 200 507 207.6 508.5 209.2C510 210.7 519.2 215.7 519.2 215.7C519.2 215.7 521.4 221.4 521.8 220.5C522.2 219.6 522.2 214.6 522.2 214.6C522.2 214.6 522.6 214.8 523.9 214.4C525.2 214 512.1 205.5 511.2 203C510.3 200.6 508.8 196.7 508.8 196.7C508.8 196.7 524.1 204.1 525.4 206.3C526.7 208.5 526.5 216.3 527.6 216.8C528.7 217.2 531.7 221 532.2 222C532.6 223.1 534.4 227.5 535.5 227.7C536.6 227.9 539 229.2 539 229.2C539 229.2 544 224 544 223.3C544 222.6 540.5 218.5 540.1 217.4C539.7 216.3 547.3 213 549.1 212.8C550.8 212.6 554.3 214.1 554.3 214.1C554.3 214.1 548.4 218.7 549.7 220C551 221.3 553.6 230.3 555.4 230.5C557.1 230.7 574.2 229.2 575.5 230.5C576.8 231.8 577.5 233.4 577.5 233.4C577.5 233.4 576.5 249.4 572.6 249.4C568.7 249.4 560.8 249.7 562.4 250.4C564 251.1 568.6 258 574.6 261.2C578.3 263.1 587.8 279.6 588.2 282.6C588.5 285.5 602 315.6 604.6 316.9C607.2 318.2 635.1 305.8 638 304.5C640.9 303.2 651.4 288.1 651.4 286.5C651.4 284.9 644.2 272.4 643.5 271.4C642.8 270.4 631.7 276.6 629.7 276C627.7 275.3 617.6 257 618.9 256.3C620.2 255.6 625.4 258.6 625.4 258.6C625.4 258.6 630.3 267.8 632 268.1C633.6 268.4 643.5 266.1 644.8 266.5C646.1 266.8 646.8 272.4 648.7 272.4C649.8 272.4 656.6 272.7 662.4 273.2L674.5 259.4V247.7V241.7V231.8L685.1 226.4L693.1 218.9L697.5 211.4V192.4V181.7L706.3 177L715.5 175.7L718.8 165.7V150.2L725.7 140.2H731.9H739.9V144.6L749.6 153.9H754.9L762.7 159H774.3L784.9 165.7L793.1 166.7L801.3 171.9H811.8L820.6 166.7L825.6 159L830.6 153.9V150.2L825.6 137.6L816.8 135.5L815.9 127.7L820.6 121.6H825.6L830.6 112H840.1L845.5 117.9H853L864.5 127.7L872.5 130.3H882.8L885.3 138.2C890.5 137.7 897 137.4 897.6 137.8C898.5 138.5 900 141.1 902.2 141.3C904.4 141.5 909.8 137.4 911.4 137.6C912.9 137.8 909.2 134.1 909.2 134.1C909.2 134.1 912.9 128.9 914.4 128.9C915.9 128.9 918.1 130.9 919.6 131.5C921.1 132.2 928.8 125.6 928.8 125.6C928.8 125.6 930.1 127.1 930.1 127.8C930.1 128.5 921.8 141.3 920.1 142.4C918.4 143.5 915.7 146.1 915.7 146.1C915.7 146.1 914 156.1 914.8 157.9C915.7 159.6 923.3 178.9 924.4 177.1C925.5 175.4 931.6 164.7 932 163.1C932.4 161.6 930.7 159.6 932 157.6C933.3 155.6 936.4 153.7 936.4 152.4C936.4 151.1 934.7 146.7 934.4 145C934.2 143.3 931.8 141.9 931.8 141.9C931.8 141.9 932.5 137.3 934.6 136.9C936.8 136.5 937.2 134.7 941.2 134.5C945.1 134.3 947.1 134.1 947.1 134.1C947.1 134.1 950.4 135.6 951.2 135.6C952.1 135.6 956.7 126.4 958 126.6C959.3 126.8 962.6 127.5 963.5 127C964.4 126.6 967.2 125.5 967.2 125.5C967.2 125.5 970.7 124.6 970.7 123.3C970.7 122 967.4 115.4 966.3 115C965.2 114.6 963.7 113 963.7 113C963.7 113 965.4 111 966.3 110.6C967.2 110.2 967.6 106.9 967.6 106.9C967.6 106.9 969.1 105.4 970.7 106.9C972.2 108.4 983.6 116.3 986.6 116.7L989.7 117.1V111.6C989.7 110.5 991.4 107.5 991.4 107.5C991.4 107.5 977.1 101 975.8 99.7001Z" fill="#167C51"/>
<path d="M872.5 130.2L864.5 127.6L853 117.8H845.5L840.1 111.9H830.6L825.6 121.5H820.6L815.9 127.6L816.8 135.4L825.6 137.5L830.6 150.1V153.8L825.6 158.9L820.6 166.6L811.8 171.8H801.3L793.1 166.6L784.9 165.6L774.3 158.9H762.7L754.9 153.8H749.6L739.9 144.5V140.1H731.9H725.7L718.8 150.1V165.6L715.5 175.6L706.3 176.9L697.5 181.6V192.3V211.3L693.1 218.8L685.1 226.3L674.5 231.7V241.6V247.6V259.3L662.4 273.1C666.7 273.4 670.4 273.8 671 274.1C672.3 274.9 682.5 284.7 682.5 284.7L679.9 286.7C679.9 286.7 683.5 291 685.1 291.3C686.7 291.6 693 289 693 289C693 289 695 303.4 695.3 304.7C695.6 306 704.8 334.5 707.7 334.2C710.6 333.9 713.6 328.3 715.2 324.4C716.8 320.5 715.9 311.6 717.5 309.3C719.1 307 724.1 307 724.7 305C725.4 303 728.3 296.2 728.3 296.2C728.3 296.2 736.5 295.2 736.8 293.9C737.1 292.6 738.4 288.7 738.4 288.7L747.6 284.8C747.6 284.8 749.9 292.3 751.5 292.7C753.1 293 759.7 299.2 759.7 299.2C759.7 299.2 758.1 308.4 759 308.7C760 309 768.8 308 768.8 308C768.8 308 771.5 319.4 769.7 321.2C769.7 321.2 771.3 334.6 772.5 337.5C773.7 340.3 779.4 345.6 780.3 347.9C781.2 350.2 780.3 354.7 782 356.6C783.7 358.6 789.4 362.6 790.8 363.3C792.2 364 791.6 359.2 791.8 357.8C792 356.5 790.2 357 790.2 353.6C790.2 350.2 790.1 349.7 789.5 348.1C789 346.6 780.2 338.1 779 337.1C777.8 336.1 776 333.9 775.7 332.7C775.4 331.5 775.5 325.7 775.5 324.5C775.5 323.3 778.9 319 779 319C779.2 319 785.4 326.4 786.7 327.4C788 328.4 791 335.7 792.4 336.1C793.8 336.5 802.9 326.2 804 324.1C805.1 322 806.1 312.7 804 310.7C801.9 308.6 796.8 305.8 796.2 303.4C795.7 301 793.9 296.9 795 295.2C796.1 293.6 800.1 290.5 801 290.3C801.9 290.1 805.3 292.5 806.4 292.4C807.5 292.3 810 291.4 811.3 291.2C812.6 291 824.2 285.3 826.6 282.5C829 279.7 838.8 264.6 838.5 262.2C838.5 262.2 835.6 257.8 836.3 256.5C837 255.2 838.5 251.9 838.5 251.9L829.4 239.1C829.4 239.1 837.5 231.9 836.2 230.6C834.9 229.3 819.8 228.6 820.5 227C821.2 225.4 827.7 216.5 828.7 216.5C829.7 216.5 831.3 223.4 831.3 223.4C831.3 223.4 839.5 221.4 840.8 222.4C842.1 223.4 842.1 228.6 843.1 230.6C844.1 232.6 848 242.1 849.7 241.7C851.3 241.4 852.6 236.8 856.2 236.5C859.8 236.2 856.2 229.3 856.2 226.3C856.2 223.4 851.3 222.4 851.9 218.8C852.6 215.2 855.5 208.6 860.1 208C864.7 207.3 870.6 202.4 873.5 198.5C876.4 194.6 880.1 180.8 878.4 175.6C876.8 170.4 876.4 162.8 876.4 162.8L869.4 161.1C869.4 161.1 864.4 161.8 864.4 161.1C864.4 160.4 861.1 156.7 861.1 156.7C861.1 156.7 877.2 139.5 878.8 138.8C879.4 138.6 882 138.2 885.1 137.9L882.6 130H872.5V130.2Z" fill="#F44A45"/>
<path d="M915.3 149L923.3 151.5L925.8 156.5L932.1 157.5V163L925.8 179L915.3 164L914.9 157.8L915.3 149Z" fill="#F44A45"/>
<path d="M805.2 360.8L808.7 362.7H813.1L817 363.4L820.7 360.8L824.6 355.6L828.4 351.7L828.9 349.2L832.1 346.9L834.1 345.1C834.1 345.1 830.7 343.2 829.5 343.8C828.3 344.5 826.4 345.7 826.4 345.7L819.6 352.2L817 353.5L812.8 358.5L809.4 359.1C809.4 359 805.4 360.3 805.2 360.8Z" fill="#F44A45"/>
<path d="M185.3 237.6H174.7L160.1 241L155.2 237.6L146.8 235.3L136.2 237.6L115.6 236.2C116.1 238.9 116.6 242.4 117.9 243.4C119.9 244.9 120.7 252.4 121 253.4C121.3 254.4 122 256.7 123.6 257.3C125.2 258 127.4 264 127.9 265.7C128.4 267.3 133.1 271.1 134.3 271.4C135.4 271.7 135.9 268.8 135.9 268.8C135.9 268.8 132 263.6 131.6 262.3C131.3 261 129.8 256.9 129.6 256.4C129.4 255.9 126 244.6 126.7 244.6C127.4 244.6 128.2 244.9 128.2 244.9C128.2 244.9 132.8 255.7 133.4 257.2C134.1 258.7 141.9 267.5 142.9 268.5C143.9 269.5 146 282.7 146.5 283.2C147 283.7 156.7 292.4 157.6 293.2C158.6 294 164.8 297.6 166.3 298.4C167.8 299.2 171.1 299.4 171.5 299.4C171.9 299.4 182.3 299.6 182.6 300.2C182.9 300.9 188.3 306.4 188.7 307.2C189 308 197.5 308 198.7 308.3C199.8 308.6 201.8 313 202.1 314.4C202.4 315.7 212.3 326.5 213.4 327.7C214.5 328.8 220.3 329 221.1 328.8C221.9 328.6 223.9 327.7 224.5 327C225.2 326.3 225.2 324.1 225.2 324.1C225.2 324.1 223.6 322.3 222.7 322.3H218.8C218.8 322.3 212.9 318.4 212.4 317.2C211.9 316.1 213.5 300.7 213.2 300C212.9 299.3 201.2 297.4 200.8 296.4C200.3 295.4 200.8 292.3 200.8 292.3C200.8 292.3 204.4 284.1 204.4 283.1C204.4 282.1 200.6 279.3 200.6 279.3C200.6 279.3 187.1 287.2 186.2 287.7C185.4 288.2 173.3 286.9 172.6 285.9C171.9 284.9 173.1 262.3 173.4 260.4C173.7 258.4 179.6 252.2 182.2 251.6C184.8 250.9 198.6 251.3 199.7 250.8C200.8 250.3 205.1 248.2 205.1 248.2L196.9 241.1L185.3 237.6Z" fill="#167C51"/>
<path d="M306.2 152.7L298.5 143C298.5 143 296.2 130.6 295.7 129.9C295.2 129.2 291.4 125.3 291.4 125.3C291.4 125.3 288.6 128.4 288.1 128.9L286.1 130.9L279.9 130.2C279.9 130.2 278.3 119.7 277.6 119.2C276.9 118.7 267.1 112 266 111.5C264.9 111 257.3 112.6 256.7 112.6C256 112.6 253.4 126.4 253.4 126.4C253.4 126.4 251.6 128.9 251.3 129.3C251 129.8 251.1 133.2 252.1 133.6C253.1 133.9 253.1 138.5 253.1 138.5L250.6 144.6C250.6 144.6 246.3 147.5 245.7 148C245 148.5 243.7 157.8 243.7 158.5C243.7 159.2 242.4 163.4 241.1 162.8C239.8 162.1 239.1 157.7 239.1 157.7L236 156.1C236 156.1 235 150.5 234.5 149.1C234 147.6 226 143.2 226 143.2C226 143.2 217.3 137 216.7 136.8C216 136.6 210.1 134.5 210.1 134.5L209.3 131.7C209.3 131.7 206.8 130.9 206.5 130.4C206.2 129.9 206 125.7 207 124.5C208 123.4 219.3 108.3 220.3 107.8C221.3 107.3 225.5 106.8 225.5 106.8C225.5 106.8 235.8 95.7999 237.1 94.9999C238.4 94.1999 243.5 92.9999 243.5 92.9999C243.5 92.9999 250.2 90.8999 250.9 90.3999C251.6 89.8999 252.7 79.3999 252 78.5999C251.3 77.7999 245 76.9999 244.3 77.2999C243.6 77.5999 243.5 81.0999 241.7 81.6999C239.9 82.3999 235 86.8999 235 86.8999C235 86.8999 234.3 79.3999 233.9 79.3999C233.4 79.3999 229.3 79.1999 229.3 79.1999C229.3 79.1999 228 75.6999 227.5 76.0999C227 76.4999 225.2 76.0999 225.2 76.0999C225.2 76.0999 225 69.5999 224.4 67.7999C223.7 65.9999 220.1 64.3999 220.1 64.3999C220.1 64.3999 215 71.2999 214.9 71.7999C214.7 72.2999 216.5 74.3999 216.5 74.3999L221.3 76.1999C221.3 76.1999 219.5 78.9999 219.3 79.7999C219.1 80.5999 215.9 81.5999 215.9 81.5999L214.4 78.7999L209 75.3999C209 75.3999 204.1 78.2999 204.4 79.2999C204.7 80.2999 206.5 80.8999 206.5 80.8999L204.9 82.6999C204.9 82.6999 196.5 83.3999 194.6 83.3999C192.7 83.3999 183.5 80.8999 182.5 81.0999C181.5 81.2999 180.2 84.4999 180.2 84.4999C180.2 84.4999 174.5 84.7999 173.8 84.6999C173.1 84.4999 160.9 83.3999 161 82.8999C161.2 82.3999 162.8 80.7999 162.8 80.7999L162.1 79.2999L149.7 77.7999C149.7 77.7999 148.2 76.1999 146.6 75.1999C145 74.1999 134.2 74.1999 134.2 74.1999C134.2 74.1999 132.9 72.3999 131.6 72.0999C130.3 71.7999 116.2 72.7999 116.2 72.7999C116.2 72.7999 109.8 77.0999 108.8 77.1999C107.8 77.3999 98.2 76.3999 98.2 76.3999C98.2 76.3999 92.3 72.2999 90.7 72.0999C89.1 71.8999 77.3 70.7999 76.3 70.4999C75.3 70.1999 71.7 68.6999 71.7 68.6999C71.7 68.6999 68.9 69.6999 68.4 69.6999C67.9 69.6999 65.9 68.0999 64.6 67.1999C63.3 66.3999 47.9 65.1999 46.6 65.8999C45.3 66.5999 41.7 68.3999 41.7 68.3999C41.7 68.3999 33.7 71.1999 33 71.1999C32.3 71.1999 31 75.4999 29.6 75.8999C28.1 76.3999 22.2 76.6999 22.1 77.3999C21.9 78.0999 21.1 80.4999 21.1 80.4999C21.1 80.4999 25.8 83.2999 26.2 83.8999C26.5 84.5999 25.7 86.9999 26.9 87.4999C28 87.9999 24 88.9999 23.2 88.7999C22.4 88.5999 17.5 90.3999 17.5 90.3999C17.5 90.3999 14.4 93.7999 14.2 94.4999C14 95.1999 14.2 96.4999 14.2 96.4999C14.2 96.4999 24.7 96.2999 24.7 97.2999C24.7 98.2999 24.2 101.1 24.2 101.1C24.2 101.1 17.5 103.6 17.2 104.5C16.9 105.5 10.5 110.4 10.2 111.2C9.9 112 10 120.5 11 121.2C12 121.9 13.3 122.7 13.3 122.7C13.3 122.7 13.3 125.5 13.5 126.1C13.7 126.8 24.8 127.6 24.8 127.6C24.8 127.6 25.3 132 24.3 132.3C23.3 132.6 15.9 135.7 13.8 136.2C11.7 136.7 1.5 145.2 1.5 145.2C1.5 145.2 0.399997 146.2 1.5 146.3C2.6 146.5 11.7 141.4 12.1 141.4C12.6 141.4 19 141.1 21.3 140.9C23.6 140.7 30.5 135 31.5 134C32.5 133 34.8 128.9 34.8 128.9C34.8 128.9 39.1 127.3 40.2 126.8C41.3 126.3 42.7 123.5 42.7 123.5L49.4 114.5C49.4 114.5 52.7 115.6 52.2 116.1C51.7 116.6 45 122.3 45.5 122.6C46 122.9 44 125.7 45 125.4C46 125.1 52.4 121.6 53.7 121.6C55 121.6 56.8 121.3 56.8 121.3C56.8 121.3 58.8 118 59.4 118C60.1 118 62.7 120.9 63.3 121.1C64 121.3 78.2 120.8 79.7 121.3C81.2 121.8 84.1 124.9 84.1 124.9C84.1 124.9 89.3 125.2 90.6 125.2C91.9 125.2 93.9 127.8 93.9 127.8C93.9 127.8 98.6 139.8 99.8 141.4C100.9 143 102.6 159.1 103.1 159.7C103.6 160.4 105.9 160.8 106.9 161.7C107.9 162.5 109 166.8 109.7 167.1C110.4 167.4 112.5 170.9 112.5 170.9C112.5 170.9 109.1 174.3 108.4 174.8C107.7 175.3 108.2 190.7 107.4 191.8C106.6 192.9 103.5 195.9 103.5 196.9C103.5 197.9 102.7 210.3 103.2 213.3C103.7 216.2 109.3 231.3 110.9 231.5C112.5 231.7 113.8 231.2 115 232.8C115.4 233.4 115.7 234.6 115.9 236L136.5 237.4L147.1 235.1L155.5 237.4L160.4 240.8L175 237.4H185.6L197.5 240.8L205.7 247.9C205.7 247.9 214.2 247.9 215.4 248.7C216.5 249.5 219.8 260.8 220.6 261.8C221.4 262.8 225.3 266.1 225.7 265.4C226 264.7 227.8 260.8 227.8 260.8C227.8 260.8 226.2 249.8 226.2 249.2C226.2 248.5 226.9 244.5 226.5 243.5C226.2 242.5 236.8 234.3 238.3 233.3C239.8 232.3 241.9 229.7 241.9 229.7C241.9 229.7 244.5 220 245.3 219.5C246.1 219 253.5 209 254.5 208.7C255.5 208.4 260.6 205.6 261.5 204.9C262.5 204.2 262.8 201.5 263.5 200.5C264.2 199.5 269.7 195.4 269.7 195.4C269.7 195.4 274.9 195.9 275.8 195.4C276.6 194.9 280.2 195.4 280.2 195.4L289.4 189.7C289.4 189.7 282 183.2 281 183.3C280 183.5 279.9 177.4 280.3 176.6C280.8 175.8 282.3 173.2 282.3 173.2C282.3 173.2 282.1 170.4 282.8 170.1C283.5 169.8 290.8 169 290.8 169C290.8 169 294.7 170.1 295.7 170.1C296.7 170.1 309.8 160.6 309.8 160.6C309.8 160.6 309.5 155 309.8 154.5C309.9 154.3 306.2 152.7 306.2 152.7Z" fill="#F44A45"/>
<path d="M474.6 175.1L480.8 176.9L484 176C484 176 486.5 176.7 488 176L489.5 175.3V171.2L487.2 168.5L482 166.6C482 166.6 476 173.5 474.6 175.1Z" fill="#F44A45"/>
</g>
<defs>
<clipPath id="clip0">
<rect width="998.7" height="570" fill="white"/>
</clipPath>
</defs>
</svg>
