<?xml version="1.0" encoding="utf-8"?>
<!-- Generator: Adobe Illustrator 24.0.0, SVG Export Plug-In . SVG Version: 6.00 Build 0)  -->
<svg version="1.1" id="Layer_1" xmlns="http://www.w3.org/2000/svg" xmlns:xlink="http://www.w3.org/1999/xlink" x="0px" y="0px"
	 viewBox="0 0 253.4 233.9" style="enable-background:new 0 0 253.4 233.9;" xml:space="preserve">
<style type="text/css">
	.st0{fill:url(#SVGID_1_);}
	.st1{fill:url(#SVGID_2_);}
	.st2{fill:url(#SVGID_3_);}
	.st3{fill:url(#SVGID_4_);}
	.st4{fill:#FB4C47;}
	.st5{fill:#000C3E;}
	.st6{fill:#FFCEB0;}
	.st7{fill:#EE9B68;}
	.st8{fill:#41294A;}
	.st9{fill:#FFFCF6;}
	.st10{fill:#FFBD96;}
	.st11{fill:#D9423D;}
	.st12{fill:#B43936;}
	.st13{fill:#FFD310;}
	.st14{fill:none;stroke:#FFD310;stroke-width:1.6307;}
</style>
<linearGradient id="SVGID_1_" gradientUnits="userSpaceOnUse" x1="48.5191" y1="63.9731" x2="63.4319" y2="12.1921" gradientTransform="matrix(1 0 0 -1 0 233.9993)">
	<stop  offset="0" style="stop-color:#FFD8D8"/>
	<stop  offset="1" style="stop-color:#FFF8F8"/>
</linearGradient>
<path class="st0" d="M91.9,228.1c-14.4,5.1-28.9,7.4-44.4,4.5c-17.3-3.3-32.2-18-40.7-32.8c-3.1-5.5-5.6-11.6-5.3-17.9
	c0.8-14.5,14.5-16.2,26.2-13.8c6.6,1.3,12.6,4.3,18.6,7.3c9.9,5,21.5,7.4,30.4,14.3c3,2.3,5.2,5.1,8.7,6.8
	c5.4,2.6,11.5,3.9,17.1,6.2c4.7,2,10,5.4,10,10.6c0,5.3-5.5,8.6-10.3,10.7C98.7,225.5,95.3,226.9,91.9,228.1z"/>
<linearGradient id="SVGID_2_" gradientUnits="userSpaceOnUse" x1="215.2907" y1="109.5009" x2="58.7947" y2="208.2948" gradientTransform="matrix(1 0 0 -1 0 233.9993)">
	<stop  offset="0" style="stop-color:#FFF8F8"/>
	<stop  offset="1" style="stop-color:#FFCFCF"/>
</linearGradient>
<path class="st1" d="M38.9,40.4C62.5,5.7,111.2-8.2,150.6,4.8c19,6.3,35,19.4,49.7,33c13,12,25.5,24.9,34.4,40.3
	c6,10.5,10.4,23.1,13.4,34.9c4.6,17.6,0.4,40.4-22.4,38.7c-5.3-0.4-10-2.3-15-4c-4-1.4-8-0.5-12.2-1.2c-10.6-1.7-20.8-5.6-30.4-10.1
	c-19.6-9.3-37.6-21.9-57.7-30.1c-16.5-6.7-34.2-10.1-52-10.1c-7.5,0-15.4,0.5-22.2-2.8c-16.6-8.3-9.1-30.7-2.9-43.3
	C35,46.7,36.8,43.5,38.9,40.4z"/>
<linearGradient id="SVGID_3_" gradientUnits="userSpaceOnUse" x1="245.9392" y1="192.7529" x2="188.6752" y2="217.2117" gradientTransform="matrix(1 0 0 -1 0 233.9993)">
	<stop  offset="0" style="stop-color:#FFD7D7"/>
	<stop  offset="1" style="stop-color:#FFF9F9"/>
</linearGradient>
<path class="st2" d="M223.6,45.6c3.9,3.5,19.1,13.1,19.4,1.8c0.1-2.8-1.2-5.5-2.9-7.6c-2-2.4-4.2-3.6-5.8-6.3
	c-1.9-3.3-4-6.4-6.4-9.3c-4.9-6-10.6-11.5-17.5-14c-4.8-1.7-13.1-1.3-15.4,4.9c-3.4,9,11,10.7,15.4,14c4.2,3.1,6.5,8.5,9.8,12.7
	C221.2,43.3,222.3,44.5,223.6,45.6z"/>
<linearGradient id="SVGID_4_" gradientUnits="userSpaceOnUse" x1="235.195" y1="33.6385" x2="4.9874" y2="166.9513" gradientTransform="matrix(1 0 0 -1 0 233.9993)">
	<stop  offset="0" style="stop-color:#FFCFCF"/>
	<stop  offset="1" style="stop-color:#FFF8F8"/>
</linearGradient>
<path class="st3" d="M151.9,34.6c8.2,4.8,14.4,12.1,21.9,17.9c12.5,9.7,29.5,11.7,43.8,18.4c14.6,6.9,25.6,17.6,30.6,33
	c6.4,19.9,7,43.6,1.6,64c-6,22.5-20.1,37.5-40.8,47.5c-20.6,10-43.5,14.6-66.3,15.6c-2.2,0.1-4.4,0.1-6.6,0.2
	c-49.5,0.3-115.5-17.1-132.3-70.4c-0.2-0.5-0.3-1-0.5-1.5c-1.7-5.9-2.8-12-3-18.2c-1.1-21.9,2.8-46,10.4-66.5
	c5.2-13.8,16.3-25.5,28-33.8C55,29.1,75.1,26.1,95.1,24.7c14.8-1,31.4-1.4,45.4,4.2C144.4,30.6,148.2,32.5,151.9,34.6z"/>
<path class="st4" d="M183.5,225.1c-63.5,18.5-113.5,2-132.1-9.2l-17.2-13.2l6-9.9l37-3.3l61.5-3.3l49.6,9.9l9.5-4.8l1.7,17.5
	C201.8,222.4,200.1,219,183.5,225.1z"/>
<path class="st4" d="M65.5,217.3h108.7c0,0,9.7-81.1-4.6-89c-14.3-7.9-81.2-6.3-96.1,0.5C58.6,135.5,65.5,217.3,65.5,217.3z"/>
<path class="st5" d="M70.5,111.2c-0.2,0-0.4-0.1-0.6-0.2c-0.1-0.1-9.5-9.2-3-25.3c2.3-5.6,4.4-9.6,6.2-13.1
	c3.4-6.3,5.8-10.8,6.9-20.9c0.1-0.5,0.5-0.8,1-0.8c0.5,0.1,0.9,0.5,0.8,1c-1.2,10.4-3.8,15.3-7.1,21.5c-1.8,3.4-3.9,7.4-6.2,12.9
	c-6,14.9,2.5,23.2,2.6,23.3c0.4,0.3,0.4,0.9,0,1.3C71,111.1,70.7,111.2,70.5,111.2z"/>
<path class="st5" d="M130.9,15.7c-0.3,6.9-6,12.2-12.9,12c-6.9-0.3-12.2-6-12-12.9c0.3-6.9,6-12.2,12.9-12
	C125.8,3,131.1,8.8,130.9,15.7z"/>
<path class="st5" d="M69.6,106.3c0,0,3.1,7.8,17.8,11.5c14.7,3.7,26.7-0.8,37.9,4.1c11.2,5,28.1,0.7,31.7-3.8
	c3.6-4.6,6.8-58-1.6-67.6C147,40.9,100.1,30,89.1,39.8C78.1,49.5,63.6,99.9,69.6,106.3z"/>
<path class="st5" d="M161.8,67.3c-0.8,22.6-19.9,40.3-42.5,39.4c-22.6-0.8-43.6-20.9-42.7-43.5c0.8-22.6,20-39,42.6-38.2
	C141.8,25.9,162.6,44.7,161.8,67.3z"/>
<path class="st6" d="M137.6,101.6c0,0,2.7,31.9,0,35.5s-19.5,0.9-23.9,0c-4.4-0.9-6.2-35.5-3.5-35.5
	C112.8,101.6,137.1,94.4,137.6,101.6z"/>
<path class="st6" d="M87.4,64.2c0,0,1.7,49.8,35.3,51.9c33.6,2.1,33.6-68,21.4-74.6C131.9,34.8,81.2,36.1,87.4,64.2z"/>
<path class="st7" d="M127.3,74.9c0,0,6.4,15.3,4.8,16.3c-1.7,1-6.5,0.8-7.8-0.3C123,89.8,124.7,73.2,127.3,74.9z"/>
<path class="st5" d="M113.9,37.7c0,0-12,5.8-14.3,16.8c-2.3,11-1.1,39-13.9,37.7C85.7,92.2,60.9,36.7,113.9,37.7z"/>
<path class="st5" d="M120.2,37.9c-1.1,0.8,12.4,0.8,20.2,10.1c7.7,9.4,9.6,32.8,10.8,33.3c1.2,0.4,6-29-2.5-37.9
	C140.2,34.5,126.4,33.5,120.2,37.9z"/>
<path class="st7" d="M110.6,111.6c0,0,13.1,7.4,26.7,0.5c0,0,1.1,8.4,0,10.3c-1.1,1.9-22.6,3.3-26.8-6.2
	C110.5,116.2,109.4,111.2,110.6,111.6z"/>
<path class="st6" d="M147.9,83.3c0,0,2.6-12.5,7.1-8.1c4.4,4.4,0.3,17.4-4.1,18.7S145.5,89.7,147.9,83.3z"/>
<path class="st6" d="M95.2,81.3c0,0-2.3-12.7-8.2-8.7c-5.9,4-1.8,17.4,3.6,19C96.1,93.2,97.8,87.9,95.2,81.3z"/>
<path class="st8" d="M134.4,67.9c0,0,5.6-3.7,9.7,0.3c3.6,3.6-4,1.2-6.7,2C134.8,71,131.2,71.1,134.4,67.9z"/>
<path class="st8" d="M119.7,68.8c0,0-5.3-4.1-9.7-0.2c-3.8,3.4,4,1.4,6.5,2.4C119.1,71.8,122.7,72.2,119.7,68.8z"/>
<path class="st9" d="M113.9,72.8c-5.2,0-9.5,4.1-9.7,9.3c-0.2,5.3,4,9.8,9.3,10l0.4,0c5.2,0,9.5-4.1,9.7-9.3c0.1-2.6-0.8-5.1-2.6-7
	c-1.8-1.9-4.2-3-6.7-3.1L113.9,72.8z M113.9,93.4c-0.1,0-0.3,0-0.4,0c-6-0.2-10.7-5.3-10.5-11.3c0.2-6,5.3-10.7,11.3-10.5
	c2.9,0.1,5.6,1.3,7.6,3.5c2,2.1,3,4.9,2.9,7.8C124.5,88.8,119.8,93.4,113.9,93.4z"/>
<path class="st9" d="M103.6,82.8c-0.1,0-0.2,0-0.2,0l-9.1-3.8c-0.3-0.1-0.5-0.5-0.3-0.8c0.1-0.3,0.5-0.5,0.8-0.3l9.1,3.8
	c0.3,0.1,0.5,0.5,0.3,0.8C104.1,82.6,103.8,82.8,103.6,82.8z"/>
<path class="st5" d="M124.7,42.3c0,0-1.4,19.3,6.1,21.8c7.4,2.5,21.8,2.2,22.6-0.7c0.9-2.9-14.2-26.7-25-30.5
	c-18.9-6.7-36.2,21.3-34,28.7c2.2,7.4,24.7,4.4,28.2,3.4C126.1,64,124,47.6,124.7,42.3z"/>
<path class="st9" d="M124.7,82.9c-0.3,0-0.6-0.2-0.6-0.6c0-0.3,0.2-0.6,0.6-0.6l6.1-0.5c0.3,0,0.6,0.2,0.6,0.6
	c0,0.3-0.2,0.6-0.6,0.6L124.7,82.9C124.8,82.9,124.8,82.9,124.7,82.9z"/>
<path class="st5" d="M110.7,27.6c-0.1,0-0.3,0-0.4-0.1c-3.6-1.9-5.8-4.5-6.4-7.7c-1.4-7.2,5.1-14.9,5.4-15.2
	c0.3-0.4,0.9-0.4,1.3-0.1c0.4,0.3,0.4,0.9,0.1,1.3c-0.1,0.1-6.2,7.4-5,13.7c0.5,2.7,2.4,4.9,5.4,6.4c0.4,0.2,0.6,0.8,0.4,1.2
	C111.3,27.4,111,27.6,110.7,27.6z"/>
<path class="st5" d="M125,29.8c-0.3,0-0.5-0.1-0.7-0.3c-0.3-0.4-0.3-1,0.1-1.3c0.1-0.1,7.3-6.2,7.2-12.7c-0.1-2.7-1.5-5.2-4.3-7.3
	c-0.4-0.3-0.5-0.9-0.2-1.3c0.3-0.4,0.9-0.5,1.3-0.2c3.3,2.4,4.9,5.3,5,8.7c0.2,7.3-7.5,13.8-7.8,14.1
	C125.4,29.7,125.2,29.8,125,29.8z"/>
<path class="st5" d="M153.9,116.3c-0.3,0-0.6-0.1-0.8-0.4c-0.3-0.4-0.2-1,0.2-1.3c0.4-0.2,8.9-6.1,7.5-17c-0.5-4.3-1.7-9-2.9-14.1
	c-2.2-8.8-4.4-17.9-3.8-26.5c0-0.5,0.5-0.9,1-0.8c0.5,0,0.9,0.5,0.8,1c-0.5,8.3,1.7,17.3,3.8,25.9c1.3,5.1,2.4,9.9,3,14.3
	c1.5,12.1-7.9,18.5-8.3,18.8C154.2,116.2,154.1,116.3,153.9,116.3z"/>
<path class="st5" d="M161.7,71.4c0,0-0.1,0-0.1,0c-0.5-0.1-0.8-0.5-0.8-1c2-14-2-25.1-11.7-33c-7.3-5.9-15.2-7.7-15.3-7.7
	c-0.5-0.1-0.8-0.6-0.7-1.1c0.1-0.5,0.6-0.8,1.1-0.7c0.3,0.1,33.3,7.8,28.4,42.8C162.5,71.1,162.1,71.4,161.7,71.4z"/>
<path class="st7" d="M129,106.9c-1.8,0-3.3-0.6-3.3-0.6c-0.5-0.2-0.7-0.7-0.5-1.2c0.2-0.5,0.7-0.7,1.2-0.5c0,0,2.8,1.1,5.2-0.1
	c0.4-0.2,1,0,1.2,0.4c0.2,0.4,0,1-0.4,1.2C131.2,106.7,130,106.9,129,106.9z"/>
<path class="st7" d="M91.8,88.4c-0.1,0-0.2,0-0.3,0c-0.5-0.1-0.7-0.7-0.6-1.1c1.8-6-2.5-9.9-2.6-10C88,76.9,88,76.4,88.3,76
	c0.3-0.4,0.9-0.4,1.3-0.1c0.2,0.2,5.3,4.8,3.1,11.9C92.6,88.2,92.2,88.4,91.8,88.4z"/>
<path class="st7" d="M150.9,88.6C150.9,88.6,150.9,88.6,150.9,88.6c-0.6,0-0.9-0.5-0.9-1c0.4-5.8,4-8.7,4.2-8.8
	c0.4-0.3,1-0.2,1.3,0.1c0.3,0.4,0.2,1-0.1,1.3c0,0-3.1,2.6-3.5,7.5C151.8,88.2,151.4,88.6,150.9,88.6z"/>
<path class="st6" d="M90.6,131.5c0,0,31.1,27.6,48.4,20.4c17.3-7.2,22.5-24.1,13.7-26.7C144.1,122.6,77,120.7,90.6,131.5z"/>
<path class="st7" d="M130.8,103.7c-0.1,0-0.2,0-0.3-0.1c-2.8-1-4.2-2.3-4.3-3.8c-0.1-2.5,3.8-4.3,4.2-4.5c0.5-0.2,1,0,1.2,0.5
	c0.2,0.5,0,1-0.5,1.2c-1.3,0.6-3.2,1.9-3.1,2.8c0,0.7,1.2,1.5,3.1,2.2c0.5,0.2,0.7,0.7,0.5,1.2C131.5,103.4,131.2,103.7,130.8,103.7
	z"/>
<path class="st8" d="M116.5,85c-0.3,0-0.6-0.1-0.8-0.3c-4-3.6-6.8-2.6-7-2.6c-0.6,0.2-1.3-0.1-1.5-0.7c-0.2-0.6,0.1-1.3,0.7-1.5
	c0.2-0.1,4.2-1.6,9.4,3c0.5,0.4,0.5,1.2,0.1,1.7C117.2,84.9,116.8,85,116.5,85z"/>
<path class="st8" d="M137.8,85.3c-0.3,0-0.7-0.1-0.9-0.4c-0.4-0.5-0.4-1.3,0.1-1.7c5.2-4.6,9.2-3.1,9.4-3c0.6,0.2,0.9,0.9,0.7,1.6
	c-0.2,0.6-0.9,0.9-1.5,0.7c-0.1-0.1-2.9-0.9-7,2.6C138.3,85.2,138.1,85.3,137.8,85.3z"/>
<path class="st5" d="M213.1,104.3l-22.8-6.6l-6.7,8.7l-16.1-1.7l19,9.3l6.6-10.9L213.1,104.3z"/>
<path class="st5" d="M193.3,87.6l-14.4,0.2l-2.3,6.2l-9.7,1.9l12.7,2l1.9-7.5L193.3,87.6z"/>
<path class="st9" d="M141.1,71.3c-5.2,0-9.5,4.1-9.7,9.3c-0.2,5.3,4,9.8,9.3,10l0.4,0c5.2,0,9.5-4.1,9.7-9.3c0.2-5.3-4-9.8-9.3-10
	L141.1,71.3z M141.1,91.9c-0.1,0-0.3,0-0.4,0c-6-0.2-10.7-5.3-10.5-11.3c0.2-6,5.3-10.7,11.3-10.5c6,0.2,10.7,5.3,10.5,11.3
	C151.7,87.3,147,91.9,141.1,91.9z"/>
<path class="st10" d="M106,174c0,0,18.3-21.6,34.3-51c6.3-11.5,18-14.3,18.4-12.7c0.4,1.6-6.8,8.4-6.8,8.4s9.7-7.1,11.2-4.8
	c1.6,2.3-6.3,9.4-6.3,9.4s7-4.1,10-2.4c3,1.7-8.3,3.9-8.1,9.8c3.3,91.2-39.7,84.1-39.7,84.1L106,174z"/>
<path class="st7" d="M124.3,153.3c-0.1,0-0.2,0-0.3-0.1c-0.5-0.2-0.7-0.7-0.5-1.2c10.5-25.8,17-29.6,17.3-29.7
	c0.4-0.2,1-0.1,1.2,0.4c0.2,0.4,0.1,1-0.3,1.2c-0.1,0.1-6.4,4-16.5,28.8C125,153.1,124.7,153.3,124.3,153.3z"/>
<path class="st4" d="M96.4,190.2l-62.1,5c0,0-2.1-29.8,6.9-45.1s33.9-22.3,38.1-23.2C83.5,126,96.4,190.2,96.4,190.2z"/>
<path class="st11" d="M167.8,127.4c0,0,22.3,4.8,26.6,28.5c2.7,15.1,6.6,63.5,6.6,63.5l-10,3.8l-9.2,2.7l-19.3,4.4L167.8,127.4z"/>
<path class="st11" d="M103.6,170.1c0,0,26.5,43.5,17.3,44.7c-9.2,1.2-56.2,4.8-68.8,0C39.4,210,33,204.1,34.6,190.8
	c-1.4-20.7,5.4-45.9,8.7-40.2C60.4,179.7,103.6,170.1,103.6,170.1z"/>
<path class="st12" d="M100.9,171.3c-17.5,0-33.4-17.4-34.1-18.1c-0.4-0.5-0.4-1.3,0.1-1.7c0.5-0.4,1.3-0.4,1.7,0.1
	c0.2,0.2,15.8,17.4,32.3,17.4c0.7,0,1.2,0.5,1.2,1.2C102.1,170.8,101.6,171.3,100.9,171.3z"/>
<path class="st12" d="M171.3,214.4L171.3,214.4c-0.7,0-1.2-0.6-1.2-1.2c0-0.3,0.7-30.9,0-44.7c-0.7-12.9-4-15.8-4.1-15.8
	c-0.5-0.4-0.6-1.2-0.2-1.7c0.4-0.5,1.1-0.6,1.7-0.2c0.4,0.3,4.3,3.5,5,17.6c0.7,13.8,0,44.6,0,44.9
	C172.5,213.8,172,214.4,171.3,214.4z"/>
<path class="st13" d="M122.1,5.2c-0.3,0-0.7,0-1,0.1c-0.9,0.2-1.5,0.6-1.9,1.4c-1.6,3.4,1.7,11.5,4.1,16.3c1.5-5.3,3.2-14.2,0.7-17
	C123.6,5.5,122.9,5.2,122.1,5.2z M123.6,27c-0.4,0-0.8-0.2-1-0.6c-0.8-1.5-8.1-14.9-5.4-20.7c0.6-1.4,1.8-2.3,3.4-2.6
	c2.7-0.5,4.3,0.5,5.1,1.4c4.3,4.9-0.5,20-1.1,21.7c-0.1,0.4-0.5,0.7-0.9,0.8C123.6,27,123.6,27,123.6,27z"/>
<path class="st13" d="M136.9,10.6c-0.1,0-0.2,0-0.3,0c-3.7,0.5-8.2,8.4-10.6,13.4c4.9-2.1,12.8-6,13.8-9.7c0.2-0.8,0.1-1.5-0.5-2.3
	C138.5,11.1,137.7,10.6,136.9,10.6z M123.9,27.1c-0.3,0-0.6-0.1-0.8-0.3c-0.3-0.3-0.4-0.8-0.2-1.2c0.7-1.7,7-16.3,13.4-17.1
	c1.2-0.2,3.1,0.1,4.8,2.3c1,1.3,1.3,2.7,0.9,4.2c-1.8,6.2-16,11.5-17.7,12.1C124.1,27.1,124,27.1,123.9,27.1z"/>
<path class="st14" d="M103.2,23.2c5.3,3.4,17.6,6.1,27.1,0"/>
</svg>
