<?xml version="1.0" encoding="utf-8"?>
<!-- Generator: Adobe Illustrator 24.0.0, SVG Export Plug-In . SVG Version: 6.00 Build 0)  -->
<svg version="1.1" id="Layer_1" xmlns="http://www.w3.org/2000/svg" xmlns:xlink="http://www.w3.org/1999/xlink" x="0px" y="0px"
	 viewBox="0 0 267 246.4" style="enable-background:new 0 0 267 246.4;" xml:space="preserve">
<style type="text/css">
	.st0{fill:url(#SVGID_1_);}
	.st1{fill:url(#SVGID_2_);}
	.st2{fill:url(#SVGID_3_);}
	.st3{fill:url(#SVGID_4_);}
	.st4{fill:#E27B5A;}
	.st5{fill:#FFCEB0;}
	.st6{fill:#FB4C47;}
	.st7{fill:#128E5A;}
</style>
<linearGradient id="SVGID_1_" gradientUnits="userSpaceOnUse" x1="51.1282" y1="37.0023" x2="66.8434" y2="-17.5647" gradientTransform="matrix(1 0 0 -1 0 216.1766)">
	<stop  offset="0" style="stop-color:#FFD0D0"/>
	<stop  offset="1" style="stop-color:#FFF8F8"/>
</linearGradient>
<path class="st0" d="M96.8,240.3c-15.1,5.4-30.4,7.8-46.8,4.7c-18.2-3.5-34-19-42.9-34.5c-3.3-5.8-5.9-12.2-5.6-18.8
	c0.8-15.3,15.3-17,27.6-14.6c6.9,1.4,13.3,4.6,19.6,7.7c10.4,5.2,22.7,7.8,32.1,15c3.1,2.4,5.5,5.4,9.2,7.1c5.7,2.8,12.2,4.1,18,6.6
	c5,2.2,10.5,5.7,10.6,11.1c0,5.6-5.8,9.1-10.9,11.3C104,237.6,100.4,239.1,96.8,240.3z"/>
<linearGradient id="SVGID_2_" gradientUnits="userSpaceOnUse" x1="281.2458" y1="114.0677" x2="105.3548" y2="154.6832" gradientTransform="matrix(1 0 0 -1 0 216.1766)">
	<stop  offset="0" style="stop-color:#FFF8F8"/>
	<stop  offset="1" style="stop-color:#FFD0D0"/>
</linearGradient>
<path class="st1" d="M41,42.6C65.9,6,117.2-8.7,158.7,5.1c20.1,6.6,36.9,20.4,52.4,34.8c13.7,12.6,26.9,26.3,36.3,42.5
	c6.4,11.1,10.9,24.4,14.2,36.8c4.8,18.6,0.4,42.5-23.6,40.8c-5.6-0.4-10.5-2.4-15.8-4.2c-4.3-1.4-8.4-0.6-12.9-1.3
	c-11.1-1.8-21.9-5.9-32-10.7c-20.7-9.8-39.6-23.1-60.9-31.7c-17.4-7-36-10.7-54.8-10.7c-7.9,0-16.3,0.5-23.4-3
	c-17.5-8.7-9.6-32.3-3.1-45.6C36.8,49.2,38.8,45.8,41,42.6z"/>
<linearGradient id="SVGID_3_" gradientUnits="userSpaceOnUse" x1="259.1707" y1="172.7108" x2="198.8247" y2="198.4856" gradientTransform="matrix(1 0 0 -1 0 216.1766)">
	<stop  offset="0" style="stop-color:#FFD0D0"/>
	<stop  offset="1" style="stop-color:#FFF7F7"/>
</linearGradient>
<path class="st2" d="M235.6,48.1c4.1,3.7,20.1,13.8,20.4,1.9c0.1-3-1.3-5.8-3.1-8c-2.1-2.5-4.4-3.8-6.1-6.7c-2-3.5-4.3-6.8-6.8-9.8
	c-5.1-6.3-11.1-12.1-18.4-14.7c-5.1-1.8-13.8-1.4-16.2,5.2c-3.5,9.5,11.6,11.3,16.2,14.7c4.4,3.3,6.9,8.9,10.3,13.4
	C233.1,45.6,234.3,46.9,235.6,48.1z"/>
<linearGradient id="SVGID_4_" gradientUnits="userSpaceOnUse" x1="247.8497" y1="5.0357" x2="5.2555" y2="145.5217" gradientTransform="matrix(1 0 0 -1 0 216.1766)">
	<stop  offset="0" style="stop-color:#FFCFCF"/>
	<stop  offset="1" style="stop-color:#FFF8F8"/>
</linearGradient>
<path class="st3" d="M160,36.5c8.7,5.1,15.1,12.7,23,18.9c13.1,10.2,31.1,12.3,46.2,19.4c15.4,7.3,27,18.5,32.2,34.8
	c6.8,21,7.4,45.9,1.7,67.5c-6.3,23.7-21.2,39.5-43,50c-21.7,10.5-45.8,15.4-69.9,16.4c-2.3,0.1-4.6,0.2-7,0.2
	c-52.2,0.3-121.7-18.1-139.5-74.1c-0.2-0.5-0.3-1-0.5-1.5c-1.8-6.2-2.9-12.7-3.2-19.2c-1.1-23.1,2.9-48.5,11-70.1
	C16.6,64.1,28.3,51.8,40.7,43C58,30.7,79.1,27.5,100.2,26.1c15.6-1.1,33.1-1.5,47.9,4.5C152.2,32.2,156.2,34.2,160,36.5z"/>
<path class="st4" d="M62.4,71.8c0,0,53.1,70.9,66.4,76.7c13.3,5.9,29.9,4.5,31.4,11.3c1.5,6.8-27.9-4.7-23.2,5.8
	c4.7,10.5,22.9,22.5,23,33c0.1,10.6-29-22.7-29-22.7s27.4,30.4,18.3,31.1c-9.1,0.7-32.6-29-32.6-29s26.3,39,17.6,35.5
	c-8.7-3.6-89.4-96.9-101.9-106.8C19.9,96.9,62.4,71.8,62.4,71.8z"/>
<path class="st5" d="M216.8,89.1c0,0-60.5,64.6-74.4,69c-13.8,4.4-30.2,1.2-32.4,7.8c-2.2,6.6,28.2-1.6,22.4,8.3
	c-5.8,9.9-25.2,19.8-26.5,30.3c-1.2,10.5,31.3-19.4,31.3-19.4s-30.6,27.2-21.7,28.9c9,1.7,35.6-25.3,35.6-25.3s-30.4,35.9-21.4,33.3
	c9-2.6,99.6-86.5,113-94.9C256.2,118.7,216.8,89.1,216.8,89.1z"/>
<path class="st6" d="M165.2,133.9c0,0,18.6,35.3,35.7,39c17.1,3.8,54.1-29.7,62.2-46.3c8.1-16.6-31.3-66.7-39.7-73.9
	C211.3,51.2,156.6,102.5,165.2,133.9z"/>
<path class="st7" d="M49.7,37.6c0,0,61.2,60.4,58.3,76c-2.9,15.7-26.3,34.4-45.1,40.6C44,160.4,2.8,135.7,2.8,117.6
	C-0.2,86.9,15.4,55.1,49.7,37.6z"/>
</svg>
