<svg width="682" height="638" viewBox="0 0 682 638" fill="none" xmlns="http://www.w3.org/2000/svg">
<g clip-path="url(#clip0)">
<g opacity="0.62">
<path opacity="0.62" d="M263.51 616.64C225.89 632.8 187.41 641.64 145.42 636.47C98.61 630.7 55.93 593.76 30.69 555.78C21.32 541.67 13.55 525.78 13.32 508.78C12.81 469.66 49.32 462.9 81.03 467.17C98.89 469.56 115.6 476.58 132.12 483.53C159.54 495.08 191.12 499.53 216.12 516.43C224.51 522.1 231 529.15 240.58 533.06C255.48 539.13 272.18 541.37 287.43 546.78C300.43 551.44 315.2 559.53 316.12 573.32C317.05 587.46 302.88 597.44 290.27 603.92C281.38 608.55 272.48 612.81 263.51 616.64Z" fill="url(#paint0_linear)"/>
<path opacity="0.62" d="M88.92 123C145.94 25.94 274 -19.91 382 8.15004C434.09 21.69 479.12 54 520.92 87.9C557.76 117.77 593.73 150.22 620.15 189.98C638.2 217.12 652 250.16 662.25 281.18C677.57 327.63 670.43 389.23 609.06 388.76C594.67 388.65 581.93 384.3 568.24 380.67C557.16 377.72 546.68 380.61 535.31 379.56C506.68 376.92 478.71 368.27 452.11 357.74C397.89 336.25 347.62 305.53 292.11 287.23C246.618 272.248 198.679 266.111 150.88 269.15C130.72 270.43 109.61 273.23 90.98 265.39C45.08 246.05 61.15 184.77 75.55 150C79.3563 140.692 83.8244 131.669 88.92 123V123Z" fill="url(#paint1_linear)"/>
<path opacity="0.62" d="M584.52 104.78C595.52 113.51 638.01 136.53 636.83 106.34C636.52 98.82 632.64 91.75 627.65 86.56C621.93 80.56 615.71 77.68 611.09 70.56C605.503 62.0963 599.193 54.1331 592.23 46.76C578.12 31.58 561.89 17.76 542.94 12.38C529.66 8.60001 507.74 11.2 502.66 28.25C495.26 53.09 534 55 546.27 63.09C557.94 70.72 565.17 84.67 574.73 95.5C577.706 98.8833 580.983 101.989 584.52 104.78V104.78Z" fill="url(#paint2_linear)"/>
<path opacity="0.62" d="M390.52 87.8501C413.37 99.3701 431.14 117.68 452.22 131.99C487.31 155.8 533.43 158.13 572.91 173.71C613.16 189.6 644.52 216.34 660.55 256.79C681.26 309 687 372.29 676 428.07C663.82 489.47 628.59 532.07 575 562.37C521.41 592.67 461 609.16 400.06 615.72C394.18 616.387 388.29 616.913 382.39 617.3C249.7 626.74 70 591.55 15.47 451.9C14.97 450.633 14.48 449.353 14 448.06C8.309 432.476 4.50197 416.268 2.66 399.78C-4 341.34 2 276 19 219.66C30.4 181.75 58.13 148.52 88 124.18C130 89.9901 183.28 78.4901 236.56 71.2401C276.01 65.8701 320.56 61.9401 358.99 74.6501C369.815 78.2568 380.354 82.6691 390.52 87.8501V87.8501Z" fill="url(#paint3_linear)"/>
</g>
<path d="M316.37 301.34C317.14 303.169 318.605 304.618 320.442 305.368C322.28 306.118 324.34 306.108 326.17 305.34L341.86 298.75C349.842 295.376 358.504 293.923 367.15 294.51C369.419 294.686 371.698 294.343 373.815 293.507C375.932 292.671 377.831 291.365 379.369 289.687C380.906 288.008 382.041 286.002 382.688 283.82C383.336 281.639 383.478 279.338 383.104 277.093C382.731 274.848 381.851 272.717 380.532 270.862C379.214 269.008 377.49 267.477 375.492 266.387C373.494 265.297 371.275 264.676 369.001 264.571C366.728 264.466 364.46 264.879 362.37 265.78C360.296 266.646 358.446 267.973 356.96 269.66C351.24 276.285 344.095 281.529 336.06 285L320.37 291.59C318.553 292.36 317.114 293.817 316.365 295.642C315.616 297.468 315.618 299.516 316.37 301.34Z" fill="#FB4C47"/>
<path d="M241.71 385.41C240.19 384.792 238.487 384.802 236.975 385.438C235.462 386.073 234.263 387.282 233.64 388.8L228.32 401.8C225.626 408.45 221.406 414.373 216 419.09C214.595 420.318 213.487 421.849 212.757 423.566C212.028 425.284 211.696 427.144 211.788 429.008C211.879 430.872 212.391 432.691 213.285 434.329C214.179 435.967 215.432 437.381 216.95 438.466C218.469 439.551 220.213 440.279 222.052 440.594C223.891 440.909 225.778 440.805 227.571 440.287C229.364 439.77 231.017 438.854 232.405 437.608C233.794 436.361 234.883 434.817 235.59 433.09C236.289 431.369 236.593 429.514 236.48 427.66C235.966 420.45 237.087 413.216 239.76 406.5L245.08 393.5C245.391 392.748 245.55 391.941 245.549 391.127C245.548 390.313 245.386 389.507 245.073 388.756C244.76 388.005 244.302 387.322 243.725 386.748C243.148 386.174 242.463 385.719 241.71 385.41V385.41Z" fill="#C63F3B"/>
<path d="M289.68 267.92C290.467 268.242 291.309 268.406 292.159 268.402C293.009 268.398 293.85 268.227 294.633 267.899C295.417 267.57 296.129 267.09 296.727 266.486C297.325 265.882 297.798 265.167 298.12 264.38L303.69 250.74C306.511 243.795 310.923 237.609 316.57 232.68C318.227 231.234 319.489 229.391 320.237 227.322C320.984 225.254 321.193 223.03 320.842 220.859C320.492 218.688 319.595 216.641 318.235 214.913C316.875 213.185 315.098 211.831 313.07 210.98C311.042 210.129 308.831 209.808 306.645 210.048C304.459 210.288 302.37 211.08 300.575 212.351C298.78 213.622 297.339 215.328 296.386 217.311C295.433 219.293 295.001 221.485 295.13 223.68C295.669 231.224 294.496 238.793 291.7 245.82L286.14 259.45C285.812 260.238 285.643 261.083 285.644 261.937C285.645 262.791 285.815 263.636 286.144 264.423C286.473 265.211 286.955 265.925 287.562 266.526C288.169 267.126 288.889 267.6 289.68 267.92V267.92Z" fill="#C63F3B"/>
<path d="M288.14 370.49C286.311 371.26 284.862 372.725 284.112 374.562C283.362 376.4 283.372 378.46 284.14 380.29L290.73 396C294.11 403.973 295.572 412.629 295 421.27C294.815 423.818 295.283 426.371 296.361 428.687C297.438 431.002 299.09 433.005 301.158 434.504C303.227 436.003 305.643 436.949 308.18 437.252C310.716 437.555 313.288 437.206 315.651 436.237C318.015 435.267 320.092 433.711 321.685 431.714C323.278 429.717 324.335 427.347 324.756 424.827C325.176 422.308 324.946 419.723 324.088 417.317C323.229 414.911 321.771 412.764 319.85 411.08C313.243 405.355 308.016 398.21 304.56 390.18L297.97 374.49C297.589 373.581 297.032 372.756 296.331 372.062C295.63 371.369 294.799 370.82 293.886 370.449C292.972 370.077 291.995 369.889 291.009 369.896C290.023 369.904 289.048 370.105 288.14 370.49V370.49Z" fill="#FB4C47"/>
<path d="M319.82 411.08C313.213 405.355 307.986 398.21 304.53 390.18L297.94 374.49C297.171 372.66 295.706 371.21 293.868 370.46C292.031 369.71 289.97 369.721 288.14 370.49C286.31 371.259 284.861 372.724 284.11 374.562C283.36 376.399 283.371 378.46 284.14 380.29L290.73 396C294.185 404.02 299.405 411.157 306 416.88C308.818 419.386 310.588 422.861 310.959 426.614C311.329 430.367 310.273 434.121 308 437.13C310.273 437.428 312.584 437.191 314.75 436.44C317.213 435.575 319.408 434.082 321.118 432.109C322.827 430.135 323.992 427.75 324.497 425.189C325.002 422.627 324.83 419.978 323.997 417.504C323.165 415.03 321.701 412.815 319.75 411.08H319.82Z" fill="#C63F3B"/>
<path d="M204.22 314.94C208.676 313.068 212.477 309.916 215.143 305.884C217.808 301.852 219.218 297.119 219.194 292.286C219.17 287.452 217.713 282.735 215.007 278.729C212.302 274.723 208.47 271.61 203.995 269.782C199.52 267.954 194.604 267.495 189.868 268.461C185.132 269.427 180.789 271.776 177.388 275.211C173.987 278.645 171.68 283.011 170.761 287.757C169.841 292.502 170.349 297.413 172.22 301.87C173.463 304.83 175.276 307.515 177.557 309.774C179.838 312.032 182.541 313.82 185.513 315.033C188.484 316.247 191.666 316.863 194.876 316.847C198.085 316.831 201.261 316.183 204.22 314.94V314.94Z" fill="#FF8F8C"/>
<path d="M185.29 269.87C182.946 270.855 180.772 272.205 178.85 273.87C184.002 273.432 189.16 274.639 193.583 277.317C198.006 279.995 201.466 284.006 203.466 288.774C205.466 293.542 205.903 298.822 204.714 303.854C203.526 308.886 200.772 313.411 196.85 316.78C200.37 316.478 203.784 315.416 206.854 313.668C209.925 311.92 212.58 309.527 214.638 306.654C216.695 303.781 218.105 300.496 218.77 297.026C219.436 293.556 219.342 289.983 218.494 286.553C217.646 283.123 216.065 279.917 213.859 277.156C211.653 274.396 208.875 272.147 205.717 270.563C202.558 268.979 199.094 268.099 195.562 267.983C192.031 267.867 188.516 268.517 185.26 269.89L185.29 269.87Z" fill="#FB4C47"/>
<path d="M298.6 395.39C313.155 389.276 325.571 378.983 334.276 365.813C342.981 352.642 347.586 337.186 347.506 321.399C347.427 305.612 342.669 290.203 333.832 277.121C324.995 264.038 312.477 253.87 297.861 247.902C283.246 241.934 267.188 240.434 251.72 243.592C236.252 246.75 222.068 254.425 210.961 265.644C199.854 276.864 192.324 291.125 189.323 306.625C186.322 322.124 187.984 338.165 194.1 352.72C202.302 372.233 217.919 387.69 237.515 395.692C257.111 403.694 279.084 403.585 298.6 395.39V395.39Z" fill="#FB4C47"/>
<path d="M236.76 248.21C234.44 249.19 232.187 250.267 230 251.44C248.979 245.446 269.512 246.759 287.573 255.121C305.634 263.483 319.919 278.29 327.628 296.639C335.336 314.988 335.912 335.556 329.241 354.307C322.571 373.059 309.135 388.642 291.57 398C293.93 397.26 296.263 396.403 298.57 395.43C308.234 391.369 317.004 385.445 324.378 377.996C331.752 370.546 337.587 361.717 341.55 352.012C345.512 342.308 347.524 331.918 347.471 321.435C347.418 310.953 345.3 300.584 341.24 290.92C337.18 281.256 331.255 272.486 323.806 265.112C316.356 257.737 307.527 251.902 297.822 247.94C288.118 243.978 277.728 241.966 267.245 242.019C256.763 242.072 246.394 244.189 236.73 248.25L236.76 248.21Z" fill="#C63F3B"/>
<path d="M291 300C293.958 298.758 296.482 296.667 298.252 293.991C300.021 291.315 300.958 288.174 300.942 284.965C300.927 281.757 299.96 278.625 298.164 275.966C296.369 273.308 293.825 271.241 290.855 270.028C287.885 268.815 284.621 268.51 281.478 269.152C278.334 269.794 275.452 271.353 273.195 273.634C270.937 275.914 269.407 278.812 268.798 281.962C268.188 285.112 268.527 288.372 269.77 291.33C270.594 293.294 271.797 295.076 273.31 296.574C274.823 298.073 276.617 299.259 278.589 300.064C280.56 300.869 282.671 301.278 284.801 301.267C286.93 301.256 289.037 300.825 291 300V300Z" fill="#C63F3B"/>
<path d="M278.43 270.1C276.027 271.11 273.904 272.684 272.24 274.69C275.197 274.932 278.031 275.982 280.433 277.723C282.834 279.465 284.712 281.833 285.861 284.568C287.01 287.303 287.386 290.302 286.949 293.236C286.511 296.171 285.277 298.929 283.38 301.21C285.831 301.415 288.297 301.059 290.59 300.171C292.884 299.282 294.945 297.884 296.619 296.081C298.292 294.278 299.533 292.118 300.249 289.765C300.964 287.412 301.135 284.927 300.749 282.498C300.362 280.068 299.429 277.759 298.018 275.744C296.607 273.729 294.757 272.061 292.607 270.867C290.456 269.673 288.063 268.983 285.607 268.85C283.151 268.717 280.697 269.145 278.43 270.1V270.1Z" fill="white"/>
<path d="M257.71 371.72C259.72 370.881 261.435 369.465 262.639 367.65C263.843 365.836 264.481 363.705 264.473 361.527C264.464 359.349 263.81 357.223 262.592 355.418C261.374 353.612 259.648 352.209 257.632 351.386C255.617 350.562 253.402 350.356 251.268 350.792C249.135 351.228 247.179 352.288 245.648 353.837C244.118 355.386 243.081 357.355 242.67 359.493C242.259 361.632 242.492 363.844 243.34 365.85C244.472 368.53 246.62 370.652 249.313 371.752C252.006 372.852 255.025 372.841 257.71 371.72V371.72Z" fill="white"/>
<path d="M346.47 369.14C349.211 367.997 351.551 366.065 353.193 363.591C354.835 361.116 355.706 358.21 355.695 355.24C355.684 352.27 354.791 349.37 353.13 346.908C351.47 344.446 349.115 342.532 346.366 341.41C343.616 340.287 340.595 340.005 337.686 340.601C334.776 341.197 332.109 342.643 330.022 344.756C327.935 346.869 326.523 349.554 325.963 352.471C325.404 355.388 325.723 358.405 326.88 361.14C328.425 364.792 331.353 367.684 335.024 369.183C338.695 370.682 342.81 370.667 346.47 369.14Z" fill="#FB4C47"/>
<path d="M334.88 341.54C332.457 342.556 330.346 344.195 328.76 346.29C331.358 346.635 333.82 347.655 335.901 349.248C337.982 350.841 339.609 352.952 340.621 355.369C341.632 357.787 341.993 360.427 341.666 363.028C341.34 365.628 340.338 368.097 338.76 370.19C341.05 370.498 343.38 370.272 345.569 369.531C347.757 368.79 349.745 367.553 351.377 365.917C353.009 364.281 354.24 362.291 354.976 360.1C355.712 357.91 355.932 355.579 355.619 353.29C355.306 351.001 354.468 348.815 353.171 346.903C351.873 344.991 350.152 343.404 348.141 342.267C346.129 341.129 343.883 340.472 341.575 340.346C339.268 340.22 336.963 340.628 334.84 341.54H334.88Z" fill="#C63F3B"/>
<path d="M219 342.26C219.768 344.09 219.778 346.15 219.028 347.988C218.278 349.825 216.829 351.29 215 352.06L199.31 358.65C191.314 361.988 184.213 367.156 178.58 373.74C176.928 375.69 174.805 377.186 172.413 378.086C170.02 378.985 167.438 379.258 164.91 378.879C162.383 378.5 159.994 377.482 157.97 375.92C155.947 374.359 154.356 372.306 153.348 369.957C152.341 367.608 151.951 365.041 152.214 362.498C152.478 359.956 153.386 357.523 154.854 355.431C156.322 353.339 158.3 351.656 160.601 350.543C162.901 349.429 165.448 348.922 168 349.07C176.726 349.609 185.461 348.166 193.55 344.85L209.24 338.26C211.066 337.505 213.115 337.501 214.943 338.251C216.772 339 218.229 340.441 219 342.26V342.26Z" fill="#C63F3B"/>
<path d="M247.23 273.11C249.059 272.34 250.508 270.875 251.258 269.038C252.008 267.2 251.998 265.14 251.23 263.31L244.64 247.62C241.267 239.638 239.815 230.976 240.4 222.33C240.585 219.782 240.117 217.229 239.039 214.913C237.962 212.597 236.31 210.595 234.242 209.096C232.173 207.597 229.757 206.651 227.22 206.348C224.684 206.045 222.112 206.394 219.749 207.363C217.385 208.333 215.308 209.889 213.715 211.886C212.122 213.882 211.065 216.253 210.644 218.773C210.224 221.292 210.454 223.877 211.312 226.283C212.171 228.689 213.629 230.836 215.55 232.52C222.157 238.245 227.384 245.39 230.84 253.42L237.43 269.11C238.2 270.939 239.665 272.388 241.502 273.138C243.34 273.888 245.4 273.878 247.23 273.11V273.11Z" fill="#FB4C47"/>
<path d="M238.83 214.58C237.68 212.318 235.976 210.385 233.876 208.962C231.776 207.538 229.349 206.67 226.823 206.44C224.297 206.209 221.753 206.623 219.43 207.642C217.107 208.662 215.08 210.254 213.54 212.27C217.333 212.739 220.802 214.646 223.232 217.596C225.662 220.547 226.867 224.317 226.6 228.13C226.02 236.775 227.472 245.437 230.84 253.42L237.43 269.11C238.199 270.94 239.664 272.389 241.502 273.14C243.339 273.89 245.4 273.879 247.23 273.11C249.06 272.341 250.509 270.876 251.26 269.038C252.01 267.201 251.999 265.14 251.23 263.31L244.64 247.62C241.267 239.638 239.815 230.976 240.4 222.33C240.586 219.652 240.043 216.974 238.83 214.58V214.58Z" fill="#C63F3B"/>
<path d="M363.93 266.17C361.84 266.998 359.966 268.291 358.45 269.95L357.66 270.79C360.271 271.154 362.74 272.202 364.815 273.829C366.889 275.455 368.497 277.602 369.474 280.05C370.451 282.499 370.763 285.163 370.377 287.771C369.992 290.379 368.923 292.839 367.28 294.9L368.18 294.97C370.447 295.192 372.735 294.894 374.871 294.099C377.006 293.305 378.932 292.034 380.503 290.384C382.074 288.734 383.248 286.748 383.937 284.577C384.626 282.405 384.811 280.105 384.478 277.851C384.146 275.598 383.304 273.449 382.017 271.569C380.731 269.689 379.033 268.127 377.052 267.001C375.072 265.875 372.861 265.215 370.587 265.071C368.313 264.927 366.037 265.303 363.93 266.17V266.17Z" fill="#C63F3B"/>
<g opacity="0.63">
<path opacity="0.63" d="M423.08 440.74C423.664 441.565 424.551 442.124 425.547 442.295C426.542 442.465 427.565 442.233 428.39 441.65L435.46 436.65C439.052 434.09 443.198 432.414 447.56 431.76C448.84 431.565 450.048 431.048 451.073 430.256C452.097 429.465 452.902 428.425 453.414 427.236C453.925 426.047 454.125 424.748 453.994 423.46C453.864 422.172 453.408 420.939 452.669 419.876C451.93 418.813 450.933 417.957 449.771 417.386C448.609 416.816 447.321 416.551 446.028 416.617C444.735 416.682 443.481 417.076 442.382 417.76C441.284 418.445 440.378 419.398 439.75 420.53C437.635 424.448 434.661 427.836 431.05 430.44L423.98 435.44C423.16 436.025 422.605 436.911 422.436 437.904C422.267 438.897 422.499 439.917 423.08 440.74V440.74Z" fill="#FFC700"/>
<path opacity="0.63" d="M389.38 481.57C388.557 481.431 387.712 481.625 387.031 482.109C386.35 482.592 385.889 483.327 385.75 484.15L384.54 491.21C383.936 494.805 382.494 498.207 380.33 501.14C379.765 501.906 379.381 502.789 379.207 503.724C379.032 504.659 379.072 505.621 379.322 506.539C379.573 507.456 380.028 508.305 380.653 509.022C381.278 509.739 382.058 510.305 382.933 510.677C383.808 511.049 384.756 511.219 385.706 511.172C386.656 511.126 387.584 510.865 388.419 510.41C389.253 509.954 389.974 509.315 390.527 508.541C391.08 507.767 391.45 506.878 391.61 505.94C391.772 505.007 391.721 504.05 391.46 503.14C390.407 499.613 390.164 495.894 390.75 492.26L391.96 485.21C392.03 484.802 392.019 484.383 391.927 483.979C391.836 483.575 391.665 483.193 391.426 482.855C391.186 482.516 390.882 482.229 390.531 482.008C390.18 481.788 389.789 481.639 389.38 481.57V481.57Z" fill="#D09700"/>
<path opacity="0.63" d="M400.26 417.9C401.123 418.045 402.008 417.842 402.722 417.336C403.436 416.83 403.921 416.062 404.07 415.2L405.33 407.82C405.964 404.057 407.471 400.495 409.73 397.42C410.322 396.619 410.725 395.694 410.908 394.714C411.091 393.735 411.05 392.727 410.787 391.766C410.525 390.805 410.048 389.916 409.392 389.166C408.736 388.416 407.919 387.824 407.001 387.435C406.084 387.047 405.091 386.871 404.096 386.922C403.101 386.972 402.13 387.248 401.257 387.728C400.384 388.207 399.631 388.879 399.054 389.692C398.478 390.504 398.094 391.437 397.93 392.42C397.766 393.397 397.821 394.397 398.09 395.35C399.193 399.039 399.446 402.929 398.83 406.73L397.57 414.11C397.428 414.969 397.631 415.849 398.135 416.559C398.638 417.269 399.402 417.751 400.26 417.9V417.9Z" fill="#D09700"/>
<path opacity="0.63" d="M410.81 469C410.401 469.288 410.052 469.654 409.785 470.077C409.517 470.501 409.336 470.972 409.251 471.466C409.167 471.959 409.181 472.465 409.292 472.953C409.403 473.441 409.61 473.902 409.9 474.31L414.9 481.38C417.456 484.974 419.131 489.119 419.79 493.48C419.976 494.765 420.487 495.981 421.275 497.012C422.062 498.044 423.1 498.858 424.291 499.376C425.481 499.894 426.784 500.099 428.076 499.972C429.367 499.846 430.605 499.391 431.672 498.652C432.739 497.912 433.599 496.912 434.172 495.747C434.744 494.582 435.009 493.29 434.941 491.993C434.874 490.697 434.476 489.44 433.787 488.34C433.097 487.24 432.138 486.335 431 485.71C427.082 483.595 423.694 480.621 421.09 477.01L416.09 469.94C415.511 469.119 414.632 468.56 413.643 468.384C412.655 468.208 411.636 468.429 410.81 469Z" fill="#FFC700"/>
<path opacity="0.63" d="M431 485.71C427.082 483.595 423.694 480.621 421.09 477.01L416.09 469.94C415.505 469.115 414.617 468.556 413.62 468.387C412.623 468.217 411.6 468.45 410.775 469.035C409.95 469.62 409.391 470.508 409.222 471.505C409.052 472.502 409.285 473.525 409.87 474.35L414.87 481.41C417.468 485.023 420.854 487.997 424.77 490.11C425.772 490.668 426.637 491.444 427.3 492.38C428.082 493.474 428.559 494.756 428.682 496.095C428.805 497.434 428.57 498.782 428 500C429.163 499.902 430.286 499.532 431.28 498.92C432.415 498.224 433.348 497.242 433.986 496.073C434.623 494.904 434.943 493.588 434.914 492.257C434.885 490.925 434.507 489.625 433.818 488.485C433.13 487.345 432.155 486.406 430.99 485.76L431 485.71Z" fill="#D09700"/>
<path opacity="0.63" d="M363 450.69C365.01 449.272 366.555 447.29 367.439 444.994C368.322 442.698 368.506 440.191 367.965 437.791C367.425 435.391 366.185 433.206 364.402 431.51C362.619 429.815 360.374 428.686 357.95 428.267C355.526 427.847 353.032 428.156 350.783 429.154C348.535 430.152 346.632 431.794 345.317 433.873C344.001 435.952 343.332 438.374 343.393 440.834C343.454 443.293 344.243 445.679 345.66 447.69C346.601 449.026 347.797 450.163 349.178 451.037C350.559 451.911 352.098 452.504 353.708 452.783C355.319 453.061 356.968 453.02 358.562 452.661C360.157 452.302 361.665 451.632 363 450.69V450.69Z" fill="#D09700"/>
<path opacity="0.63" d="M348.6 430.38C347.545 431.127 346.614 432.035 345.84 433.07C348.353 432.283 351.05 432.313 353.545 433.155C356.039 433.997 358.203 435.609 359.724 437.758C361.245 439.907 362.046 442.483 362.011 445.115C361.976 447.748 361.108 450.302 359.53 452.41C361.258 451.881 362.85 450.983 364.196 449.777C365.541 448.57 366.608 447.086 367.323 445.426C368.037 443.766 368.381 441.971 368.332 440.164C368.282 438.358 367.84 436.584 367.036 434.966C366.232 433.347 365.086 431.924 363.676 430.793C362.266 429.662 360.627 428.852 358.873 428.419C357.119 427.985 355.291 427.939 353.517 428.283C351.743 428.627 350.065 429.353 348.6 430.41V430.38Z" fill="#FFC700"/>
<path opacity="0.63" d="M418.75 480.25C425.307 475.605 430.34 469.12 433.212 461.615C436.084 454.11 436.665 445.921 434.883 438.086C433.102 430.25 429.036 423.118 423.201 417.593C417.366 412.068 410.024 408.397 402.103 407.045C394.181 405.692 386.037 406.719 378.699 409.995C371.362 413.272 365.161 418.65 360.88 425.451C356.599 432.252 354.431 440.169 354.65 448.202C354.869 456.235 357.465 464.023 362.11 470.58C365.193 474.935 369.104 478.64 373.62 481.483C378.135 484.326 383.167 486.252 388.427 487.15C393.686 488.048 399.072 487.901 404.275 486.717C409.478 485.533 414.396 483.335 418.75 480.25V480.25Z" fill="#FFC700"/>
<path opacity="0.63" d="M371.79 413.94C370.74 414.69 369.74 415.47 368.79 416.29C377.554 411.268 387.875 409.69 397.74 411.865C407.604 414.04 416.305 419.811 422.144 428.054C427.984 436.296 430.544 446.418 429.325 456.446C428.105 466.473 423.195 475.687 415.55 482.29C416.64 481.66 417.71 480.98 418.76 480.23C427.553 473.997 433.51 464.527 435.321 453.902C437.132 443.277 434.648 432.368 428.415 423.575C422.182 414.782 412.712 408.825 402.087 407.014C391.462 405.203 380.553 407.687 371.76 413.92L371.79 413.94Z" fill="#D09700"/>
<path opacity="0.63" d="M399.87 436.48C400.353 436.137 400.724 435.658 400.936 435.104C401.147 434.551 401.19 433.947 401.059 433.369C400.927 432.791 400.628 432.264 400.197 431.857C399.767 431.449 399.226 431.177 398.642 431.077C398.057 430.977 397.456 431.052 396.915 431.292C396.373 431.533 395.915 431.929 395.598 432.43C395.281 432.931 395.12 433.515 395.134 434.108C395.149 434.7 395.339 435.275 395.68 435.76C395.907 436.083 396.196 436.358 396.53 436.569C396.864 436.78 397.236 436.923 397.625 436.99C398.015 437.057 398.413 437.047 398.799 436.959C399.184 436.871 399.548 436.709 399.87 436.48Z" fill="white"/>
<path opacity="0.63" d="M395.82 473C396.719 472.361 397.409 471.47 397.802 470.44C398.195 469.409 398.274 468.285 398.028 467.21C397.783 466.135 397.224 465.156 396.423 464.398C395.622 463.64 394.614 463.136 393.527 462.951C392.44 462.765 391.322 462.906 390.315 463.355C389.308 463.805 388.456 464.542 387.868 465.475C387.28 466.408 386.981 467.495 387.01 468.597C387.039 469.7 387.394 470.769 388.03 471.67C388.887 472.879 390.189 473.698 391.65 473.948C393.11 474.197 394.61 473.856 395.82 473V473Z" fill="white"/>
<path opacity="0.63" d="M378.18 449.56C379.558 448.579 380.614 447.211 381.214 445.63C381.814 444.049 381.932 442.325 381.553 440.677C381.173 439.029 380.314 437.53 379.082 436.371C377.851 435.211 376.304 434.443 374.636 434.163C372.968 433.883 371.254 434.104 369.712 434.798C368.169 435.493 366.868 436.629 365.971 438.063C365.074 439.497 364.623 441.165 364.675 442.855C364.726 444.546 365.278 446.183 366.26 447.56C367.576 449.405 369.571 450.652 371.806 451.027C374.041 451.402 376.334 450.875 378.18 449.56V449.56Z" fill="white"/>
<path opacity="0.63" d="M439.64 461.93C440.867 461.057 441.808 459.84 442.344 458.432C442.88 457.024 442.986 455.49 442.65 454.021C442.314 452.553 441.551 451.218 440.456 450.183C439.362 449.149 437.985 448.462 436.5 448.209C435.015 447.957 433.489 448.15 432.114 448.764C430.739 449.378 429.577 450.387 428.774 451.661C427.972 452.935 427.565 454.419 427.605 455.925C427.645 457.43 428.131 458.89 429 460.12C429.578 460.94 430.312 461.637 431.161 462.172C432.009 462.707 432.955 463.069 433.944 463.238C434.932 463.406 435.945 463.377 436.922 463.152C437.9 462.928 438.824 462.513 439.64 461.93V461.93Z" fill="#FFC700"/>
<path opacity="0.63" d="M430.84 449.5C429.751 450.261 428.881 451.296 428.32 452.5C429.652 452.375 430.994 452.603 432.209 453.161C433.425 453.72 434.472 454.589 435.245 455.681C436.018 456.773 436.489 458.05 436.611 459.382C436.733 460.715 436.501 462.056 435.94 463.27C437.105 463.165 438.231 462.793 439.229 462.182C440.228 461.572 441.072 460.74 441.697 459.75C442.322 458.761 442.711 457.641 442.833 456.477C442.955 455.313 442.808 454.137 442.402 453.039C441.997 451.942 441.344 450.952 440.494 450.148C439.644 449.343 438.621 448.745 437.502 448.4C436.384 448.055 435.202 447.972 434.046 448.157C432.891 448.343 431.794 448.792 430.84 449.47V449.5Z" fill="#D09700"/>
<path opacity="0.63" d="M373.33 462.64C373.62 463.048 373.827 463.509 373.938 463.997C374.049 464.485 374.063 464.991 373.979 465.484C373.894 465.978 373.713 466.449 373.445 466.873C373.178 467.296 372.829 467.662 372.42 467.95L365.36 472.95C361.757 475.496 358.798 478.848 356.72 482.74C356.084 483.95 355.129 484.963 353.96 485.67C352.284 486.583 350.325 486.834 348.473 486.373C346.621 485.912 345.009 484.772 343.956 483.179C342.904 481.586 342.488 479.656 342.791 477.771C343.093 475.886 344.092 474.184 345.59 473C346.525 472.342 347.594 471.898 348.72 471.7C353.137 471.002 357.337 469.306 361 466.74L368.07 461.74C368.889 461.169 369.9 460.943 370.885 461.111C371.869 461.28 372.747 461.829 373.33 462.64V462.64Z" fill="#D09700"/>
<path opacity="0.63" d="M379.73 425.16C380.139 424.872 380.488 424.506 380.755 424.083C381.023 423.659 381.204 423.188 381.289 422.694C381.373 422.201 381.359 421.695 381.248 421.207C381.137 420.719 380.93 420.258 380.64 419.85L375.64 412.78C373.084 409.186 371.409 405.041 370.75 400.68C370.579 399.542 370.153 398.457 369.503 397.507C368.853 396.557 367.996 395.767 366.997 395.195C365.998 394.624 364.882 394.286 363.734 394.208C362.585 394.129 361.434 394.312 360.367 394.742C359.299 395.172 358.343 395.839 357.569 396.691C356.796 397.544 356.226 398.561 355.902 399.665C355.578 400.77 355.509 401.933 355.699 403.069C355.889 404.204 356.334 405.281 357 406.22C357.657 407.158 358.519 407.934 359.52 408.49C363.438 410.605 366.826 413.579 369.43 417.19L374.43 424.25C374.718 424.658 375.084 425.005 375.506 425.272C375.928 425.538 376.399 425.719 376.891 425.804C377.384 425.888 377.888 425.875 378.375 425.764C378.862 425.654 379.322 425.449 379.73 425.16Z" fill="#FFC700"/>
<path opacity="0.63" d="M369.1 397C367.931 395.578 366.287 394.626 364.472 394.319C362.657 394.012 360.792 394.371 359.22 395.33C357.93 396.118 356.906 397.274 356.28 398.65C358.216 398.467 360.149 399.033 361.681 400.23C363.214 401.428 364.23 403.167 364.52 405.09C365.181 409.447 366.856 413.588 369.41 417.18L374.41 424.25C374.695 424.668 375.061 425.024 375.485 425.299C375.909 425.574 376.384 425.762 376.882 425.851C377.38 425.941 377.89 425.93 378.384 425.821C378.877 425.711 379.344 425.504 379.757 425.212C380.17 424.92 380.52 424.549 380.788 424.12C381.056 423.691 381.236 423.213 381.317 422.714C381.398 422.215 381.379 421.705 381.261 421.213C381.143 420.721 380.929 420.258 380.63 419.85L375.63 412.78C373.075 409.184 371.397 405.04 370.73 400.68C370.529 399.329 369.965 398.057 369.1 397V397Z" fill="#D09700"/>
</g>
<path d="M474.37 357.11C473.809 356.978 473.228 356.958 472.659 357.051C472.091 357.144 471.546 357.348 471.057 357.652C470.567 357.955 470.142 358.353 469.806 358.821C469.471 359.289 469.231 359.819 469.1 360.38L466.83 370.09C465.69 375.035 463.401 379.643 460.15 383.54C459.141 384.744 458.477 386.199 458.23 387.75C458.02 389.027 458.095 390.334 458.45 391.578C458.804 392.822 459.429 393.972 460.281 394.946C461.132 395.92 462.189 396.694 463.374 397.211C464.56 397.729 465.845 397.978 467.138 397.94C468.431 397.903 469.7 397.58 470.854 396.994C472.007 396.408 473.017 395.575 473.81 394.553C474.604 393.531 475.161 392.347 475.443 391.084C475.725 389.821 475.724 388.512 475.44 387.25C474.272 382.263 474.248 377.077 475.37 372.08L477.64 362.37C477.901 361.239 477.704 360.051 477.091 359.065C476.478 358.079 475.5 357.376 474.37 357.11V357.11Z" fill="#1DB776"/>
<path d="M460.17 292.81C460.575 292.559 460.927 292.23 461.205 291.842C461.483 291.455 461.682 291.016 461.789 290.551C461.897 290.087 461.912 289.605 461.833 289.135C461.754 288.664 461.583 288.214 461.33 287.81L456.98 280.81C454.745 277.24 453.381 273.195 453 269C452.889 267.773 452.468 266.595 451.775 265.576C451.083 264.557 450.142 263.732 449.042 263.177C447.942 262.623 446.718 262.358 445.488 262.407C444.257 262.457 443.059 262.819 442.007 263.46C440.955 264.102 440.083 265 439.475 266.071C438.867 267.142 438.541 268.351 438.53 269.583C438.518 270.815 438.82 272.029 439.408 273.112C439.996 274.194 440.85 275.109 441.89 275.77C445.487 278.005 448.532 281.024 450.8 284.6L455.15 291.6C455.398 292.011 455.725 292.369 456.113 292.653C456.5 292.937 456.94 293.141 457.407 293.253C457.874 293.366 458.359 293.385 458.833 293.309C459.307 293.233 459.762 293.063 460.17 292.81V292.81Z" fill="#128E5A"/>
<path d="M499.39 355.94C498.967 356.203 498.6 356.546 498.31 356.95C498.02 357.355 497.812 357.813 497.699 358.297C497.585 358.782 497.569 359.284 497.65 359.776C497.73 360.267 497.907 360.737 498.17 361.16L502.72 368.49C505.046 372.212 506.464 376.429 506.86 380.8C506.973 382.086 507.413 383.322 508.137 384.391C508.861 385.459 509.846 386.326 510.998 386.908C512.15 387.49 513.432 387.769 514.722 387.717C516.012 387.666 517.267 387.287 518.37 386.615C519.472 385.943 520.385 385.001 521.022 383.879C521.659 382.756 521.999 381.489 522.01 380.198C522.021 378.907 521.703 377.635 521.085 376.501C520.467 375.368 519.571 374.41 518.48 373.72C514.716 371.382 511.53 368.224 509.16 364.48L504.61 357.16C504.347 356.737 504.004 356.37 503.6 356.08C503.195 355.79 502.737 355.582 502.253 355.469C501.768 355.355 501.266 355.339 500.774 355.42C500.283 355.5 499.813 355.677 499.39 355.94V355.94Z" fill="#128E5A"/>
<path d="M451.28 320C451.544 318.869 451.347 317.679 450.734 316.693C450.121 315.706 449.141 315.004 448.01 314.74L438.3 312.47C433.355 311.322 428.749 309.03 424.85 305.78C423.71 304.809 422.341 304.146 420.873 303.854C419.405 303.562 417.886 303.651 416.462 304.112C415.038 304.573 413.755 305.391 412.736 306.488C411.718 307.585 410.997 308.924 410.642 310.379C410.288 311.833 410.311 313.354 410.711 314.797C411.111 316.24 411.873 317.556 412.925 318.621C413.978 319.686 415.285 320.463 416.723 320.88C418.161 321.296 419.682 321.337 421.14 321C426.127 319.837 431.312 319.813 436.31 320.93L446.01 323.2C447.133 323.469 448.316 323.284 449.303 322.684C450.29 322.085 451.001 321.12 451.28 320V320Z" fill="#1DB776"/>
<path d="M421.14 321C426.127 319.837 431.312 319.813 436.31 320.93L446.01 323.2C447.141 323.465 448.331 323.27 449.319 322.658C450.306 322.046 451.01 321.066 451.275 319.935C451.54 318.804 451.345 317.614 450.733 316.626C450.121 315.639 449.141 314.935 448.01 314.67L438.3 312.4C433.303 311.278 428.117 311.302 423.13 312.47C420.975 312.944 418.72 312.59 416.814 311.479C414.907 310.367 413.489 308.579 412.84 306.47C411.911 307.443 411.226 308.622 410.84 309.91C410.396 311.375 410.343 312.932 410.688 314.424C411.032 315.916 411.762 317.292 412.804 318.414C413.846 319.536 415.165 320.365 416.627 320.819C418.09 321.273 419.646 321.335 421.14 321V321Z" fill="#128E5A"/>
<path d="M506.47 299.25C505.824 302.008 506.011 304.895 507.006 307.547C508.002 310.199 509.761 312.496 512.063 314.148C514.364 315.8 517.103 316.732 519.934 316.827C522.765 316.921 525.56 316.174 527.967 314.68C530.373 313.186 532.282 311.012 533.453 308.432C534.624 305.853 535.003 302.984 534.543 300.189C534.083 297.394 532.804 294.799 530.869 292.73C528.934 290.662 526.428 289.214 523.67 288.57C521.839 288.141 519.942 288.077 518.087 288.382C516.231 288.686 514.454 289.354 512.857 290.346C511.259 291.337 509.873 292.634 508.777 294.162C507.681 295.69 506.897 297.419 506.47 299.25V299.25Z" fill="#128E5A"/>
<path d="M534.35 305.77C534.692 304.32 534.803 302.825 534.68 301.34C533.122 303.941 530.779 305.98 527.987 307.163C525.196 308.346 522.101 308.612 519.148 307.922C516.196 307.232 513.539 305.623 511.56 303.326C509.582 301.028 508.384 298.162 508.14 295.14C507.081 296.912 506.418 298.892 506.196 300.944C505.974 302.996 506.199 305.072 506.854 307.029C507.51 308.987 508.582 310.779 509.996 312.283C511.409 313.787 513.132 314.967 515.045 315.743C516.957 316.519 519.015 316.872 521.078 316.777C523.14 316.683 525.157 316.143 526.991 315.196C528.825 314.249 530.432 312.916 531.702 311.289C532.973 309.662 533.876 307.779 534.35 305.77V305.77Z" fill="#1DB776"/>
<path d="M435.88 316.35C433.775 325.355 434.387 334.783 437.641 343.44C440.895 352.097 446.643 359.595 454.158 364.984C461.674 370.374 470.619 373.413 479.862 373.718C489.106 374.022 498.232 371.579 506.086 366.696C513.94 361.813 520.169 354.71 523.986 346.286C527.802 337.862 529.035 328.495 527.527 319.371C526.019 310.246 521.839 301.774 515.515 295.026C509.191 288.277 501.008 283.556 492 281.46C479.932 278.648 467.241 280.744 456.717 287.287C446.193 293.829 438.698 304.283 435.88 316.35V316.35Z" fill="#1DB776"/>
<path d="M526.93 337.62C527.27 336.18 527.53 334.74 527.73 333.31C524.034 344.351 516.351 353.615 506.184 359.29C496.018 364.965 484.1 366.642 472.762 363.993C461.424 361.344 451.483 354.559 444.883 344.967C438.284 335.375 435.501 323.666 437.08 312.13C436.62 313.51 436.22 314.91 435.88 316.35C433.494 328.255 435.833 340.621 442.402 350.832C448.971 361.043 459.255 368.297 471.078 371.061C482.901 373.824 495.335 371.879 505.75 365.638C516.164 359.397 523.742 349.349 526.88 337.62H526.93Z" fill="#128E5A"/>
<path d="M483.72 345.54C483.292 347.37 483.417 349.285 484.078 351.044C484.739 352.803 485.907 354.326 487.434 355.421C488.961 356.516 490.779 357.134 492.657 357.196C494.535 357.258 496.389 356.762 497.985 355.77C499.581 354.779 500.847 353.336 501.623 351.625C502.399 349.913 502.65 348.01 502.344 346.156C502.039 344.302 501.19 342.581 499.906 341.209C498.622 339.837 496.96 338.877 495.13 338.45C493.915 338.165 492.656 338.123 491.425 338.325C490.194 338.527 489.014 338.97 487.955 339.629C486.895 340.287 485.975 341.148 485.249 342.163C484.522 343.177 484.003 344.325 483.72 345.54V345.54Z" fill="#128E5A"/>
<path d="M502.23 349.85C502.579 348.365 502.562 346.817 502.18 345.34C501.05 346.662 499.578 347.647 497.926 348.189C496.274 348.731 494.504 348.809 492.811 348.414C491.117 348.019 489.565 347.166 488.323 345.948C487.082 344.731 486.198 343.195 485.77 341.51C484.832 342.603 484.154 343.894 483.788 345.287C483.422 346.68 483.378 348.138 483.659 349.551C483.939 350.963 484.537 352.294 485.408 353.441C486.278 354.589 487.398 355.523 488.683 356.174C489.967 356.825 491.383 357.176 492.823 357.199C494.264 357.222 495.69 356.917 496.995 356.308C498.3 355.699 499.45 354.801 500.356 353.682C501.263 352.563 501.904 351.253 502.23 349.85V349.85Z" fill="white"/>
<path d="M461.16 305.1C460.871 306.339 460.955 307.635 461.403 308.826C461.851 310.016 462.641 311.047 463.675 311.788C464.709 312.529 465.939 312.947 467.21 312.989C468.481 313.031 469.737 312.694 470.817 312.023C471.897 311.351 472.754 310.374 473.278 309.216C473.803 308.057 473.973 306.769 473.765 305.514C473.558 304.259 472.983 303.094 472.114 302.166C471.244 301.238 470.119 300.588 468.88 300.3C467.22 299.913 465.474 300.202 464.026 301.102C462.579 302.002 461.548 303.44 461.16 305.1Z" fill="white"/>
<path d="M431.87 348.08C431.476 349.769 431.592 351.537 432.203 353.161C432.814 354.784 433.893 356.19 435.303 357.2C436.713 358.211 438.391 358.78 440.125 358.837C441.859 358.893 443.57 358.434 445.043 357.518C446.516 356.602 447.684 355.27 448.4 353.689C449.115 352.109 449.346 350.352 449.063 348.641C448.781 346.93 447.996 345.341 446.81 344.075C445.624 342.809 444.089 341.923 442.4 341.53C441.278 341.266 440.116 341.226 438.979 341.413C437.842 341.6 436.753 342.009 435.774 342.617C434.796 343.226 433.947 344.022 433.277 344.959C432.607 345.897 432.129 346.957 431.87 348.08V348.08Z" fill="#1DB776"/>
<path d="M448.94 352.06C449.296 350.564 449.247 349.001 448.8 347.53C447.747 348.655 446.416 349.483 444.942 349.93C443.467 350.378 441.901 350.428 440.4 350.078C438.899 349.727 437.518 348.987 436.394 347.932C435.271 346.877 434.445 345.545 434 344.07C433.078 345.051 432.394 346.23 432.001 347.517C431.608 348.805 431.517 350.165 431.734 351.493C431.952 352.822 432.472 354.082 433.254 355.177C434.037 356.272 435.061 357.172 436.247 357.808C437.434 358.443 438.75 358.797 440.095 358.843C441.44 358.888 442.778 358.623 444.004 358.068C445.23 357.513 446.312 356.684 447.167 355.644C448.021 354.603 448.624 353.381 448.93 352.07L448.94 352.06Z" fill="#128E5A"/>
<path d="M488.44 296.86C487.879 296.73 487.35 296.491 486.882 296.157C486.413 295.822 486.016 295.398 485.712 294.909C485.408 294.421 485.204 293.877 485.111 293.309C485.018 292.741 485.038 292.16 485.17 291.6L487.43 281.89C488.607 276.959 488.607 271.821 487.43 266.89C487.057 265.362 487.106 263.762 487.57 262.26C487.949 261.025 488.597 259.888 489.467 258.932C490.336 257.976 491.407 257.224 492.601 256.73C493.795 256.236 495.084 256.012 496.375 256.074C497.666 256.136 498.927 256.483 500.068 257.089C501.209 257.695 502.203 258.546 502.977 259.581C503.751 260.616 504.287 261.81 504.546 263.076C504.805 264.342 504.781 265.65 504.476 266.905C504.17 268.161 503.591 269.334 502.78 270.34C499.531 274.29 497.214 278.922 496 283.89L493.73 293.59C493.601 294.154 493.361 294.686 493.024 295.157C492.687 295.627 492.26 296.026 491.768 296.33C491.276 296.635 490.729 296.838 490.157 296.929C489.586 297.02 489.002 296.996 488.44 296.86Z" fill="#128E5A"/>
<path d="M511.53 334C511.398 334.561 511.378 335.142 511.471 335.711C511.564 336.279 511.768 336.824 512.072 337.313C512.375 337.803 512.773 338.228 513.241 338.564C513.709 338.899 514.239 339.139 514.8 339.27L524.5 341.54C529.466 342.677 534.092 344.973 538 348.24C539.143 349.206 540.514 349.863 541.982 350.149C543.45 350.435 544.968 350.341 546.39 349.876C547.811 349.41 549.09 348.588 550.105 347.489C551.12 346.39 551.836 345.049 552.187 343.594C552.537 342.14 552.509 340.62 552.106 339.179C551.703 337.738 550.938 336.425 549.884 335.363C548.83 334.301 547.522 333.526 546.085 333.113C544.647 332.699 543.127 332.66 541.67 333C536.683 334.168 531.497 334.192 526.5 333.07L516.79 330.8C515.669 330.534 514.487 330.721 513.503 331.32C512.518 331.919 511.809 332.882 511.53 334Z" fill="#1DB776"/>
<path d="M542.17 350.16C543.638 350.405 545.144 350.271 546.546 349.773C547.948 349.274 549.2 348.426 550.184 347.309C551.167 346.193 551.85 344.844 552.168 343.39C552.486 341.936 552.428 340.425 552 339C550.474 340.635 548.38 341.623 546.147 341.761C543.915 341.899 541.715 341.175 540 339.74C536.092 336.464 531.467 334.155 526.5 333L516.79 330.73C516.229 330.599 515.648 330.579 515.08 330.672C514.512 330.766 513.967 330.97 513.478 331.274C512.988 331.577 512.564 331.974 512.228 332.442C511.892 332.91 511.651 333.439 511.52 334C511.389 334.561 511.369 335.142 511.462 335.71C511.556 336.279 511.76 336.823 512.064 337.312C512.367 337.802 512.764 338.226 513.232 338.562C513.7 338.898 514.229 339.139 514.79 339.27L524.49 341.54C529.458 342.678 534.088 344.973 538 348.24C539.194 349.241 540.633 349.904 542.17 350.16V350.16Z" fill="#128E5A"/>
<path d="M475.42 391.15C475.71 389.87 475.71 388.54 475.42 387.26C475.37 387.04 475.32 386.81 475.28 386.59C474.23 387.721 472.899 388.554 471.423 389.005C469.947 389.456 468.378 389.51 466.875 389.159C465.371 388.809 463.987 388.068 462.863 387.011C461.738 385.954 460.913 384.619 460.47 383.14L460.14 383.55C459.294 384.566 458.688 385.76 458.369 387.043C458.049 388.326 458.025 389.665 458.296 390.958C458.568 392.252 459.129 393.468 459.938 394.514C460.746 395.56 461.781 396.41 462.964 397C464.148 397.589 465.449 397.903 466.771 397.918C468.093 397.933 469.402 397.648 470.598 397.085C471.795 396.522 472.848 395.696 473.68 394.668C474.511 393.64 475.099 392.438 475.4 391.15H475.42Z" fill="#128E5A"/>
</g>
<defs>
<linearGradient id="paint0_linear" x1="137.25" y1="468.68" x2="186.27" y2="604.82" gradientUnits="userSpaceOnUse">
<stop stop-color="#FFD8D8"/>
<stop offset="1" stop-color="#FFF8F8"/>
</linearGradient>
<linearGradient id="paint1_linear" x1="576.15" y1="317.52" x2="139.54" y2="80.1701" gradientUnits="userSpaceOnUse">
<stop stop-color="#FFF8F8"/>
<stop offset="1" stop-color="#FFCFCF"/>
</linearGradient>
<linearGradient id="paint2_linear" x1="643.72" y1="89.08" x2="486" y2="33.56" gradientUnits="userSpaceOnUse">
<stop stop-color="#FFD7D7"/>
<stop offset="1" stop-color="#FFF9F9"/>
</linearGradient>
<linearGradient id="paint3_linear" x1="642.76" y1="517.31" x2="2.58997" y2="200.36" gradientUnits="userSpaceOnUse">
<stop stop-color="#FFCFCF"/>
<stop offset="1" stop-color="#FFF8F8"/>
</linearGradient>
<clipPath id="clip0">
<rect width="681.49" height="637.95" fill="white"/>
</clipPath>
</defs>
</svg>
