<svg width="1171" height="794" viewBox="0 0 1171 794" fill="none" xmlns="http://www.w3.org/2000/svg">
<path d="M541.1 643.1C505.9 663.4 469.1 676.7 427.1 676.5C380.3 676.3 333.9 644.9 304.6 610.5C293.7 597.7 284.2 582.9 282 566.3C276.9 527.8 312.1 516.9 343.8 517.4C361.7 517.7 379 522.6 396 527.5C424.4 535.7 456 536.4 482.6 550.1C491.5 554.7 498.8 560.9 508.6 563.6C524 567.8 540.7 568.1 556.4 571.6C569.8 574.7 585.3 580.9 587.8 594.4C590.4 608.2 577.6 619.7 565.9 627.6C557.8 633 549.5 638.3 541.1 643.1Z" fill="url(#paint0_linear)"/>
<path d="M292.8 187.9C333.8 77.7 457.2 7.19999 573.4 16.4C629.4 20.8 681.6 45.9 730.8 73.2C774.1 97.2 817 124.1 851.4 160.2C874.9 184.8 895.1 216.3 911.3 246.4C935.5 291.4 939.4 356.1 876.2 366.7C861.4 369.2 847.5 367.1 832.7 365.8C820.8 364.8 810.5 369.7 798.6 370.6C768.7 373.1 738.3 369.3 709 363.3C649.3 351.1 592 328.6 531.6 319.9C482.1 312.8 431.7 315.2 383 327C362.5 332 341.3 338.7 320.7 334C270 322.5 275.4 256.5 283.8 218.1C286.2 207.8 289.1 197.7 292.8 187.9Z" fill="url(#paint1_linear)"/>
<path d="M792.5 81.9C804.6 88.4 849.3 103.3 843.1 74.5C841.5 67.3 836.6 61.2 830.9 57C824.4 52.2 817.9 50.5 812.3 44.5C805.4 37.2 798 30.7 790.1 24.8C773.9 12.7 756 2.09998 736.8 0.199984C723.4 -1.20002 702.8 5.09998 700.8 22.3C697.9 47.4 735.4 42.7 748.6 48.4C761.1 53.8 770.4 65.9 781.5 74.7C785 77.4 788.7 79.9 792.5 81.9Z" fill="url(#paint2_linear)"/>
<path d="M588.7 95.1C614.3 102.8 635.9 118.4 660.2 129.3C700.6 147.4 748.5 141.4 791.9 150.3C836.2 159.3 873.3 181.1 897.2 219.8C928 269.7 945.4 333.8 944.2 393.2C942.8 458.6 914.3 508.8 864.7 549.7C815.1 590.6 755.9 618.6 694.5 636.4C688.6 638.1 682.6 639.7 676.6 641.2C541.8 675 350.6 671.5 269.1 537.8C268.4 536.6 267.6 535.4 266.9 534.1C258.2 519.1 251.3 503.1 246.5 486.5C229 427.6 223.3 359.2 230.5 298.2C235.3 257.1 260.3 225.1 286.7 194.6C323.7 151.8 373.9 123.1 427.4 105.9C467 93.2 512.1 81.1 554 87.1C565.7 89 577.3 91.6 588.7 95.1Z" fill="url(#paint3_linear)"/>
<path d="M902.3 512.1C878.6 545.1 850.5 572.4 812.2 589.5C769.5 608.6 714.3 599.1 673.4 579.8C658.2 572.6 643.4 563.1 634.5 548.8C614 515.8 641.6 491.4 670.6 478.7C687 471.6 704.8 469 722.4 466.4C751.6 462.1 780.7 449.8 810.6 451.2C820.6 451.7 829.8 454.4 839.9 452.8C855.7 450.3 871 443.6 886.7 440.4C900.1 437.7 916.8 437 924.7 448.2C932.7 459.7 925.8 475.5 918.5 487.4C913.3 496.1 907.9 504.2 902.3 512.1Z" fill="url(#paint4_linear)"/>
<path d="M506.4 332.6C506.1 332.6 505.7 332.5 505.4 332.3C505.1 332.1 498.8 327.1 494 316.9C489.6 307.5 485.6 291.9 492 270.3C496.3 255.6 500.7 245.2 504.5 236C511.5 219.3 516.5 207.2 516.9 181.7C516.9 180.8 517.6 180.1 518.5 180.1C519.4 180.1 520.1 180.8 520.1 181.7C519.7 207.9 514.3 220.8 507.4 237.2C503.6 246.3 499.3 256.7 495 271.2C483.3 310.6 507.1 329.6 507.3 329.8C508 330.3 508.1 331.3 507.6 332C507.4 332.3 506.9 332.6 506.4 332.6Z" fill="#000C3E"/>
<path d="M636.8 81.3C636.6 98.6 622.3 112.5 605 112.3C587.7 112.1 573.8 97.8 574 80.5C574.2 63.2 588.5 49.3 605.8 49.5C623.2 49.7 637 64 636.8 81.3Z" fill="#000C3E"/>
<path d="M503.4 321.3C503.4 321.3 513.1 340.1 550.8 345.9C588.6 351.7 617.7 337.4 647 347.2C676.3 357 717.9 342.3 725.9 329.9C733.9 317.5 729 182.5 705.5 160.4C682.1 138.3 561.7 122.2 536.4 149.4C511.1 176.5 486.5 306.5 503.4 321.3Z" fill="#000C3E"/>
<path d="M717.9 209.6C717.1 266.7 670.2 312.4 613 311.6C555.9 310.8 510.2 263.9 511 206.7C511.8 149.6 558.7 103.9 615.9 104.7C673 105.6 718.7 152.5 717.9 209.6Z" fill="#000C3E"/>
<path d="M530 206.3C530 206.3 537.2 331.7 622.2 335.1C707.2 338.5 702.9 161.6 671.8 145.5C640.7 129.5 512.6 135.7 530 206.3Z" fill="#FFCEB0"/>
<path d="M617.7 231.1C617.7 231.1 634.8 269.4 630.7 272C626.6 274.7 614.4 274.5 611 271.7C607.7 269 611 227 617.7 231.1Z" fill="#F5A473"/>
<path d="M592.6 244.7C592.5 249.1 588.8 252.6 584.4 252.5C580 252.4 576.5 248.7 576.6 244.3C576.7 239.9 580.4 236.4 584.8 236.5C589.3 236.6 592.7 240.3 592.6 244.7Z" fill="#41294A"/>
<path d="M661 239.3C660.9 243.7 657.2 247.2 652.8 247.1C648.4 247 644.9 243.3 645 238.9C645.1 234.5 648.8 231 653.2 231.1C657.6 231.2 661.1 234.9 661 239.3Z" fill="#41294A"/>
<path d="M595.2 137.8C595.2 137.8 565.1 153.2 560 181C554.9 208.8 559.5 279.4 527.2 277C527.2 277 461.5 138.4 595.2 137.8Z" fill="#41294A"/>
<path d="M611.3 138C608.6 140 642.7 139.1 662.8 162.3C682.9 185.5 688.9 244.5 692 245.5C695 246.5 705.3 171.9 683.4 150C661.4 128.3 626.7 126.4 611.3 138Z" fill="#41294A"/>
<path d="M684.7 250.8C684.7 250.8 692.1 219.2 706.5 230C720.9 240.9 708.9 274 695 277.3C681.1 280.7 677.4 267.2 684.7 250.8Z" fill="#FFCEB0"/>
<path d="M550.7 249C550.7 249 544.2 217.2 529.5 227.6C514.8 238 525.9 271.5 539.7 275.2C553.6 278.9 557.6 265.6 550.7 249Z" fill="#FFCEB0"/>
<path d="M649.2 211.2C649.2 211.2 664.2 203.3 673.5 214.7C681.6 224.7 663.1 216.6 656.2 217.9C649.3 219.1 640.3 218.5 649.2 211.2Z" fill="#41294A"/>
<path d="M589.5 214C589.5 214 574.1 206.9 565.4 218.7C557.8 229.1 575.9 220.1 582.8 221C589.8 222 598.8 221 589.5 214Z" fill="#41294A"/>
<path d="M643.7 295.4C643.7 295.4 633.9 280.6 623.3 281.5C612.7 282.4 604.6 296.1 603.2 296.6C603.2 296.7 619.7 304.5 643.7 295.4Z" fill="#41294A"/>
<path d="M584.2 226.9C570.9 226.9 560 237.7 559.8 251C559.7 257.5 562.2 263.7 566.7 268.3C571.2 273 577.3 275.6 583.8 275.7H584.1C597.4 275.7 608.3 264.9 608.5 251.6C608.7 238.2 597.9 227.1 584.5 226.9H584.2ZM584.2 278.9H583.8C576.4 278.8 569.6 275.8 564.4 270.6C559.3 265.3 556.5 258.4 556.6 251C556.8 236 569.2 223.8 584.2 223.8H584.6C599.8 224 612 236.5 611.8 251.7C611.5 266.7 599.2 278.9 584.2 278.9Z" fill="#FFFCF6"/>
<path d="M653 221.4C639.7 221.4 628.8 232.2 628.6 245.5C628.4 258.9 639.2 270 652.6 270.2H652.9C666.2 270.2 677.1 259.4 677.3 246.1C677.4 239.6 674.9 233.4 670.4 228.8C665.9 224.1 659.8 221.5 653.3 221.4H653ZM653 273.4H652.6C637.4 273.2 625.2 260.7 625.4 245.5C625.6 230.5 638 218.3 653 218.3H653.4C660.8 218.4 667.6 221.4 672.8 226.6C677.9 231.9 680.7 238.8 680.6 246.2C680.4 261.2 668 273.4 653 273.4Z" fill="#FFFCF6"/>
<path d="M558.9 247C558.7 247 558.5 247 558.4 246.9L548.2 243.2C547.4 242.9 547 242 547.3 241.2C547.6 240.4 548.5 240 549.3 240.3L559.5 244C560.3 244.3 560.7 245.2 560.4 246C560.1 246.6 559.5 247 558.9 247Z" fill="#FFFCF6"/>
<path d="M677.9 239.7C677.2 239.7 676.6 239.3 676.4 238.6C676.1 237.8 676.6 236.9 677.4 236.6L691.3 232.2C692.1 231.9 693 232.4 693.3 233.2C693.6 234 693.1 234.9 692.3 235.2L678.4 239.6C678.2 239.7 678 239.7 677.9 239.7Z" fill="#FFFCF6"/>
<path d="M610.8 167.2C610.8 167.2 610.8 198.9 629.7 204.7C648.6 210.4 697.2 207.9 696.7 200.2C692.2 130.2 659.3 133.7 631.9 124.8C583.7 109.1 544.3 187.8 550.2 206.4C556.1 225 596.8 207.6 605.5 205C614.2 202.2 609.3 180.7 610.8 167.2Z" fill="#000C3E"/>
<g opacity="0.21">
<g opacity="0.21">
<path opacity="0.21" d="M562 274.4C562 274.4 604.9 249.7 623.7 253.1C642.5 256.6 675.5 257.1 677 263.9C678.5 270.6 635.1 267.6 621.8 268.9C608.5 270.1 557.3 285.5 562 274.4Z" fill="#DB5C5D"/>
</g>
</g>
<path d="M586 257.8C585.4 257.8 584.8 257.4 584.5 256.8C584.2 256 584.6 255.1 585.4 254.7C589.7 252.9 590.5 251.6 590.5 251.5C590.8 250.7 591.7 250.3 592.5 250.6C593.3 250.9 593.7 251.9 593.5 252.7C593.3 253.3 592.2 255.4 586.6 257.6C586.4 257.8 586.2 257.8 586 257.8Z" fill="#DB5C5D"/>
<path d="M651.5 254.4C650.2 254.4 648.1 254 644.7 252.4C643.9 252 643.6 251.1 644 250.3C644.4 249.5 645.3 249.2 646.1 249.6C650.3 251.6 651.9 251.3 651.9 251.3C652.7 251 653.6 251.4 653.9 252.2C654.2 253 653.8 254 653 254.3C652.7 254.3 652.3 254.4 651.5 254.4Z" fill="#DB5C5D"/>
<path d="M610.1 251.8C609.3 251.8 608.6 251.2 608.5 250.4C608.4 249.5 609 248.7 609.9 248.7L627 247C627.9 246.9 628.7 247.5 628.7 248.4C628.8 249.3 628.2 250.1 627.3 250.1L610.2 251.8C610.2 251.8 610.2 251.8 610.1 251.8Z" fill="#FFFCF6"/>
<path d="M586.5 111.8C586.3 111.8 586 111.7 585.8 111.6C576.8 107.2 571.3 101 569.6 93C565.7 75.3 581.5 55.8 582.2 55C582.8 54.3 583.8 54.2 584.4 54.8C585.1 55.4 585.2 56.4 584.6 57C584.4 57.2 569.1 76.2 572.7 92.4C574.2 99.4 579.1 104.9 587.2 108.8C588 109.2 588.3 110.1 587.9 110.9C587.6 111.5 587.1 111.8 586.5 111.8Z" fill="#000C3E"/>
<path d="M622.8 116.5C622.4 116.5 621.9 116.3 621.6 116C621 115.3 621.1 114.3 621.7 113.8C621.9 113.6 640.1 97.4 639.3 80.9C638.9 73.8 635 67.5 627.7 62.3C627 61.8 626.8 60.8 627.3 60.1C627.8 59.4 628.8 59.2 629.5 59.7C637.7 65.5 642 72.6 642.5 80.7C643.4 98.8 624.6 115.5 623.8 116.2C623.6 116.4 623.2 116.5 622.8 116.5Z" fill="#000C3E"/>
<path d="M717.4 325.4C716.9 325.4 716.5 325.2 716.2 324.8C715.6 324.1 715.7 323.1 716.4 322.6C716.6 322.4 737.5 305 731.5 277.3C729.2 266.6 725.1 254.9 720.7 242.5C713.2 221 705.4 198.7 704.8 177.1C704.8 176.2 705.5 175.5 706.3 175.5C707.1 175.5 707.9 176.2 707.9 177C708.5 198.1 716.2 220.1 723.6 241.4C728 253.9 732.1 265.7 734.5 276.6C741 306.2 718.6 324.9 718.3 325.1C718.2 325.3 717.8 325.4 717.4 325.4Z" fill="#000C3E"/>
<path d="M723.1 211.8C723 211.8 723 211.8 722.9 211.8C722 211.7 721.4 210.9 721.5 210.1C724.2 182.3 718.4 159.7 704.1 142.9C681.1 116 643.7 113.5 643.3 113.5C642.4 113.4 641.8 112.7 641.8 111.8C641.8 110.9 642.6 110.2 643.5 110.3C643.9 110.3 682.6 112.9 706.5 140.8C721.4 158.2 727.5 181.6 724.7 210.3C724.6 211.2 723.9 211.8 723.1 211.8Z" fill="#000C3E"/>
<path d="M609.2 298.6C609.2 298.6 625.1 287.5 639.2 297C639.2 297 622.6 303.2 609.2 298.6Z" fill="#DB5C5D"/>
<path d="M619.6 310C618 310 616.7 310 615.9 310C615 310 614.3 309.3 614.3 308.4C614.3 307.5 614.9 306.8 615.9 306.8C621.9 306.9 629.1 306.7 630.2 306.3C631 306 631.9 306.4 632.3 307.2C632.6 308 632.2 308.9 631.4 309.3C629.8 309.9 623.9 310 619.6 310Z" fill="#DB5C5D"/>
<path d="M542.5 266.5C542.4 266.5 542.2 266.5 542.1 266.4C541.3 266.2 540.8 265.3 541 264.4C545.4 248.8 533.8 238.8 533.7 238.7C533 238.1 532.9 237.1 533.5 236.5C534.1 235.8 535.1 235.7 535.7 236.3C536.2 236.8 548.9 247.8 544 265.3C543.8 266 543.2 266.5 542.5 266.5Z" fill="#DB5C5D"/>
<path d="M690.9 270.3H690.8C689.9 270.2 689.3 269.5 689.3 268.6C690.5 250.1 699.3 240.3 699.7 239.9C700.3 239.3 701.3 239.2 701.9 239.8C702.5 240.4 702.6 241.4 702 242C701.9 242.1 693.5 251.5 692.4 268.8C692.5 269.6 691.8 270.3 690.9 270.3Z" fill="#DB5C5D"/>
<path d="M659 322.2C659 322.2 664.1 378.8 657.3 387.7C650.6 396.7 608.1 389.9 596.9 387.7C585.7 385.5 585.7 291.9 587.9 298.2C606.6 350.4 657.7 304.2 659 322.2Z" fill="#FFCEB0"/>
<path d="M592 327.8C592 327.8 622.2 342.3 656.5 324.7C656.5 324.7 659.2 345.8 656.5 350.6C653.8 355.5 599.5 358.9 588.8 335C588.8 335.1 588.9 326.7 592 327.8Z" fill="#F5A473"/>
<path d="M427.2 771.1H817.6C817.6 771.1 837.5 431.7 788.6 394.8C739.7 357.9 524.4 376.3 473.7 407.9C423.1 439.4 427.2 771.1 427.2 771.1Z" fill="#FB4C47"/>
<path d="M622.2 381C622.2 381 607.2 511.5 613.7 529.6C620.3 547.8 611.9 628.3 609.2 638.7C606.5 649.2 525.4 653.6 504.5 645.2C483.6 636.8 509.8 411.2 521.5 369.4C533.2 327.8 620.9 352.4 622.2 381Z" fill="#05BA6E"/>
<path d="M384 221.2C384 221.2 416.6 283.7 439.5 284.3C462.4 284.9 539.5 191 567.9 190C596.3 189 620.8 191.8 620.9 185C621 178.2 581.3 170.8 581.3 170.8C581.3 170.8 638.7 174.5 626.8 168.2C614.9 161.9 586.5 156.3 586.5 156.3C586.5 156.3 627.7 158 628 153.6C628.3 149.2 585.1 142.7 585.1 142.7C585.1 142.7 637.7 141 628.1 133.8C618.5 126.6 600.4 129.7 551.4 137.2C502.4 144.5 391.6 209.9 384 221.2Z" fill="#FFCEB0"/>
<path d="M441.2 218.2C441.2 218.2 493.4 249.3 470.7 284.5C446.5 322 447.9 310.9 443.7 326.1C439.5 341.3 508.5 370.8 511.6 383.8C514.7 396.8 482.2 556.6 451.8 550C425.3 544.3 278 460.7 256.8 377.1C240.3 312.4 374.1 154 441.2 218.2Z" fill="#FB4C47"/>
<path d="M577.8 582.6C577.8 582.6 520 710 541.2 727.1C562.5 744.2 579.6 733 598.4 744.1C617.2 755.2 635.2 749.6 650.4 740C665.5 730.4 626.2 603.6 609.9 591.5C593.7 579.5 580.8 576 577.8 582.6Z" fill="white"/>
<path d="M770 385.7C770 385.7 801.1 389.5 825.5 434.2C843.8 467.7 879.3 663.7 825.5 691.7C771.7 719.6 721.3 705 701.7 686.2C682.2 667.4 716.9 570.4 740.1 563.2C763.3 555.9 770 385.7 770 385.7Z" fill="#FB4C47"/>
<path d="M780.1 382.7C780.1 382.7 781.6 373.6 736.8 354.3C701.1 338.8 670.5 364.9 615.9 367.7C561.4 370.5 566.3 348.9 527.7 358.9C468.2 374.4 515.6 413.4 534.7 417.8C553.9 422.2 618.2 530.2 780.1 382.7Z" fill="#05BA6E"/>
<path d="M623.8 273.8C623.8 273.8 623.6 277.5 625.8 277.8C627.9 278.1 631.8 277 630.8 272C630.8 272.1 625.4 273.8 623.8 273.8Z" fill="white"/>
<path d="M844.5 579.6C844.4 579.6 844.2 579.6 844 579.6C842.5 579.4 841.4 578.2 841.3 576.8C838.7 573.7 820.9 567.3 809 563C785.5 554.5 774.9 550.3 772.7 545.7C770.8 541.8 771.6 536.2 772.7 529.1C774.4 517.9 776.6 503.9 769.4 490.4C757.1 467.1 758.2 432.6 758.3 431.1C758.4 429.3 759.9 427.9 761.6 428C763.4 428.1 764.7 429.5 764.7 431.3C764.7 431.6 763.5 465.6 775.1 487.4C783.2 502.7 780.8 518.5 779 530.1C778.1 535.6 777.4 540.8 778.4 542.9C780.3 545.9 798.9 552.6 811.2 557C838.9 567 848.5 571 847.7 576.9C847.4 578.4 846.1 579.6 844.5 579.6Z" fill="#B31B1F"/>
<path d="M761.5 553.4C761.2 553.4 760.9 553.4 760.7 553.3C750.2 550.4 733.9 547.4 733.7 547.4C732 547.1 730.8 545.4 731.1 543.7C731.4 542 733.1 540.8 734.8 541.1C735.5 541.2 751.6 544.2 762.3 547.1C764 547.6 765 549.3 764.5 551C764.2 552.5 762.9 553.4 761.5 553.4Z" fill="#B31B1F"/>
<path d="M818.7 710.8H818.6C759.7 708.1 701 683 697.9 659.2C696.9 651.7 696.2 647.9 695.7 646.1C694.5 645.5 693.8 644.2 694 642.9C694.4 640.3 696.2 639.3 697.6 639.3C700.8 639.3 701.9 641.2 704.1 658.4C706.6 676.9 760 701.8 818.8 704.5C820.6 704.6 821.9 706.1 821.8 707.8C821.8 709.5 820.3 710.8 818.7 710.8Z" fill="#B31B1F"/>
<path d="M713.1 654.5C712.9 654.5 712.6 654.5 712.4 654.4C710.7 654 709.6 652.3 710 650.6C710.1 650 724.1 588.6 737.1 544.5C737.6 542.8 739.4 541.8 741.1 542.3C742.8 542.8 743.7 544.6 743.3 546.3C730.3 590.2 716.5 651.4 716.3 652C715.8 653.5 714.5 654.5 713.1 654.5Z" fill="#B31B1F"/>
<path d="M437 521.2C436.8 521.2 436.7 521.2 436.5 521.2C434.8 520.9 433.6 519.3 433.8 517.6C434.1 515.4 442 463.6 452.8 439.3C463.3 415.7 468.6 391.8 468.7 391.6C469.1 389.9 470.8 388.8 472.5 389.2C474.2 389.6 475.3 391.3 474.9 393C474.7 394 469.3 417.8 458.6 441.9C448.2 465.4 440.2 518 440.1 518.6C439.9 520.1 438.5 521.2 437 521.2Z" fill="#B31B1F"/>
<path d="M388.5 340.2C380 340.2 370.5 339.7 360.1 338.4C358.4 338.2 357.1 336.6 357.3 334.8C357.5 333.1 359.2 331.8 360.9 332C392.7 336.1 415.3 332.3 427 329.8C421.2 327.9 413.1 326.1 405 326.6C386.7 327.5 360 311.2 358.9 310.5C357.4 309.6 356.9 307.6 357.9 306.1C358.8 304.6 360.8 304.1 362.3 305.1C362.6 305.3 388.5 321.1 404.7 320.3C420.2 319.5 438.5 326.4 440.1 329.3C440.7 330.4 440.6 331.7 440 332.7C439.4 333.6 438.1 334.2 436.9 334.1C436.4 334.2 434.9 334.5 433.5 334.9C426.4 336.6 411.1 340.2 388.5 340.2Z" fill="#B31B1F"/>
<path d="M466.7 271.8C465.5 271.8 464.4 271.1 463.8 270C463.7 269.8 455.8 253.7 442.2 247.3C426.8 240 409.5 214.7 408.7 213.6C407.7 212.1 408.1 210.2 409.5 209.2C411 208.2 412.9 208.6 413.9 210C414.1 210.2 431 235 444.8 241.5C460.4 248.9 469 266.4 469.4 267.2C470.2 268.8 469.5 270.7 467.9 271.4C467.6 271.7 467.2 271.8 466.7 271.8Z" fill="#B31B1F"/>
<path d="M614.5 456.8C614.4 456.8 614.3 456.8 614.1 456.8C613.2 456.6 612.7 455.7 612.9 454.9C613 454.6 620.6 421.4 622.8 404.5C626.3 378.2 614.5 369.1 614.4 369C613.7 368.5 613.5 367.5 614.1 366.8C614.6 366.1 615.6 365.9 616.3 366.5C616.8 366.9 629.7 376.7 626 405C623.8 422 616.1 455.3 616.1 455.7C615.9 456.3 615.2 456.8 614.5 456.8Z" fill="#08824F"/>
<path d="M520.7 408.9L517.5 408.5C517.5 408.5 520 387 521.3 376.5C522.6 365.8 525.6 358.6 525.8 358.3C526.1 357.5 527.1 357.1 527.9 357.5C528.7 357.8 529.1 358.8 528.7 359.6C528.7 359.7 525.7 366.8 524.5 377C523.1 387.4 520.7 408.9 520.7 408.9Z" fill="#08824F"/>
<path d="M611 761.6C592.9 761.6 582.9 761 569.1 760.2C551.3 759.1 527 757.7 470.2 756.8C468.4 756.8 467 755.3 467.1 753.6C467.1 751.8 468.7 750.4 470.3 750.5C527.3 751.4 551.7 752.9 569.5 753.9C583.2 754.7 593.1 755.3 611.1 755.3C633.6 755.3 653.7 752.8 673.2 750.5C690.3 748.4 706.5 746.4 723.8 746C760.8 745.2 788.4 746 788.7 746C790.5 746.1 791.8 747.5 791.8 749.3C791.7 751.1 790.3 752.4 788.5 752.4C788.2 752.4 760.8 751.6 724 752.4C707 752.8 691 754.7 674 756.8C654.2 759.2 633.9 761.6 611 761.6Z" fill="#B31B1F"/>
<path d="M755.1 719.2C753.5 719.2 751.9 718.5 750.6 716.4C746.3 709.9 745 709.4 736.7 710.6C729.2 711.8 726.2 706.4 724.2 702.9C723.5 701.7 722.9 700.6 722.4 700.2C720.9 699 717.3 700.4 715.7 701.3L714.2 698.5C714.9 698.1 720.9 694.9 724.4 697.7C725.4 698.5 726.2 699.8 727 701.4C728.9 704.8 730.9 708.3 736.2 707.5C745.7 706 748.3 707.1 753.2 714.6C754.5 716.6 755.7 716.3 759.2 714.3C761.9 712.7 765.9 710.4 769 714.6L766.4 716.5C765.2 714.9 764.2 715.2 760.8 717.1C759.3 718 757.2 719.2 755.1 719.2Z" fill="white"/>
<path d="M718.1 569.3C718.1 569.3 642.1 541.8 609.1 555.9C576.1 570 549 606.2 554 608.6C559 611 586 590.1 586 590.1C586 590.1 558.5 617.9 563.6 620.6C568.7 623.4 595.2 608.6 595.2 608.6C595.2 608.6 576.7 628.4 584.7 629.9C592.6 631.4 609.6 615.1 627.4 614.5C645.1 613.9 667.5 627.9 689.7 631.9C711.8 635.8 718.1 569.3 718.1 569.3Z" fill="#FFCEB0"/>
<path d="M832.8 555.1C832.6 555.1 832.4 555.1 832.2 555C832 555 809.6 550.7 782.8 545.3C781.1 544.9 780 543.3 780.3 541.5C780.6 539.8 782.3 538.7 784.1 539C810.8 544.4 833.2 548.7 833.4 548.7C835.1 549 836.3 550.7 835.9 552.4C835.7 554 834.3 555.1 832.8 555.1Z" fill="#B31B1F"/>
<path fill-rule="evenodd" clip-rule="evenodd" d="M620.4 55C619.6 55 618.7 55.1 617.7 55.3C615.3 55.8 613.8 56.9 612.8 58.9C608.7 67.9 617.4 89.2 623.6 101.8C627.5 87.8 632.1 64.5 625.5 57.1C624.3 55.7 622.6 55 620.4 55ZM623.8 112.3C623.9 112.3 624 112.3 624.1 112.3C624.4 112.4 624.8 112.5 625.1 112.5C625.4 112.5 625.8 112.4 626.1 112.3C630.4 110.8 667.8 96.7 672.4 80.5C673.5 76.6 672.7 72.8 670.1 69.4C665.7 63.7 660.9 63 657.6 63.4C648.4 64.6 639.3 76.5 632.7 87.8C635.1 74.9 636 60.1 629.8 53.1C627.6 50.7 623.6 48 616.4 49.4C612.2 50.2 609.1 52.6 607.4 56.3C601.1 69.9 615.6 99.2 620.4 108.3C614.3 109.5 608.2 109.7 602.4 109.3C589.8 108.4 578.7 104.5 572 100.3L569.6 104C577 108.7 588.9 112.8 602.1 113.7C609.2 114.4 616.5 114 623.8 112.3ZM659.3 69.2C659 69.2 658.7 69.2 658.5 69.3C648.7 70.6 637 91.3 630.7 104.4C643.7 98.9 664.2 88.5 666.9 79.1C667.5 77 667.1 75.1 665.6 73.2C663.7 70.5 661.6 69.2 659.3 69.2Z" fill="#FFD310"/>
<path d="M197.3 164H310.5C317.8 164 324.6 167.3 329.2 173L362.4 214.3C367.1 220.2 374.3 223.5 381.8 223.2L594.8 216.8" stroke="#FFB2B1" stroke-width="5" stroke-linejoin="round"/>
<path d="M209.4 164.5C209.4 169.5 205.3 173.6 200.3 173.6C195.3 173.6 191.2 169.5 191.2 164.5C191.2 159.5 195.3 155.4 200.3 155.4C205.3 155.4 209.4 159.5 209.4 164.5Z" fill="#FF383D"/>
<path d="M11 164.6C11 125.6 42.6 94 81.6 94C120.6 94 152.2 125.6 152.2 164.6C152.2 203.6 120.6 235.2 81.6 235.2C42.6 235.2 11 203.6 11 164.6Z" fill="#FFE1E2"/>
<path d="M81.3 76.7C130.1 76.7 169.6 116.2 169.6 165C169.6 213.8 130.1 253.3 81.3 253.3V297" stroke="#FFD6D7" stroke-width="2.4" stroke-miterlimit="10"/>
<path d="M74.1001 299.2C74.1001 295.2 77.4001 291.9 81.4001 291.9C85.4001 291.9 88.7001 295.2 88.7001 299.2C88.7001 303.2 85.4001 306.5 81.4001 306.5C77.3001 306.4 74.1001 303.2 74.1001 299.2Z" fill="#F2AEB0"/>
<path d="M53.2001 162.5V166.2H58.6001V168.4H53.2001V174.2H50.6001V160.1H59.6001V162.5H53.2001ZM64.4001 162.5V166H70.2001V168.2H64.4001V171.8H70.8001V174.2H61.8001V160.1H70.8001V162.5H64.4001ZM75.1001 160.1L77.1001 165.3C77.4001 166.1 77.8001 167.2 78.2001 168.4C78.6001 169.6 78.9001 170.5 79.1001 171C79.3001 170.5 79.6001 169.6 80.0001 168.3C80.4001 167.1 80.8001 166 81.1001 165.2L83.1001 160H86.0001L80.5001 174.1H77.8001L72.2001 160H75.1001V160.1ZM90.3001 162.5V166H96.1001V168.2H90.3001V171.8H96.7001V174.2H87.7001V160.1H96.7001V162.5H90.3001ZM99.5001 160.1H105.1C106.8 160.1 108.1 160.5 109 161.2C109.9 162 110.3 163 110.3 164.5C110.3 165.5 110.1 166.3 109.6 167C109.1 167.7 108.5 168.2 107.7 168.5L110.4 174.2H107.5L105.1 168.9H102V174.2H99.4001V160.1H99.5001ZM105.1 166.8C105.9 166.8 106.6 166.6 107 166.2C107.4 165.8 107.6 165.3 107.6 164.6C107.6 164 107.4 163.4 106.9 163C106.5 162.6 105.8 162.4 105 162.4H102V166.7H105.1V166.8Z" fill="#FF383D"/>
<path d="M650.8 278.3H819.6C828.4 278.3 836.5 283.1 840.7 290.9L871.9 348.7C876.1 356.5 884.2 361.3 893 361.3H975.8" stroke="#FFB2B1" stroke-width="5" stroke-linejoin="round"/>
<path d="M979.9 361.2C979.9 366.2 975.8 370.3 970.8 370.3C965.8 370.3 961.7 366.2 961.7 361.2C961.7 356.2 965.8 352.1 970.8 352.1C975.8 352.1 979.9 356.1 979.9 361.2Z" fill="#FF383D"/>
<path opacity="0.15" d="M1005.7 379.6C1005.7 340.6 1037.3 309 1076.3 309C1115.3 309 1146.9 340.6 1146.9 379.6C1146.9 418.6 1115.3 450.2 1076.3 450.2C1037.3 450.2 1005.7 418.6 1005.7 379.6Z" fill="#FF383D"/>
<path d="M1042.7 360.1H1048.3C1050 360.1 1051.3 360.5 1052.2 361.2C1053.1 362 1053.5 363 1053.5 364.5C1053.5 365.5 1053.3 366.3 1052.8 367C1052.4 367.7 1051.7 368.2 1050.9 368.5L1053.6 374.2H1050.7L1048.3 368.9H1045.2V374.2H1042.6V360.1H1042.7ZM1048.3 366.8C1049.1 366.8 1049.8 366.6 1050.2 366.2C1050.6 365.8 1050.8 365.3 1050.8 364.6C1050.8 364 1050.6 363.4 1050.1 363C1049.7 362.6 1049 362.4 1048.2 362.4H1045.2V366.7H1048.3V366.8ZM1055.9 360.1H1058.5V369C1058.5 370.1 1058.8 370.9 1059.4 371.4C1060 371.9 1060.8 372.1 1061.8 372.1C1062.8 372.1 1063.6 371.8 1064.2 371.3C1064.8 370.8 1065.1 370 1065.1 369V360.1H1067.7V369.1C1067.7 370.3 1067.4 371.2 1066.9 372.1C1066.4 372.9 1065.7 373.5 1064.8 373.9C1063.9 374.3 1062.9 374.5 1061.8 374.5C1060.6 374.5 1059.6 374.3 1058.8 373.9C1057.9 373.5 1057.2 372.9 1056.7 372.1C1056.2 371.3 1056 370.3 1056 369.2V360.1H1055.9ZM1082.2 360.1V374.2H1079.8L1073.3 364.5V374.2H1070.7V360.1H1073.1L1079.6 369.8V360.1H1082.2ZM1096.8 360.1V374.2H1094.4L1087.9 364.5V374.2H1085.3V360.1H1087.7L1094.2 369.8V360.1H1096.8ZM1101.6 360.1L1103.3 363C1103.7 363.7 1104.1 364.4 1104.4 365C1104.7 365.6 1104.9 366 1105 366.1C1105.1 365.9 1105.3 365.6 1105.6 365C1105.9 364.4 1106.3 363.8 1106.7 362.9L1108.4 360H1111.3L1106.3 368.5V374.1H1103.7V368.5L1098.7 360H1101.6V360.1ZM1061.8 389.1V403.2H1059.4L1052.9 393.5V403.2H1050.3V389.1H1052.7L1059.2 398.8V389.1H1061.8ZM1079 396.2C1079 397.6 1078.7 398.9 1078 400C1077.3 401.1 1076.5 402 1075.3 402.6C1074.2 403.2 1072.9 403.5 1071.5 403.5C1070.1 403.5 1068.8 403.2 1067.7 402.6C1066.6 402 1065.7 401.1 1065.1 400C1064.5 398.9 1064.1 397.6 1064.1 396.2C1064.1 394.8 1064.4 393.5 1065.1 392.4C1065.7 391.3 1066.6 390.4 1067.7 389.8C1068.8 389.2 1070.1 388.9 1071.5 388.9C1072.9 388.9 1074.2 389.2 1075.3 389.8C1076.4 390.4 1077.3 391.3 1078 392.4C1078.7 393.5 1079 394.8 1079 396.2ZM1076.3 396.2C1076.3 395.2 1076.1 394.4 1075.7 393.6C1075.3 392.9 1074.7 392.3 1074 391.9C1073.3 391.5 1072.5 391.3 1071.6 391.3C1070.7 391.3 1069.9 391.5 1069.2 391.9C1068.5 392.3 1067.9 392.9 1067.5 393.6C1067.1 394.3 1066.9 395.2 1066.9 396.2C1066.9 397.2 1067.1 398 1067.5 398.8C1067.9 399.5 1068.5 400.1 1069.2 400.5C1069.9 400.9 1070.7 401.1 1071.6 401.1C1072.5 401.1 1073.3 400.9 1074 400.5C1074.7 400.1 1075.3 399.5 1075.7 398.8C1076.1 398 1076.3 397.2 1076.3 396.2ZM1080.8 393.2C1080.8 392.3 1081 391.6 1081.4 390.9C1081.8 390.3 1082.4 389.8 1083.2 389.4C1084 389 1084.9 388.9 1085.8 388.9C1086.8 388.9 1087.7 389.1 1088.4 389.4C1089.2 389.7 1089.8 390.2 1090.2 390.9C1090.6 391.5 1090.8 392.3 1090.8 393.1H1088.2C1088.2 392.5 1087.9 392 1087.5 391.6C1087 391.2 1086.4 391 1085.7 391C1085 391 1084.5 391.2 1084 391.5C1083.6 391.8 1083.4 392.3 1083.4 392.8C1083.4 393.3 1083.6 393.7 1083.9 394C1084.3 394.3 1084.7 394.4 1085.3 394.6L1087.6 395.2C1088.7 395.5 1089.5 395.9 1090.2 396.6C1090.9 397.3 1091.2 398.1 1091.2 399.2C1091.2 400.1 1091 400.9 1090.5 401.5C1090.1 402.2 1089.4 402.7 1088.6 403C1087.8 403.4 1086.9 403.5 1085.8 403.5C1084.2 403.5 1082.9 403.1 1081.9 402.4C1080.9 401.6 1080.4 400.6 1080.3 399.3H1083C1083 400 1083.3 400.5 1083.8 400.9C1084.3 401.3 1085 401.5 1085.8 401.5C1086.6 401.5 1087.2 401.3 1087.7 401C1088.2 400.7 1088.4 400.2 1088.4 399.6C1088.4 399.1 1088.2 398.7 1087.9 398.4C1087.6 398.1 1087.1 397.9 1086.6 397.8L1084.2 397.2C1083 396.9 1082.1 396.5 1081.5 395.8C1081.2 395 1080.8 394.2 1080.8 393.2ZM1096.3 391.5V395H1102.1V397.2H1096.3V400.8H1102.7V403.2H1093.7V389.1H1102.7V391.5H1096.3V391.5Z" fill="#FF383D"/>
<path d="M1081 291.5C1129.8 291.5 1169.3 331 1169.3 379.8C1169.3 428.6 1129.8 468.1 1081 468.1V511.7" stroke="#FFD6D7" stroke-width="2.4" stroke-miterlimit="10"/>
<path d="M1073.8 514C1073.8 510 1077.1 506.7 1081.1 506.7C1085.1 506.7 1088.4 510 1088.4 514C1088.4 518 1085.1 521.3 1081.1 521.3C1077.1 521.3 1073.8 518 1073.8 514Z" fill="#F2AEB0"/>
<path opacity="0.15" d="M11 650.6C11 611.6 42.6 580 81.6 580C120.6 580 152.2 611.6 152.2 650.6C152.2 689.6 120.6 721.2 81.6 721.2C42.6 721.2 11 689.6 11 650.6Z" fill="#FF383D"/>
<path d="M31.8001 647.1C33.2001 647.1 34.4001 647.4 35.5001 648C36.6001 648.6 37.4001 649.4 38.0001 650.5C38.6001 651.6 38.9001 652.8 38.9001 654.2C38.9001 655.6 38.6001 656.8 38.0001 657.8C37.4001 658.9 36.6001 659.7 35.5001 660.3C34.4001 660.9 33.2001 661.2 31.8001 661.2H26.6001V647.1H31.8001ZM31.6001 658.9C32.5001 658.9 33.3001 658.7 34.0001 658.3C34.7001 657.9 35.2001 657.4 35.6001 656.7C36.0001 656 36.2001 655.2 36.2001 654.3C36.2001 653.4 36.0001 652.5 35.6001 651.8C35.2001 651.1 34.7001 650.5 34.0001 650.1C33.3001 649.7 32.5001 649.5 31.6001 649.5H29.2001V658.9H31.6001V658.9ZM41.9001 647.1L43.6001 650C44.0001 650.7 44.4001 651.4 44.7001 652C45.0001 652.6 45.2001 653 45.3001 653.1C45.4001 652.9 45.6001 652.6 45.9001 652C46.2001 651.4 46.6001 650.8 47.0001 649.9L48.7001 647H51.6001L46.6001 655.5V661.2H44.0001V655.5L39.0001 647H41.9001V647.1ZM59.1001 647.1C60.6001 647.1 61.7001 647.5 62.6001 648.4C63.5001 649.2 63.9001 650.4 63.9001 651.8C63.9001 652.7 63.7001 653.5 63.3001 654.2C62.9001 654.9 62.4001 655.4 61.6001 655.8C60.9001 656.2 60.0001 656.4 59.0001 656.4H55.8001V661.2H53.2001V647.1H59.1001V647.1ZM58.6001 654.2C59.5001 654.2 60.1001 654 60.5001 653.5C60.9001 653 61.2001 652.4 61.2001 651.7C61.2001 651.1 61.0001 650.5 60.5001 650.1C60.1001 649.6 59.4001 649.4 58.6001 649.4H55.8001V654.2H58.6001V654.2ZM65.6001 651.2C65.6001 650.3 65.8001 649.6 66.2001 648.9C66.6001 648.3 67.2001 647.8 68.0001 647.4C68.8001 647 69.6001 646.9 70.6001 646.9C71.6001 646.9 72.5001 647.1 73.2001 647.4C74.0001 647.7 74.6001 648.2 75.0001 648.9C75.4001 649.5 75.6001 650.3 75.6001 651.1H72.9001C72.9001 650.5 72.6001 650 72.2001 649.6C71.7001 649.2 71.1001 649 70.4001 649C69.7001 649 69.2001 649.2 68.7001 649.5C68.3001 649.8 68.1001 650.3 68.1001 650.8C68.1001 651.3 68.3001 651.7 68.6001 652C69.0001 652.3 69.4001 652.4 70.1001 652.6L72.4001 653.2C73.5001 653.5 74.3001 653.9 75.0001 654.6C75.7001 655.3 76.0001 656.1 76.0001 657.2C76.0001 658.1 75.8001 658.9 75.3001 659.5C74.9001 660.2 74.2001 660.7 73.4001 661C72.6001 661.4 71.7001 661.5 70.6001 661.5C69.0001 661.5 67.7001 661.1 66.7001 660.4C65.7001 659.6 65.2001 658.6 65.1001 657.3H67.8001C67.8001 658 68.1001 658.5 68.6001 658.9C69.1001 659.3 69.8001 659.5 70.6001 659.5C71.4001 659.5 72.0001 659.3 72.5001 659C73.0001 658.7 73.2001 658.2 73.2001 657.6C73.2001 657.1 73.0001 656.7 72.7001 656.4C72.4001 656.1 72.0001 655.9 71.4001 655.8L69.0001 655.2C67.8001 654.9 66.9001 654.5 66.3001 653.8C65.9001 653 65.6001 652.2 65.6001 651.2ZM89.9001 647.1V661.2H87.5001L81.0001 651.5V661.2H78.4001V647.1H80.8001L87.3001 656.8V647.1H89.9001ZM107.2 654.2C107.2 655.6 106.9 656.9 106.2 658C105.6 659.1 104.7 660 103.5 660.6C102.4 661.2 101.1 661.5 99.7001 661.5C98.3001 661.5 97.0001 661.2 95.9001 660.6C94.8001 660 93.9001 659.1 93.3001 658C92.7001 656.9 92.3001 655.6 92.3001 654.2C92.3001 652.8 92.6001 651.5 93.3001 650.4C93.9001 649.3 94.8001 648.4 95.9001 647.8C97.0001 647.2 98.3001 646.9 99.7001 646.9C101.1 646.9 102.4 647.2 103.5 647.8C104.6 648.4 105.5 649.3 106.2 650.4C106.8 651.5 107.2 652.8 107.2 654.2ZM104.4 654.2C104.4 653.2 104.2 652.4 103.8 651.6C103.4 650.9 102.8 650.3 102.1 649.9C101.4 649.5 100.6 649.3 99.7001 649.3C98.8001 649.3 98.0001 649.5 97.3001 649.9C96.6001 650.3 96.0001 650.9 95.6001 651.6C95.2001 652.3 95.0001 653.2 95.0001 654.2C95.0001 655.2 95.2001 656 95.6001 656.8C96.0001 657.5 96.6001 658.1 97.3001 658.5C98.0001 658.9 98.8001 659.1 99.7001 659.1C100.6 659.1 101.4 658.9 102.1 658.5C102.8 658.1 103.4 657.5 103.8 656.8C104.2 656 104.4 655.2 104.4 654.2ZM112.1 649.5V653H117.9V655.2H112.1V658.8H118.5V661.2H109.5V647.1H118.5V649.5H112.1ZM125.2 647.1H127.8L133 661.2H130.3L129.2 658H123.8L122.6 661.2H119.9L125.2 647.1ZM128.4 655.9L127.5 653.4C127.4 653.2 127.2 652.5 126.8 651.3L126.5 650.4C126.4 650.6 126.3 651 126.1 651.6C125.9 652.2 125.7 652.8 125.4 653.4L124.5 655.9H128.4Z" fill="#FF383D"/>
<path d="M81.3 562.9C130.1 562.9 169.6 602.4 169.6 651.2C169.6 700 130.1 739.5 81.3 739.5V783.1" stroke="#FFD6D7" stroke-width="2.4" stroke-miterlimit="10"/>
<path d="M74.1001 785.3C74.1001 781.3 77.4001 778 81.4001 778C85.4001 778 88.7001 781.3 88.7001 785.3C88.7001 789.3 85.4001 792.6 81.4001 792.6C77.3001 792.6 74.1001 789.3 74.1001 785.3Z" fill="#F2AEB0"/>
<path d="M186.7 663.1H365C374.6 663.1 383.3 657.3 387.1 648.5L443.5 515.5C447.3 506.6 456 500.9 465.6 500.9H672.8" stroke="#FFB2B1" stroke-width="5" stroke-linejoin="round"/>
<path d="M202 663.5C202 668.5 197.9 672.6 192.9 672.6C187.9 672.6 183.8 668.5 183.8 663.5C183.8 658.5 187.9 654.4 192.9 654.4C197.9 654.4 202 658.5 202 663.5Z" fill="#FF383D"/>
<path opacity="0.15" d="M159.3 408.6C159.3 369.6 127.7 338 88.7001 338C49.7001 338 18.1001 369.6 18.1001 408.6C18.1001 447.6 49.7001 479.2 88.7001 479.2C127.6 479.2 159.3 447.6 159.3 408.6Z" fill="#FF383D"/>
<path d="M58.2 394.5H53.9V406.3H51.3V394.5H47V392.2H58.2V394.5ZM60.1 392.1H62.7V398H69V392.1H71.6V406.2H69V400.2H62.7V406.2H60.1V392.1ZM74.6 392.1H80.2C81.9 392.1 83.2 392.5 84.1 393.2C85 394 85.4 395 85.4 396.5C85.4 397.5 85.2 398.3 84.7 399C84.2 399.7 83.6 400.2 82.8 400.5L85.5 406.2H82.6L80.2 400.9H77.1V406.2H74.5V392.1H74.6ZM80.2 398.8C81 398.8 81.7 398.6 82.1 398.2C82.5 397.8 82.7 397.3 82.7 396.6C82.7 396 82.5 395.4 82 395C81.6 394.6 80.9 394.4 80.1 394.4H77.1V398.7H80.2V398.8ZM101.9 399.2C101.9 400.6 101.6 401.9 100.9 403C100.3 404.1 99.4 405 98.2 405.6C97.1 406.2 95.8 406.5 94.4 406.5C93 406.5 91.7 406.2 90.6 405.6C89.5 405 88.6 404.1 88 403C87.4 401.9 87 400.6 87 399.2C87 397.8 87.3 396.5 88 395.4C88.6 394.3 89.5 393.4 90.6 392.8C91.7 392.2 93 391.9 94.4 391.9C95.8 391.9 97.1 392.2 98.2 392.8C99.3 393.4 100.2 394.3 100.9 395.4C101.5 396.5 101.9 397.8 101.9 399.2ZM99.1 399.2C99.1 398.2 98.9 397.4 98.5 396.6C98.1 395.9 97.5 395.3 96.8 394.9C96.1 394.5 95.3 394.3 94.4 394.3C93.5 394.3 92.7 394.5 92 394.9C91.3 395.3 90.7 395.9 90.3 396.6C89.9 397.3 89.7 398.2 89.7 399.2C89.7 400.2 89.9 401 90.3 401.8C90.7 402.5 91.3 403.1 92 403.5C92.7 403.9 93.5 404.1 94.4 404.1C95.3 404.1 96.1 403.9 96.8 403.5C97.5 403.1 98.1 402.5 98.5 401.8C98.9 401 99.1 400.2 99.1 399.2ZM107.5 392.1H110.1L115.3 406.2H112.6L111.5 403H106L104.8 406.2H102.1L107.5 392.1ZM110.7 400.9L109.8 398.4C109.7 398.2 109.5 397.5 109.1 396.3L108.8 395.4C108.7 395.6 108.6 396 108.4 396.6C108.2 397.2 108 397.8 107.7 398.4L106.8 400.9H110.7ZM125.7 394.5H121.4V406.3H118.8V394.5H114.5V392.2H125.7V394.5V394.5ZM73.7 421.1C75.2 421.1 76.3 421.5 77.2 422.4C78.1 423.2 78.5 424.4 78.5 425.8C78.5 426.7 78.3 427.5 77.9 428.2C77.5 428.9 77 429.4 76.2 429.8C75.5 430.2 74.6 430.4 73.6 430.4H70.4V435.2H67.8V421.1H73.7ZM73.2 428.2C74.1 428.2 74.7 428 75.1 427.5C75.5 427 75.8 426.4 75.8 425.7C75.8 425.1 75.6 424.5 75.1 424.1C74.7 423.6 74 423.4 73.2 423.4H70.4V428.2H73.2ZM83.4 421.1H86L91.2 435.2H88.5L87.4 432H82L80.8 435.2H78.1L83.4 421.1ZM86.6 429.9L85.7 427.4C85.6 427.2 85.4 426.5 85 425.3L84.7 424.4C84.6 424.6 84.5 425 84.3 425.6C84.1 426.2 83.9 426.8 83.6 427.4L82.7 429.9H86.6ZM93 435.2V421.1H95.6V435.2H93ZM110.1 421.1V435.2H107.7L101.2 425.5V435.2H98.6V421.1H101L107.5 430.8V421.1H110.1Z" fill="#FF383D"/>
<path d="M90 320.3C41.2 320.3 1.69995 359.8 1.69995 408.6C1.69995 457.4 41.2 496.9 90 496.9V540.5" stroke="#FFD6D7" stroke-width="2.4" stroke-miterlimit="10"/>
<path d="M97.4 542.8C97.4 538.8 94.1 535.5 90.1 535.5C86.1 535.5 82.8 538.8 82.8 542.8C82.8 546.8 86.1 550.1 90.1 550.1C94.2 550.1 97.4 546.8 97.4 542.8Z" fill="#F2AEB0"/>
<path d="M190.5 423.3H393.8C401.2 423.3 408.2 419.9 412.8 414L455.5 358.9C460 353 467 349.6 474.5 349.6H631.7" stroke="#FFB2B1" stroke-width="5" stroke-linejoin="round"/>
<path d="M200.8 423.8C200.8 428.8 196.7 432.9 191.7 432.9C186.7 432.9 182.6 428.8 182.6 423.8C182.6 418.8 186.7 414.7 191.7 414.7C196.7 414.7 200.8 418.8 200.8 423.8Z" fill="#FF383D"/>
<path opacity="0.13" d="M1160 620.6C1160 581.6 1128.4 550 1089.4 550C1050.4 550 1018.8 581.6 1018.8 620.6C1018.8 659.6 1050.4 691.2 1089.4 691.2C1128.4 691.2 1160 659.6 1160 620.6Z" fill="#FF383D"/>
<path d="M1045.7 604.2C1045.7 603.3 1045.9 602.6 1046.3 601.9C1046.7 601.3 1047.3 600.8 1048.1 600.4C1048.9 600 1049.8 599.9 1050.7 599.9C1051.6 599.9 1052.6 600.1 1053.3 600.4C1054.1 600.7 1054.7 601.2 1055.1 601.9C1055.5 602.5 1055.7 603.3 1055.7 604.1H1053C1053 603.5 1052.7 603 1052.3 602.6C1051.8 602.2 1051.2 602 1050.5 602C1049.8 602 1049.3 602.2 1048.8 602.5C1048.4 602.8 1048.2 603.3 1048.2 603.8C1048.2 604.3 1048.4 604.7 1048.7 605C1049.1 605.3 1049.5 605.4 1050.1 605.6L1052.4 606.2C1053.4 606.5 1054.3 606.9 1054.9 607.6C1055.6 608.3 1055.9 609.1 1055.9 610.2C1055.9 611.1 1055.7 611.9 1055.2 612.5C1054.8 613.2 1054.1 613.7 1053.3 614C1052.5 614.4 1051.6 614.5 1050.5 614.5C1048.9 614.5 1047.6 614.1 1046.6 613.4C1045.6 612.6 1045.1 611.6 1045 610.3H1047.7C1047.7 611 1048 611.5 1048.5 611.9C1049 612.3 1049.7 612.5 1050.5 612.5C1051.3 612.5 1051.9 612.3 1052.4 612C1052.8 611.7 1053.1 611.2 1053.1 610.6C1053.1 610.1 1052.9 609.7 1052.6 609.4C1052.3 609.1 1051.8 608.9 1051.3 608.8L1048.9 608.2C1047.7 607.9 1046.8 607.5 1046.2 606.8C1046 606 1045.7 605.2 1045.7 604.2ZM1058.5 600.1H1061.1V606H1067.4V600.1H1070V614.2H1067.4V608.2H1061.1V614.2H1058.5V600.1ZM1076.9 600.1H1079.5L1084.7 614.2H1082L1080.9 611H1075.5L1074.3 614.2H1071.6L1076.9 600.1ZM1080.1 608.9L1079.2 606.4C1079.1 606.2 1078.9 605.5 1078.5 604.3L1078.2 603.4C1078.1 603.6 1078 604 1077.8 604.6C1077.6 605.2 1077.4 605.8 1077.1 606.4L1076.2 608.9H1080.1ZM1093.2 606.2L1098.1 614.2H1095L1091.5 608.3L1089.2 611.2V614.2H1086.6V600.1H1089.2V607.3L1095 600.1H1098.2L1093.2 606.2ZM1099.9 614.2V600.1H1102.5V614.2H1099.9ZM1117 600.1V614.2H1114.6L1108.1 604.5V614.2H1105.5V600.1H1107.9L1114.4 609.8V600.1H1117ZM1133.6 606.6V607.9C1133.6 609.2 1133.3 610.4 1132.7 611.4C1132.1 612.4 1131.3 613.2 1130.2 613.7C1129.1 614.3 1127.9 614.5 1126.6 614.5C1125.2 614.5 1123.9 614.2 1122.8 613.6C1121.7 613 1120.9 612.2 1120.3 611.1C1119.7 610 1119.4 608.7 1119.4 607.3C1119.4 605.8 1119.7 604.5 1120.3 603.4C1120.9 602.3 1121.8 601.4 1122.9 600.8C1124 600.2 1125.3 599.9 1126.7 599.9C1127.8 599.9 1128.9 600.1 1129.8 600.5C1130.7 600.9 1131.5 601.5 1132.1 602.2C1132.7 602.9 1133.1 603.8 1133.3 604.7H1130.5C1130.2 603.9 1129.7 603.4 1129 602.9C1128.3 602.5 1127.5 602.3 1126.5 602.3C1125.1 602.3 1124 602.8 1123.2 603.7C1122.4 604.6 1122 605.8 1122 607.3C1122 608.8 1122.4 610 1123.2 610.9C1124 611.8 1125.1 612.2 1126.5 612.2C1127.7 612.2 1128.6 611.9 1129.4 611.3C1130.2 610.7 1130.6 609.9 1130.8 608.8H1126.3V606.6H1133.6ZM1063 643.5C1061.6 643.5 1060.3 643.2 1059.2 642.6C1058.1 642 1057.3 641.1 1056.6 640C1055.9 638.9 1055.7 637.6 1055.7 636.2C1055.7 634.8 1056 633.5 1056.6 632.4C1057.2 631.3 1058.1 630.4 1059.2 629.8C1060.3 629.2 1061.6 628.9 1063 628.9C1064.2 628.9 1065.3 629.1 1066.2 629.5C1067.2 629.9 1068 630.5 1068.6 631.2C1069.2 632 1069.6 632.8 1069.8 633.8H1066.9C1066.7 633 1066.2 632.4 1065.5 631.9C1064.8 631.4 1063.9 631.2 1062.9 631.2C1062 631.2 1061.2 631.4 1060.5 631.8C1059.8 632.2 1059.3 632.8 1058.9 633.6C1058.5 634.4 1058.3 635.2 1058.3 636.2C1058.3 637.2 1058.5 638.1 1058.9 638.8C1059.3 639.5 1059.8 640.1 1060.5 640.5C1061.2 640.9 1062 641.1 1062.9 641.1C1063.9 641.1 1064.7 640.9 1065.5 640.4C1066.2 639.9 1066.7 639.3 1066.9 638.5H1069.8C1069.6 639.5 1069.2 640.4 1068.6 641.1C1068 641.9 1067.2 642.5 1066.2 642.9C1065.3 643.3 1064.2 643.5 1063 643.5ZM1072.2 629.1H1074.8V635H1081.1V629.1H1083.7V643.2H1081.1V637.2H1074.8V643.2H1072.2V629.1ZM1086.6 643.2V629.1H1089.2V643.2H1086.6ZM1100.7 640.9V643.2H1092.3V629.1H1094.9V640.9H1100.7V640.9ZM1111.2 640.9V643.2H1102.8V629.1H1105.4V640.9H1111.2V640.9ZM1112.8 633.2C1112.8 632.3 1113 631.6 1113.4 630.9C1113.8 630.3 1114.4 629.8 1115.2 629.4C1116 629 1116.9 628.9 1117.8 628.9C1118.8 628.9 1119.7 629.1 1120.4 629.4C1121.2 629.7 1121.8 630.2 1122.2 630.9C1122.6 631.5 1122.8 632.3 1122.8 633.1H1120.2C1120.2 632.5 1119.9 632 1119.5 631.6C1119 631.2 1118.4 631 1117.7 631C1117 631 1116.5 631.2 1116 631.5C1115.6 631.8 1115.4 632.3 1115.4 632.8C1115.4 633.3 1115.6 633.7 1115.9 634C1116.3 634.3 1116.7 634.4 1117.3 634.6L1119.6 635.2C1120.7 635.5 1121.5 635.9 1122.2 636.6C1122.9 637.3 1123.2 638.1 1123.2 639.2C1123.2 640.1 1123 640.9 1122.5 641.5C1122.1 642.2 1121.4 642.7 1120.6 643C1119.8 643.4 1118.9 643.5 1117.8 643.5C1116.2 643.5 1114.9 643.1 1113.9 642.4C1112.9 641.6 1112.4 640.6 1112.3 639.3H1115C1115 640 1115.3 640.5 1115.8 640.9C1116.3 641.3 1117 641.5 1117.8 641.5C1118.6 641.5 1119.2 641.3 1119.7 641C1120.2 640.7 1120.4 640.2 1120.4 639.6C1120.4 639.1 1120.2 638.7 1119.9 638.4C1119.6 638.1 1119.1 637.9 1118.6 637.8L1116.2 637.2C1115 636.9 1114.1 636.5 1113.5 635.8C1113.2 635 1112.8 634.2 1112.8 633.2Z" fill="#FA5652"/>
<path d="M1089.9 534.1C1041.1 534.1 1001.6 573.6 1001.6 622.4C1001.6 671.2 1041.1 710.7 1089.9 710.7V754.3" stroke="#FFD6D7" stroke-width="2.4" stroke-miterlimit="10"/>
<path d="M1097.1 756.5C1097.1 752.5 1093.8 749.2 1089.8 749.2C1085.8 749.2 1082.5 752.5 1082.5 756.5C1082.5 760.5 1085.8 763.8 1089.8 763.8C1093.9 763.8 1097.1 760.5 1097.1 756.5Z" fill="#F2AEB0"/>
<path d="M725.7 674.7H816.8C824.1 674.7 831 671.4 835.5 665.7L861 633.9C865.6 628.2 872.4 624.9 879.7 624.9H974" stroke="#FFA6A6" stroke-width="5" stroke-linejoin="round"/>
<path d="M979.9 624.2C979.9 629.2 975.8 633.3 970.8 633.3C965.8 633.3 961.7 629.2 961.7 624.2C961.7 619.2 965.8 615.1 970.8 615.1C975.8 615.1 979.9 619.1 979.9 624.2Z" fill="#FF383D"/>
<path opacity="0.15" d="M1160 134.6C1160 95.6 1128.4 64 1089.4 64C1050.4 64 1018.8 95.6 1018.8 134.6C1018.8 173.6 1050.4 205.2 1089.4 205.2C1128.4 205.2 1160 173.6 1160 134.6Z" fill="#FF383D"/>
<path d="M1036.6 131.1H1039.2V137H1045.5V131.1H1048.1V145.2H1045.5V139.2H1039.2V145.2H1036.6V131.1ZM1053.6 133.5V137H1059.4V139.2H1053.6V142.8H1060V145.2H1051V131.1H1060V133.5H1053.6ZM1066.7 131.1H1069.3L1074.5 145.2H1071.8L1070.7 142H1065.3L1064.1 145.2H1061.4L1066.7 131.1ZM1069.9 139.9L1069 137.4C1068.9 137.2 1068.7 136.5 1068.3 135.3L1068 134.4C1067.9 134.6 1067.8 135 1067.6 135.6C1067.4 136.2 1067.2 136.8 1067 137.4L1066.1 139.9H1069.9ZM1081.6 131.1C1083 131.1 1084.2 131.4 1085.3 132C1086.4 132.6 1087.2 133.4 1087.8 134.5C1088.4 135.6 1088.7 136.8 1088.7 138.2C1088.7 139.6 1088.4 140.8 1087.8 141.8C1087.2 142.9 1086.4 143.7 1085.3 144.3C1084.2 144.9 1083 145.2 1081.6 145.2H1076.4V131.1H1081.6ZM1081.3 142.9C1082.2 142.9 1083 142.7 1083.7 142.3C1084.4 141.9 1084.9 141.4 1085.3 140.7C1085.7 140 1085.9 139.2 1085.9 138.3C1085.9 137.4 1085.7 136.5 1085.3 135.8C1084.9 135.1 1084.4 134.5 1083.7 134.1C1083 133.7 1082.2 133.5 1081.3 133.5H1078.9V142.9H1081.3V142.9ZM1094.3 131.1H1096.9L1102.1 145.2H1099.4L1098.3 142H1092.9L1091.7 145.2H1089L1094.3 131.1ZM1097.5 139.9L1096.6 137.4C1096.5 137.2 1096.3 136.5 1095.9 135.3L1095.6 134.4C1095.5 134.6 1095.4 135 1095.2 135.6C1095 136.2 1094.8 136.8 1094.5 137.4L1093.6 139.9H1097.5ZM1109.7 145.5C1108.3 145.5 1107 145.2 1105.9 144.6C1104.8 144 1104 143.1 1103.3 142C1102.7 140.9 1102.4 139.6 1102.4 138.2C1102.4 136.8 1102.7 135.5 1103.3 134.4C1103.9 133.3 1104.8 132.4 1105.9 131.8C1107 131.2 1108.3 130.9 1109.7 130.9C1110.9 130.9 1112 131.1 1112.9 131.5C1113.9 131.9 1114.7 132.5 1115.3 133.2C1115.9 134 1116.4 134.8 1116.5 135.8H1113.6C1113.4 135 1112.9 134.4 1112.2 133.9C1111.5 133.4 1110.6 133.2 1109.6 133.2C1108.7 133.2 1107.9 133.4 1107.2 133.8C1106.5 134.2 1106 134.8 1105.6 135.6C1105.2 136.4 1105 137.2 1105 138.2C1105 139.2 1105.2 140.1 1105.6 140.8C1106 141.5 1106.5 142.1 1107.2 142.5C1107.9 142.9 1108.7 143.1 1109.6 143.1C1110.6 143.1 1111.4 142.9 1112.2 142.4C1112.9 141.9 1113.4 141.3 1113.6 140.5H1116.5C1116.3 141.5 1115.9 142.4 1115.3 143.1C1114.7 143.9 1113.9 144.4 1112.9 144.9C1112 145.3 1110.9 145.5 1109.7 145.5ZM1118.9 131.1H1121.5V137H1127.8V131.1H1130.4V145.2H1127.8V139.2H1121.5V145.2H1118.9V131.1ZM1136 133.5V137H1141.8V139.2H1136V142.8H1142.4V145.2H1133.4V131.1H1142.4V133.5H1136Z" fill="#FF383D"/>
<path d="M1089.9 47.9C1041.1 47.9 1001.6 87.4 1001.6 136.2C1001.6 185 1041.1 224.5 1089.9 224.5V268.1" stroke="#FFD6D7" stroke-width="2.4" stroke-miterlimit="10"/>
<path d="M1097.1 270.3C1097.1 266.3 1093.8 263 1089.8 263C1085.8 263 1082.5 266.3 1082.5 270.3C1082.5 274.3 1085.8 277.6 1089.8 277.6C1093.8 277.6 1097.1 274.3 1097.1 270.3Z" fill="#F2AEB0"/>
<path d="M975.8 143.1H849.6C843.5 143.1 837.6 145.4 833.1 149.6L804.6 176.5C800.1 180.7 794.3 183 788.1 183H674.1" stroke="#FFB2B1" stroke-width="5" stroke-linejoin="round"/>
<path d="M979.9 142.4C979.9 147.4 975.8 151.5 970.8 151.5C965.8 151.5 961.7 147.4 961.7 142.4C961.7 137.4 965.8 133.3 970.8 133.3C975.9 133.3 979.9 137.4 979.9 142.4Z" fill="#FF383D"/>
<defs>
<linearGradient id="paint0_linear" x1="399.368" y1="512.114" x2="463.619" y2="640.487" gradientUnits="userSpaceOnUse">
<stop stop-color="#FFC8C8"/>
<stop offset="1" stop-color="#FFF2F5"/>
</linearGradient>
<linearGradient id="paint1_linear" x1="846.191" y1="329.988" x2="324.522" y2="119.726" gradientUnits="userSpaceOnUse">
<stop stop-color="white"/>
<stop offset="1" stop-color="#FFD5D5"/>
</linearGradient>
<linearGradient id="paint2_linear" x1="846.754" y1="56.7638" x2="685.681" y2="30.1948" gradientUnits="userSpaceOnUse">
<stop stop-color="#FFD3D3"/>
<stop offset="1" stop-color="#FFF6F6"/>
</linearGradient>
<linearGradient id="paint3_linear" x1="205.431" y1="372.379" x2="962.765" y2="372.379" gradientUnits="userSpaceOnUse">
<stop stop-color="#FFF8F5"/>
<stop offset="1" stop-color="#FFDEDE"/>
</linearGradient>
<linearGradient id="paint4_linear" x1="891.552" y1="513.974" x2="693.166" y2="532.258" gradientUnits="userSpaceOnUse">
<stop stop-color="#FFC2C2"/>
<stop offset="1" stop-color="white"/>
</linearGradient>
</defs>
</svg>
