<svg width="539" height="554" viewBox="0 0 539 554" fill="none" xmlns="http://www.w3.org/2000/svg">
<g clip-path="url(#clip0)">
<path d="M195.4 539.5C164.8 550.3 134 555.3 101 549.1C64.2999 542.1 32.4999 510.7 14.4999 479.4C7.79989 467.8 2.49989 454.8 3.19989 441.4C4.79989 410.4 33.9999 407 58.7999 412C72.7999 414.8 85.5999 421.2 98.2999 427.6C119.4 438.1 144.1 443.3 163 457.9C169.3 462.8 174.1 468.7 181.5 472.3C193 477.9 206.1 480.5 217.8 485.6C227.9 489.9 239.1 497.1 239.1 508.1C239.1 519.3 227.4 526.5 217.1 531C209.9 534 202.6 536.9 195.4 539.5Z" fill="url(#paint0_linear)"/>
<path d="M82.8 140.4C132.9 66.6 236.4 37 320.4 64.7C360.9 78.1 394.8 106 426.1 134.9C453.7 160.4 480.4 187.9 499.3 220.7C512.2 243.1 521.4 269.9 527.9 295C537.6 332.5 528.8 380.8 480.3 377.3C468.9 376.5 459.1 372.4 448.4 368.8C439.8 365.9 431.4 367.6 422.4 366.2C399.9 362.6 378.3 354.4 357.8 344.7C316.1 324.9 277.9 298 235 280.7C199.8 266.5 162.2 259.2 124.3 259.1C108.3 259.1 91.5 260.2 77.2 253C41.9 235.3 57.8 187.7 71 161C74.4 153.8 78.4 146.9 82.8 140.4Z" fill="url(#paint1_linear)"/>
<path d="M475.5 151.5C483.7 159 516.1 179.4 516.8 155.4C516.9 149.4 514.2 143.7 510.6 139.3C506.4 134.3 501.6 131.7 498.3 125.8C494.3 118.8 489.7 112.1 484.6 106C474.2 93.3 462.1 81.5 447.4 76.3C437.1 72.6 419.6 73.6 414.7 86.8C407.6 106 438.1 109.6 447.4 116.6C456.2 123.2 461.2 134.6 468.2 143.7C470.4 146.5 472.9 149.1 475.5 151.5Z" fill="url(#paint2_linear)"/>
<path d="M323 128.1C340.5 138.4 353.6 153.8 369.5 166.2C396 186.8 432.3 191.1 462.7 205.4C493.7 220 517.1 242.8 527.7 275.6C541.4 317.9 542.7 368.3 531.1 411.8C518.3 459.7 488.3 491.5 444.3 512.7C400.4 533.9 351.8 543.8 303.3 545.8C298.6 546 293.9 546.1 289.3 546.1C183.9 546.8 43.7 509.7 7.80002 396.5C7.50002 395.5 7.20002 394.4 6.80002 393.4C3.10002 380.8 0.900016 367.8 0.300016 354.7C-1.99998 308.2 6.20002 256.8 22.5 213.2C33.5 183.8 57.1 159 82 141.3C117 116.4 159.7 110.1 202.2 107.1C233.7 104.9 269 104.1 298.8 116.1C307.2 119.5 315.3 123.5 323 128.1Z" fill="url(#paint3_linear)"/>
<path d="M396.4 536.1C261.3 575.4 148.8 537.5 109.4 513.7L72.7998 485.7L85.4998 464.7L164.3 457.7L295.1 450.7L400.6 471.7L510.3 435.2H521.6C504.7 492.4 431.1 526.3 396.4 536.1Z" fill="#FB4C47"/>
<path d="M102.9 504.6H436.3C436.3 504.6 448 312.9 405.5 284.9C363 256.9 173.6 266.5 132.3 294.8C27.2998 366.5 102.9 504.6 102.9 504.6Z" fill="#FB4C47"/>
<path d="M158.4 244.5C157.9 244.5 157.4 244.3 157 244C156.1 243.3 134.7 225.3 146.4 189C150.5 176.3 154.5 167.3 158 159.4C164.4 145.1 169 134.8 169.8 112.8C169.8 111.6 170.9 110.7 172.1 110.7C173.3 110.8 174.2 111.8 174.2 113C173.3 135.9 168.3 147.1 162 161.2C158.5 169 154.6 177.9 150.5 190.3C139.8 223.6 158.9 239.9 159.7 240.6C160.6 241.4 160.8 242.7 160 243.7C159.7 244.3 159 244.5 158.4 244.5Z" fill="#000C3E"/>
<path d="M276.7 28.2999C276.1 43.2999 263.5 55.0999 248.4 54.4999C233.4 53.8999 221.6 41.2999 222.2 26.1999C222.8 11.1999 235.4 -0.600066 250.5 -6.6394e-05C265.6 0.599934 277.3 13.1999 276.7 28.2999Z" fill="#000C3E"/>
<path d="M156 234C156 234 164 250.5 196.7 256.3C229.4 262.1 255 250.3 280.2 259.4C305.4 268.5 341.8 256.6 349.1 246C356.3 235.4 354.8 118.1 334.9 98.4C315 78.7 210.8 62.3 188.3 85.3C165.6 108.4 141.7 220.7 156 234Z" fill="#000C3E"/>
<path d="M344.5 141.4C342.6 191 300.9 229.7 251.4 227.8C201.8 225.9 163.1 184.2 165 134.7C166.9 85.1 208.6 46.4 258.1 48.3C307.7 50.1 346.4 91.8 344.5 141.4Z" fill="#000C3E"/>
<path d="M291.6 216.5C291.6 216.5 297.4 286.5 291.6 294.2C285.8 302 248.8 296.1 239.1 294.2C229.4 292.3 225.5 216.5 231.3 216.5C237.2 216.5 290.5 200.9 291.6 216.5Z" fill="#FFCEB0"/>
<path d="M181.4 134.7C181.4 134.7 185.1 243.8 258.8 248.5C332.5 253.2 332.5 99.5999 305.8 84.8999C279.1 70.1999 167.8 72.9999 181.4 134.7Z" fill="#FFCEB0"/>
<path d="M257.1 158C257.1 158 271.2 191.6 267.6 193.8C264 196 253.4 195.6 250.5 193.2C247.6 190.7 251.4 154.2 257.1 158Z" fill="#EE9B68"/>
<path d="M239.5 76.5C239.5 76.5 213.1 89.3 208 113.3C203 137.3 205.6 198.8 177.6 195.9C177.6 195.9 123.3 74.3 239.5 76.5Z" fill="#000C3E"/>
<path d="M253.4 77C251 78.7 280.7 78.6 297.6 99.2C314.6 119.8 318.6 171.1 321.2 172.1C323.8 173.1 334.3 108.4 315.7 89C297.1 69.6 267 67.2 253.4 77Z" fill="#000C3E"/>
<path d="M232.4 238.5C232.4 238.5 261.1 254.8 290.9 239.6C290.9 239.6 293.2 257.9 290.9 262.1C288.6 266.3 241.4 269.3 232.1 248.5C232.1 248.5 229.7 237.6 232.4 238.5Z" fill="#EE9B68"/>
<path d="M314.9 176.5C314.9 176.5 322 149.2 334.3 158.9C346.6 168.6 335.5 197.1 323.3 199.7C311.1 202.3 308.1 190.6 314.9 176.5Z" fill="#FFCEB0"/>
<path d="M198.6 172.1C198.6 172.1 193.6 144.3 180.6 153.1C167.6 161.9 176.6 191.2 188.5 194.6C200.4 198.2 204.2 186.7 198.6 172.1Z" fill="#FFCEB0"/>
<path d="M284.5 142.7C284.5 142.7 296.7 134.5 305.8 143.5C313.7 151.4 297 146.1 291.2 147.8C285.3 149.5 277.5 149.8 284.5 142.7Z" fill="#41294A"/>
<path d="M233.4 144.6C233.4 144.6 221.7 135.7 212.1 144.1C203.7 151.5 220.8 147.2 226.4 149.3C232.2 151.4 240 152.2 233.4 144.6Z" fill="#41294A"/>
<path d="M227.5 153.7C216.1 153.7 206.9 162.6 206.4 174C206 185.6 215.1 195.4 226.7 195.9H227.5C238.9 195.9 248.1 187 248.6 175.6C249 164 239.9 154.1 228.3 153.7H227.5ZM227.6 198.8H226.7C213.5 198.3 203.1 187.1 203.6 173.9C204.1 160.9 214.6 150.8 227.6 150.8H228.5C241.7 151.3 252.1 162.5 251.6 175.7C251.1 188.7 240.5 198.8 227.6 198.8Z" fill="#FFFCF6"/>
<path d="M287.4 150.3C276 150.3 266.8 159.2 266.3 170.6C266.1 176.2 268.1 181.6 271.9 185.7C275.7 189.8 281 192.2 286.6 192.4H287.4C298.8 192.4 308 183.5 308.5 172.1C308.7 166.5 306.7 161.1 302.9 157C299.1 152.9 293.9 150.5 288.2 150.3H287.4ZM287.5 195.5H286.6C280.2 195.3 274.3 192.5 269.9 187.8C265.5 183.1 263.3 177 263.5 170.6C264 157.6 274.5 147.5 287.5 147.5H288.4C294.8 147.7 300.7 150.5 305.1 155.2C309.5 159.9 311.7 166 311.5 172.4C311 185.3 300.4 195.5 287.5 195.5Z" fill="#FFFCF6"/>
<path d="M205.7 170.6C205.5 170.6 205.3 170.6 205.2 170.5L196.4 167C195.7 166.7 195.3 165.9 195.6 165.1C195.9 164.4 196.7 164 197.5 164.3L206.3 167.8C207 168.1 207.4 168.9 207.1 169.7C206.8 170.3 206.3 170.6 205.7 170.6Z" fill="#FFFCF6"/>
<path d="M309.2 166.8C308.6 166.8 308 166.4 307.8 165.7C307.6 164.9 308 164.1 308.8 163.9L321 160.4C321.8 160.2 322.6 160.6 322.8 161.4C323 162.2 322.6 163 321.8 163.2L309.6 166.7C309.4 166.8 309.3 166.8 309.2 166.8Z" fill="#FFFCF6"/>
<path d="M248.4 70.7999C248.4 70.7999 251.7 129.9 268 135.3C284.3 140.7 324.4 139.2 326.3 132.7C328.2 126.2 295.2 74.1999 271.6 65.8999C230.1 51.2999 194.2 118.8 199 135C203.7 151.3 239.4 137 247 134.9C254.6 132.8 246.9 82.4999 248.4 70.7999Z" fill="#000C3E"/>
<path d="M250.1 175.8C249.3 175.8 248.7 175.2 248.7 174.5C248.6 173.7 249.2 173 250 172.9L264.9 171.7C265.8 171.6 266.4 172.2 266.5 173C266.6 173.8 266 174.5 265.2 174.6L250.3 175.8C250.2 175.8 250.1 175.8 250.1 175.8Z" fill="#FFFCF6"/>
<path d="M232.5 54.4999C232.2 54.4999 231.8 54.3999 231.5 54.2999C223.5 50.1999 218.8 44.4999 217.4 37.2999C214.3 21.4999 228.7 4.59993 229.3 3.89993C230.1 2.99993 231.4 2.89993 232.4 3.69993C233.3 4.49993 233.4 5.79993 232.6 6.79993C232.5 6.99993 219 22.8999 221.7 36.5999C222.8 42.3999 226.8 47.0999 233.6 50.5999C234.7 51.1999 235.1 52.4999 234.5 53.4999C234 54.0999 233.3 54.4999 232.5 54.4999Z" fill="#000C3E"/>
<path d="M263.9 59.3999C263.3 59.3999 262.7 59.0999 262.2 58.5999C261.4 57.6999 261.6 56.2999 262.5 55.4999C262.7 55.3999 278.5 41.8999 278.2 27.8999C278 21.9999 274.9 16.6999 268.8 12.0999C267.8 11.3999 267.6 9.99994 268.4 9.09994C269.1 8.09994 270.5 7.89993 271.4 8.69993C278.6 14.0999 282.3 20.4999 282.5 27.7999C282.9 43.8999 266 58.1999 265.3 58.7999C264.9 59.1999 264.4 59.3999 263.9 59.3999Z" fill="#000C3E"/>
<path d="M341.8 242.7C341.2 242.7 340.5 242.4 340.1 241.9C339.4 241 339.5 239.6 340.5 238.9C341.2 238.3 358.8 224.3 354.2 200.7C352.4 191.4 349.1 181.2 345.6 170.3C339.5 151.4 333.2 131.9 333.1 113C333.1 111.8 334.1 110.8 335.3 110.8C336.5 110.8 337.5 111.8 337.5 113C337.6 131.2 343.8 150.4 349.8 169C353.3 180 356.7 190.3 358.5 199.9C363.6 226.2 344 241.8 343.2 242.4C342.7 242.6 342.2 242.7 341.8 242.7Z" fill="#000C3E"/>
<path d="M349 143.6C348.9 143.6 348.8 143.6 348.7 143.6C347.5 143.5 346.7 142.4 346.8 141.2C349.7 117.3 345.2 97.8001 333.3 83.2001C314.1 59.6001 282 56.7001 281.6 56.7001C280.4 56.6001 279.5 55.5001 279.6 54.3001C279.7 53.1001 280.8 52.2001 281.9 52.3001C283.3 52.4001 316.2 55.4001 336.5 80.4001C349.2 96.0001 354.1 116.6 351 141.7C351 142.8 350.1 143.6 349 143.6Z" fill="#000C3E"/>
<path d="M260.5 228.4C256.4 228.4 253.3 227.1 253.1 227C252 226.5 251.5 225.3 251.9 224.2C252.4 223.1 253.7 222.6 254.7 223C254.8 223 260.7 225.4 265.9 222.8C267 222.3 268.3 222.7 268.8 223.8C269.3 224.9 268.9 226.2 267.8 226.7C265.4 228 262.8 228.4 260.5 228.4Z" fill="#EE9B68"/>
<path d="M191.1 187.9C190.9 187.9 190.7 187.9 190.5 187.8C189.3 187.5 188.7 186.2 189.1 185.1C193.1 172.1 183.6 163.5 183.5 163.4C182.6 162.6 182.5 161.2 183.3 160.3C184.1 159.4 185.5 159.3 186.4 160.1C186.9 160.5 198 170.7 193.3 186.3C192.9 187.3 192 187.9 191.1 187.9Z" fill="#EE9B68"/>
<path d="M319.9 194.3C319.8 194.3 319.8 194.3 319.7 194.3C318.5 194.2 317.6 193.1 317.7 191.9C319.1 175.6 327.2 167 327.6 166.7C328.4 165.8 329.8 165.8 330.7 166.6C331.6 167.4 331.6 168.8 330.8 169.7C330.7 169.8 323.4 177.6 322.1 192.3C321.9 193.4 321 194.3 319.9 194.3Z" fill="#EE9B68"/>
<path d="M193.3 291.2C193.3 291.2 242.6 350.2 280.7 334.4C318.7 318.6 354.4 275.9 335.2 270.2C316.1 264.5 163.4 267.5 193.3 291.2Z" fill="#FFCEB0"/>
<path d="M325.7 211.7C325.7 211.7 340.6 319.5 326.7 331.7C312.8 343.9 295.2 333.2 271.6 341.3C248 349.4 247.2 316.6 248.8 299.8C250.3 283 258 176.2 325.7 211.7Z" fill="white"/>
<path d="M61.8001 378.6L32.6001 464.8L245.3 536.8C245.3 536.8 277.8 454.2 273.7 452.8C269.7 451.5 61.8001 378.6 61.8001 378.6Z" fill="#128E5A"/>
<path d="M103.9 482.9C103.9 482.9 140.3 457.8 139 464.2C137.7 470.6 123.7 482.9 123.7 482.9C123.7 482.9 149.2 463.1 150.9 473C152.6 482.9 143.6 492.3 143.6 492.3C143.6 492.3 161.6 478 164.5 485.4C167.4 492.8 144.2 525.6 123.7 524.6C103.1 523.6 93.8 489.6 103.9 482.9Z" fill="#FFC6A6"/>
<path d="M117.3 434.4L196.9 466.8C196.9 466.8 210.8 424.7 208.2 419.8C205.6 414.9 176.9 413.1 169 405.4C161.1 397.7 164 388.2 150.8 389.9C137.7 391.5 117.3 434.4 117.3 434.4Z" fill="white"/>
<path d="M262.5 221.3C262.3 221.3 262 221.3 261.8 221.2C255.5 218.9 252.4 216.1 252.3 212.6C252.1 207 260.1 203.2 261.7 202.5C262.8 202 264.1 202.5 264.6 203.6C265.1 204.7 264.6 206 263.5 206.5C260.6 207.8 256.6 210.6 256.7 212.4C256.7 212.9 257.3 214.8 263.4 217C264.5 217.4 265.1 218.7 264.7 219.8C264.2 220.7 263.3 221.3 262.5 221.3Z" fill="#EE9B68"/>
<path d="M236.3 179.8C235.8 179.8 235.3 179.6 234.9 179.3C225.8 171.3 219.4 173.4 219.2 173.5C218.1 173.9 216.8 173.3 216.4 172.2C216 171.1 216.5 169.8 217.6 169.4C218 169.3 226.5 166.1 237.8 176C238.7 176.8 238.8 178.2 238 179.1C237.5 179.6 236.9 179.8 236.3 179.8Z" fill="#41294A"/>
<path d="M280.9 180.3C280.3 180.3 279.7 180.1 279.3 179.6C278.5 178.7 278.6 177.3 279.5 176.5C290.7 166.6 299.3 169.8 299.6 169.9C300.7 170.3 301.3 171.6 300.8 172.7C300.4 173.8 299.1 174.4 298 173.9C297.7 173.8 291.3 171.7 282.3 179.7C282 180.1 281.4 180.3 280.9 180.3Z" fill="#41294A"/>
<path d="M421.9 472.6C421.9 472.6 448.6 506.6 489.8 482.3C533.4 445.5 543.2 397.4 525.3 360.9C502.3 322.2 445.5 279.6 431 279.6C416.5 279.7 365.8 417.7 421.9 472.6Z" fill="#D9423D"/>
<path d="M369.1 223.9C369.1 223.9 312.7 199.8 291.8 205.3C270.9 210.9 311.4 216.2 319.7 220.2C327.9 224.2 289.5 217.6 284.7 220.6C279.9 223.6 319.7 234.9 319.7 234.9C319.7 234.9 284.4 233.9 282 239.2C279.6 244.5 314.5 250.6 314.5 250.6C314.5 250.6 287.9 255 288.7 260.7C289.4 266.4 338.5 264.6 354.5 284.9C370.5 305.2 393.2 415.9 460.5 405.7C527.8 395.6 527.1 354.1 478.6 300.9C430 247.8 388.7 233.3 369.1 223.9Z" fill="#FFC6A6"/>
<path d="M259.6 8.60004C258.9 8.60004 258.2 8.70004 257.5 8.80004C255.6 9.20004 254.4 10.1 253.7 11.7C250.5 18.7 257.3 35.5 262.2 45.4C265.2 34.4 268.8 16.1 263.7 10.3C262.7 9.20004 261.4 8.60004 259.6 8.60004ZM262.8 53.7C262 53.7 261.2 53.3 260.8 52.5C259.1 49.4 244.1 21.8 249.6 9.80004C250.9 6.90004 253.4 5.00004 256.6 4.40004C262.2 3.30004 265.4 5.30004 267.1 7.30004C276 17.3 266.1 48.6 264.9 52.1C264.6 53 263.9 53.6 263 53.6C262.9 53.7 262.8 53.7 262.8 53.7Z" fill="#FFD310"/>
<path d="M290.2 19.8001C290 19.8001 289.8 19.8001 289.6 19.8001C281.9 20.8001 272.7 37.1001 267.8 47.4001C278 43.1001 294.1 34.9001 296.3 27.5001C296.8 25.8001 296.5 24.3001 295.3 22.8001C293.6 20.8001 292 19.8001 290.2 19.8001ZM263.4 53.8001C262.8 53.8001 262.2 53.6001 261.8 53.1001C261.2 52.4001 261 51.5001 261.3 50.7001C262.7 47.3001 275.7 17.1001 289 15.4001C291.5 15.1001 295.3 15.6001 298.8 20.1001C300.9 22.7001 301.5 25.8001 300.6 28.8001C296.9 41.5001 267.5 52.5001 264.2 53.7001C263.9 53.8001 263.7 53.8001 263.4 53.8001Z" fill="#FFD310"/>
<path d="M220.8 45.8C231.8 52.9 257 58.4 276.7 45.8" stroke="#FFD310" stroke-width="4.87"/>
</g>
<defs>
<linearGradient id="paint0_linear" x1="103.198" y1="416.044" x2="134.916" y2="526.179" gradientUnits="userSpaceOnUse">
<stop stop-color="#FFCBCB"/>
<stop offset="1" stop-color="#FFF1F1"/>
</linearGradient>
<linearGradient id="paint1_linear" x1="434.088" y1="267.329" x2="105.893" y2="115.103" gradientUnits="userSpaceOnUse">
<stop stop-color="white"/>
<stop offset="1" stop-color="#FFDDDD"/>
</linearGradient>
<linearGradient id="paint2_linear" x1="517.843" y1="154.685" x2="424.694" y2="84.8203" gradientUnits="userSpaceOnUse">
<stop stop-color="#FFDDDD"/>
<stop offset="1" stop-color="#FFFBFC"/>
</linearGradient>
<linearGradient id="paint3_linear" x1="500.247" y1="480.565" x2="10.6078" y2="197.017" gradientUnits="userSpaceOnUse">
<stop stop-color="#FFE6E6"/>
<stop offset="1" stop-color="#FFF5F5"/>
</linearGradient>
<clipPath id="clip0">
<rect width="539" height="553.1" fill="white"/>
</clipPath>
</defs>
</svg>
