<svg width="532" height="572" viewBox="0 0 532 572" fill="none" xmlns="http://www.w3.org/2000/svg">
<g clip-path="url(#clip0)">
<path d="M192.5 557.8C162.4 568.5 132 573.4 99.4999 567.2C63.2999 560.3 31.9999 529.4 14.1999 498.5C7.59988 487 2.39988 474.2 3.09988 461C4.69988 430.5 33.4999 427.1 57.9999 432C71.7999 434.8 84.3999 441.1 96.9999 447.3C117.8 457.7 142.1 462.8 160.8 477.2C167.1 482 171.7 487.9 179 491.4C190.3 496.9 203.2 499.5 214.8 504.5C224.7 508.8 235.8 515.8 235.8 526.6C235.8 537.7 224.3 544.7 214.1 549.1C206.8 552.4 199.7 555.3 192.5 557.8Z" fill="url(#paint0_linear)"/>
<path d="M81.6001 164.4C131 91.7001 233 62.5001 315.8 89.9001C355.7 103.1 389.1 130.6 420 159.1C447.2 184.2 473.5 211.3 492.1 243.7C504.8 265.8 513.8 292.2 520.2 316.9C529.8 353.9 521.1 401.5 473.3 398C462.1 397.2 452.4 393.2 441.9 389.6C433.4 386.7 425.1 388.5 416.3 387.1C394.1 383.6 372.8 375.4 352.6 365.9C311.5 346.4 273.9 319.9 231.6 302.8C196.9 288.8 159.9 281.6 122.5 281.5C106.7 281.5 90.1001 282.6 76.0001 275.5C41.2001 258.1 56.9001 211.2 69.9001 184.8C73.3001 177.7 77.2001 170.9 81.6001 164.4Z" fill="url(#paint1_linear)"/>
<path d="M468.6 175.4C476.7 182.8 508.6 202.8 509.3 179.3C509.4 173.4 506.8 167.7 503.2 163.4C499.1 158.5 494.4 155.9 491.1 150.1C487.1 143.2 482.6 136.6 477.6 130.6C467.4 118.1 455.4 106.5 441 101.3C430.8 97.7 413.6 98.6 408.8 111.6C401.8 130.6 431.8 134 441 140.9C449.7 147.4 454.6 158.7 461.5 167.6C463.6 170.5 466 173.1 468.6 175.4Z" fill="url(#paint2_linear)"/>
<path d="M318.3 152.4C335.5 162.5 348.4 177.7 364.1 189.9C390.2 210.2 426 214.4 456 228.5C486.5 242.9 509.6 265.3 520 297.7C533.5 339.4 534.8 389 523.3 431.9C510.7 479.1 481.1 510.5 437.8 531.4C394.5 552.3 346.6 562.1 298.8 564.1C294.2 564.3 289.6 564.4 285 564.4C181.2 565 43.0001 528.4 7.70006 416.9C7.40006 415.9 7.10007 414.9 6.80007 413.8C3.20007 401.4 1.00007 388.6 0.400065 375.6C-1.79993 329.7 6.20006 279.1 22.3001 236.1C33.1001 207.2 56.4001 182.7 80.9001 165.2C115.4 140.7 157.4 134.4 199.3 131.5C230.3 129.3 265.2 128.5 294.5 140.4C302.7 143.9 310.7 147.8 318.3 152.4Z" fill="url(#paint3_linear)"/>
<path d="M390.7 554.5C257.6 593.2 146.7 555.9 107.9 532.4L71.8999 504.8L84.2999 484L161.9 477.1L290.8 470.2L394.8 490.9L502.9 455H514C497.4 511.3 424.9 544.8 390.7 554.5Z" fill="#FB4C47"/>
<path d="M116.2 479.7H433.1C433.1 479.7 444.2 297.5 403.8 270.8C363.4 244.1 174.7 249.7 132.8 272.5C91 295.3 116.2 479.7 116.2 479.7Z" fill="#FB4C47"/>
<path d="M169 232.5C168.5 232.5 168.1 232.4 167.7 232C166.8 231.3 146.5 214.2 157.6 179.7C161.5 167.6 165.3 159.1 168.6 151.6C174.7 138 179 128.2 179.8 107.3C179.8 106.2 180.7 105.3 181.9 105.3C183 105.3 183.9 106.3 183.9 107.4C183 129.1 178.3 139.8 172.3 153.2C169 160.6 165.2 169.1 161.4 180.9C151.1 212.7 170 228.6 170.2 228.7C171.1 229.4 171.2 230.7 170.5 231.6C170.2 232.2 169.6 232.5 169 232.5Z" fill="#000C3E"/>
<path d="M281.5 26.9001C281 41.2001 268.9 52.4001 254.6 51.8001C240.3 51.3001 229.1 39.2001 229.7 24.9001C230.2 10.6001 242.3 -0.599923 256.6 7.71564e-05C270.8 0.600077 282 12.6001 281.5 26.9001Z" fill="#000C3E"/>
<path d="M166.7 222.4C166.7 222.4 174.3 238.1 205.3 243.6C236.3 249.1 260.7 237.9 284.7 246.6C308.7 255.3 343.3 244 350.2 233.9C357.1 223.8 355.6 112.3 336.7 93.5999C317.8 74.8999 218.8 59.2999 197.3 81.1999C175.8 103 153 209.8 166.7 222.4Z" fill="#000C3E"/>
<path d="M345.9 134.4C344.1 181.5 304.5 218.3 257.4 216.5C210.3 214.7 173.5 175.1 175.3 128C177.1 80.9 216.7 44.1 263.8 45.9C310.9 47.6 347.7 87.3 345.9 134.4Z" fill="#000C3E"/>
<path d="M295.6 205.8C295.6 205.8 301.1 272.3 295.6 279.7C290.1 287.1 255 281.5 245.7 279.7C236.5 277.9 232.8 205.8 238.3 205.8C243.9 205.8 294.5 191 295.6 205.8Z" fill="#FFCEB0"/>
<path d="M190.8 128C190.8 128 194.3 231.7 264.4 236.1C334.5 240.6 334.4 94.5 309.1 80.6C283.7 66.8 177.9 69.4 190.8 128Z" fill="#FFCEB0"/>
<path d="M262.8 150.2C262.8 150.2 276.2 182.1 272.7 184.2C269.3 186.3 259.2 185.9 256.5 183.6C253.8 181.3 257.3 146.6 262.8 150.2Z" fill="#EE9B68"/>
<path d="M241.8 171.5C241.6 175.1 238.5 177.9 234.9 177.8C231.3 177.6 228.5 174.5 228.6 170.9C228.8 167.3 231.9 164.5 235.5 164.6C239.2 164.8 242 167.9 241.8 171.5Z" fill="#41294A"/>
<path d="M298.3 168.4C298.1 172 295 174.8 291.4 174.7C287.8 174.5 285 171.4 285.1 167.8C285.3 164.2 288.4 161.4 292 161.5C295.7 161.7 298.5 164.8 298.3 168.4Z" fill="#41294A"/>
<path d="M246 72.6999C246 72.6999 220.9 84.8999 216.1 107.7C211.3 130.5 213.8 188.9 187.2 186.2C187.2 186.2 135.6 70.5999 246 72.6999Z" fill="#000C3E"/>
<path d="M259.3 73.1999C257 74.7999 285.2 74.7999 301.3 94.2999C317.4 113.8 321.2 162.7 323.7 163.6C326.2 164.5 336.1 103.1 318.5 84.5999C300.8 66.1999 272.2 63.8999 259.3 73.1999Z" fill="#000C3E"/>
<path d="M239.3 226.7C239.3 226.7 266.6 242.2 294.9 227.7C294.9 227.7 297.1 245.1 294.9 249.1C292.7 253.1 247.9 256 239 236.2C239 236.2 236.7 225.8 239.3 226.7Z" fill="#EE9B68"/>
<path d="M317.7 167.8C317.7 167.8 324.4 141.8 336.1 151.1C347.8 160.3 337.2 187.5 325.6 189.9C314 192.3 311.3 181.1 317.7 167.8Z" fill="#FFCEB0"/>
<path d="M207.2 163.6C207.2 163.6 202.4 137.2 190.1 145.6C177.7 153.9 186.3 181.8 197.6 185.1C208.9 188.4 212.5 177.4 207.2 163.6Z" fill="#FFCEB0"/>
<path d="M289.1 134.3C289.1 134.3 301.6 128.1 309.1 137.6C315.6 146 300.5 139 294.8 139.9C289.1 140.9 281.7 140.2 289.1 134.3Z" fill="#41294A"/>
<path d="M239.8 135.5C239.8 135.5 227.2 129.3 219.9 138.9C213.4 147.3 228.5 140.2 234.2 141.1C239.9 142.1 247.3 141.4 239.8 135.5Z" fill="#41294A"/>
<path d="M234.7 146.1C223.9 146.1 215.1 154.6 214.7 165.4C214.5 170.8 216.4 175.9 220 179.8C223.6 183.7 228.6 186 234 186.2H234.8C245.6 186.2 254.4 177.7 254.8 166.9C255 161.5 253.1 156.4 249.5 152.5C245.9 148.6 240.9 146.3 235.5 146.1H234.7ZM234.7 189H233.8C227.7 188.8 222.1 186.2 217.9 181.7C213.8 177.2 211.6 171.4 211.8 165.3C212.3 153 222.3 143.3 234.6 143.3H235.5C241.6 143.5 247.2 146.1 251.4 150.6C255.5 155.1 257.7 160.9 257.5 167C257 179.3 247 189 234.7 189Z" fill="#FFFCF6"/>
<path d="M291.6 142.9C280.8 142.9 272 151.4 271.6 162.2C271.2 173.3 279.8 182.6 290.9 183H291.7C302.5 183 311.3 174.5 311.7 163.7C311.9 158.3 310 153.2 306.4 149.3C302.8 145.4 297.8 143.1 292.4 142.9H291.6ZM291.7 185.8H290.8C278.2 185.3 268.4 174.7 268.8 162.1C269.3 149.8 279.3 140.1 291.6 140.1H292.5C298.6 140.3 304.2 142.9 308.4 147.4C312.5 151.9 314.7 157.7 314.5 163.8C314 176.1 304 185.8 291.7 185.8Z" fill="#FFFCF6"/>
<path d="M213.9 162.2C213.7 162.2 213.6 162.2 213.4 162.1L205.1 158.8C204.4 158.5 204 157.7 204.3 157C204.6 156.3 205.4 155.9 206.1 156.2L214.4 159.5C215.1 159.8 215.5 160.6 215.2 161.3C215 161.8 214.5 162.2 213.9 162.2Z" fill="#FFFCF6"/>
<path d="M312.3 158.5C311.7 158.5 311.1 158.1 311 157.5C310.8 156.8 311.2 156 311.9 155.8L323.5 152.5C324.2 152.3 325 152.7 325.2 153.4C325.4 154.1 325 154.9 324.3 155.1L312.7 158.4C312.5 158.5 312.4 158.5 312.3 158.5Z" fill="#FFFCF6"/>
<path d="M254.5 67.2999C254.5 67.2999 257.7 123.5 273.1 128.6C288.6 133.7 326.7 132.3 328.5 126.2C330.3 120 299 70.5999 276.5 62.6999C237 48.7999 203 113 207.5 128.4C212 143.9 245.9 130.3 253.2 128.3C260.4 126.3 253.1 78.3999 254.5 67.2999Z" fill="#000C3E"/>
<path d="M256.1 167.1C255.4 167.1 254.8 166.5 254.7 165.8C254.6 165 255.2 164.4 256 164.3L270.1 163.2C270.9 163.1 271.5 163.7 271.6 164.5C271.7 165.3 271.1 165.9 270.3 166L256.2 167.1C256.2 167.1 256.2 167.1 256.1 167.1Z" fill="#FFFCF6"/>
<path d="M239.4 51.9C239.1 51.9 238.8 51.8 238.5 51.7C230.9 47.8 226.4 42.3 225.1 35.5C222.2 20.5 235.8 4.39997 236.4 3.69997C237.1 2.79997 238.4 2.69997 239.3 3.49997C240.2 4.19997 240.3 5.49997 239.5 6.39997C239.4 6.59997 226.6 21.7 229.1 34.7C230.2 40.2 234 44.7 240.4 48C241.4 48.5 241.8 49.8 241.3 50.8C240.8 51.4 240.1 51.9 239.4 51.9Z" fill="#000C3E"/>
<path d="M269.3 56.4999C268.7 56.4999 268.1 56.1999 267.7 55.7999C267 54.8999 267.1 53.5999 268 52.8999C268.1 52.7999 283.3 39.9999 282.9 26.6999C282.7 21.0999 279.7 15.9999 274 11.6999C273.1 10.9999 272.9 9.69994 273.6 8.79994C274.3 7.89994 275.6 7.69994 276.5 8.39994C283.3 13.4999 286.9 19.5999 287.1 26.5999C287.5 41.8999 271.4 55.4999 270.7 56.0999C270.2 56.2999 269.7 56.4999 269.3 56.4999Z" fill="#41294A"/>
<path d="M343.3 230.7C342.7 230.7 342.1 230.4 341.7 229.9C341 229 341.2 227.7 342.1 227C342.8 226.4 359.5 213.1 355.2 190.6C353.5 181.8 350.3 172.1 347 161.7C341.2 143.7 335.2 125.2 335.1 107.2C335.1 106.1 336 105.1 337.2 105.1C338.3 105.1 339.3 106 339.3 107.2C339.4 124.5 345.3 142.8 351 160.4C354.4 170.8 357.6 180.7 359.3 189.7C364.2 214.7 345.5 229.5 344.7 230.1C344.2 230.6 343.7 230.7 343.3 230.7Z" fill="#000C3E"/>
<path d="M350.2 136.5C350.1 136.5 350 136.5 349.9 136.5C348.8 136.4 348 135.3 348.1 134.2C350.9 111.5 346.6 93 335.2 79C317 56.6 286.4 53.8 286.1 53.8C285 53.7 284.1 52.7 284.2 51.6C284.3 50.5 285.3 49.6 286.4 49.7C287.7 49.8 319 52.6 338.3 76.4C350.4 91.2 355 110.8 352.1 134.7C352.1 135.8 351.2 136.5 350.2 136.5Z" fill="#000C3E"/>
<path d="M266.3 216.1C264 216.1 261.5 216 259.7 216C258.6 215.9 257.7 215 257.7 213.9C257.7 212.8 258.6 211.8 259.8 211.9C264.6 212.1 270.3 212.1 271.4 211.8C272.5 211.5 273.6 212.1 274 213.1C274.3 214.2 273.8 215.3 272.8 215.7C271.8 216 269.2 216.1 266.3 216.1Z" fill="#EE9B68"/>
<path d="M200 178.6C199.8 178.6 199.6 178.6 199.4 178.5C198.3 178.2 197.7 177 198 175.9C201.8 163.6 192.8 155.4 192.7 155.3C191.9 154.5 191.8 153.2 192.5 152.4C193.3 151.5 194.6 151.5 195.4 152.2C195.9 152.6 206.4 162.3 201.9 177.1C201.7 178 200.9 178.6 200 178.6Z" fill="#EE9B68"/>
<path d="M322.5 184.7C322.4 184.7 322.4 184.7 322.3 184.7C321.2 184.6 320.3 183.6 320.4 182.5C321.8 167 329.4 158.9 329.8 158.5C330.6 157.7 331.9 157.7 332.7 158.4C333.5 159.1 333.6 160.5 332.8 161.3C332.7 161.4 325.8 168.8 324.6 182.8C324.4 183.9 323.5 184.7 322.5 184.7Z" fill="#EE9B68"/>
<path d="M202.1 276.8C202.1 276.8 249 332.9 285.1 317.9C321.3 302.9 355.1 262.2 337 256.8C318.9 251.4 173.7 254.2 202.1 276.8Z" fill="#FFCEB0"/>
<path d="M326 350.9C326 350.9 298.7 326.4 270.1 340.2C241.5 354.1 250.2 382.9 224.1 377.5C198 372.2 150.8 380.2 162 408.4C173.2 436.6 101.3 458.7 128.6 494.9C155.9 531.2 229.7 503.3 252.3 510.8C275 518.3 328.4 521.5 334.6 500.1C340.8 478.8 380.6 475.6 374.3 447.8C368.2 420.2 362 381.8 326 350.9Z" fill="white"/>
<path d="M235.7 415.4C235.7 415.4 263.6 448.9 263.5 481.1C263.5 501.6 248.3 467 243.2 460C238 453 254.4 483.2 249 492.8C246.4 497.5 229.5 462.6 229.5 462.6C229.5 462.6 236.7 495.4 232.1 498.5C227.5 501.7 215.8 470.2 215.8 470.2C215.8 470.2 216.3 495.8 210.9 496.1C205.5 496.4 207.4 470.1 185.6 458.7C163.8 447.3 64.6001 526.2 62.2001 461.5C59.8001 396.9 89.0001 374.5 156.4 386.2C209.6 395.7 218 401.5 235.7 415.4Z" fill="#FFC6A6"/>
<path d="M297.8 415.4C297.8 415.4 269.9 448.9 270 481.1C270 501.6 285.2 467 290.3 460C295.5 453 279.1 483.2 284.5 492.8C287.1 497.5 304 462.6 304 462.6C304 462.6 296.8 495.4 301.4 498.5C306 501.7 317.7 470.2 317.7 470.2C317.7 470.2 317.2 495.8 322.6 496.1C328 496.4 326.1 470.1 347.9 458.7C369.7 447.3 481.5 533.9 483.8 469.3C486.2 404.7 444.5 374.5 377 386.3C323.9 395.7 315.5 401.5 297.8 415.4Z" fill="#FFC6A6"/>
<path d="M328.8 471.7C328.8 471.7 329.4 415 360.4 415.4C391.4 415.8 406.1 443.5 377 459.8C347.8 476.1 328 482.8 328.8 471.7Z" fill="white"/>
<path d="M352.2 436.4C352.2 436.4 357.1 447.9 368.8 449.1C380.5 450.3 407.1 449.1 409.4 465.8C411.7 482.6 397.8 505.6 380.8 503.3C363.8 501 346.3 497.5 331.9 507.1C317.6 516.8 331.9 429.5 352.2 436.4Z" fill="white"/>
<path d="M381.7 346.6C381.7 354.3 375.5 360.5 367.8 360.5C360.1 360.5 353.9 354.3 353.9 346.6C353.9 338.9 360.1 332.7 367.8 332.7C375.5 332.7 381.7 338.9 381.7 346.6Z" fill="white"/>
<path d="M221 346.6C221 354.3 214.8 360.5 207.1 360.5C199.4 360.5 193.2 354.3 193.2 346.6C193.2 338.9 199.4 332.7 207.1 332.7C214.8 332.7 221 338.9 221 346.6Z" fill="white"/>
<path d="M265.1 202.7C254.5 202.7 245.2 195.4 244.8 195C243.9 194.3 243.8 193 244.5 192.1C245.2 191.2 246.5 191.1 247.4 191.8C247.5 191.9 258 200.1 268.2 198.3C273.1 197.4 277.2 194.3 280.5 189C281.1 188 282.4 187.7 283.3 188.3C284.3 188.9 284.6 190.2 284 191.1C280.1 197.4 275 201.2 268.9 202.3C267.5 202.6 266.3 202.7 265.1 202.7Z" fill="#EE9B68"/>
<path d="M181.4 261C181.4 261 142.2 316.2 141.1 348.6C140 381 104.9 394.7 114.8 441.4C118.7 459.8 129.7 485.8 119.2 496.1C91.7002 522.9 65.2002 503.5 60.6002 496.1C27.5002 442.7 67.6002 316.6 102.5 288.5C128.8 261 181.4 261 181.4 261Z" fill="#D9423D"/>
<path d="M363.1 258.6C363.1 258.6 406.6 314.5 407.8 346C409 377.5 445.8 390.7 435.4 436C431.3 453.8 412.1 480 432.1 489.1C455.7 499.9 493.4 493 498.2 485.8C546 430.8 482.2 319.3 445.6 292.1C413.4 265.8 363.1 258.6 363.1 258.6Z" fill="#D9423D"/>
<path d="M266.2 8.70002C265.6 8.70002 264.9 8.80002 264.1 8.90002C262.3 9.30002 261.1 10.2 260.3 11.7C257.1 18.6 263.8 35.1 268.7 44.9C271.7 34.1 275.3 16 270.2 10.3C269.3 9.30002 267.9 8.70002 266.2 8.70002ZM269.3 53.1C268.5 53.1 267.7 52.7 267.3 52C265.6 48.9 250.8 21.8 256.3 9.90002C257.6 7.10002 260 5.20002 263.2 4.60002C268.7 3.50002 271.9 5.50002 273.5 7.40002C282.3 17.3 272.5 48.1 271.3 51.6C271 52.4 270.3 53 269.4 53.1C269.4 53.1 269.4 53.1 269.3 53.1Z" fill="#FFD310"/>
<path d="M296.3 19.7001C296.1 19.7001 295.9 19.7001 295.7 19.7001C288.1 20.7001 279 36.7001 274.2 46.9001C284.2 42.7001 300.1 34.6001 302.2 27.3001C302.7 25.6001 302.4 24.2001 301.2 22.7001C299.7 20.7001 298.1 19.7001 296.3 19.7001ZM269.9 53.2001C269.3 53.2001 268.7 53.0001 268.3 52.5001C267.7 51.9001 267.5 50.9001 267.9 50.1001C269.3 46.7001 282 17.0001 295.2 15.3001C297.7 15.0001 301.4 15.5001 304.9 19.9001C306.9 22.5001 307.5 25.5001 306.7 28.5001C302.9 41.0001 274 51.9001 270.7 53.1001C270.4 53.2001 270.2 53.2001 269.9 53.2001Z" fill="#FFD310"/>
<path d="M228 45.3C238.9 52.3 263.7 57.7 283 45.3" stroke="#FFD310" stroke-width="3.87"/>
</g>
<defs>
<linearGradient id="paint0_linear" x1="101.698" y1="436.13" x2="132.956" y2="544.665" gradientUnits="userSpaceOnUse">
<stop stop-color="#FFCECE"/>
<stop offset="1" stop-color="#FFF2F2"/>
</linearGradient>
<linearGradient id="paint1_linear" x1="73.3383" y1="83.3516" x2="483.723" y2="394.789" gradientUnits="userSpaceOnUse">
<stop stop-color="#FFDADA"/>
<stop offset="1" stop-color="white"/>
</linearGradient>
<linearGradient id="paint2_linear" x1="515.5" y1="166.202" x2="395.471" y2="114.935" gradientUnits="userSpaceOnUse">
<stop stop-color="#FFDFDF"/>
<stop offset="1" stop-color="#FFF5F5"/>
</linearGradient>
<linearGradient id="paint3_linear" x1="492.98" y1="499.713" x2="10.4536" y2="220.284" gradientUnits="userSpaceOnUse">
<stop stop-color="#FFE0E0"/>
<stop offset="1" stop-color="#FFF4F4"/>
</linearGradient>
<clipPath id="clip0">
<rect width="531.2" height="571.2" fill="white"/>
</clipPath>
</defs>
</svg>
