<svg width="523" height="562" viewBox="0 0 523 562" fill="none" xmlns="http://www.w3.org/2000/svg">
<g clip-path="url(#clip0)">
<path d="M189.4 548.4C159.8 558.9 129.8 563.8 97.8999 557.7C62.2999 550.9 31.4999 520.5 13.9999 490.1C7.49992 478.8 2.39992 466.2 2.99992 453.2C4.59992 423.2 32.8999 419.9 56.9999 424.7C70.5999 427.4 82.9999 433.6 95.2999 439.8C115.7 450 139.7 455 158 469.2C164.1 474 168.8 479.7 175.9 483.2C187 488.6 199.7 491.1 211.1 496.1C220.8 500.3 231.7 507.3 231.8 517.9C231.8 528.8 220.4 535.7 210.5 540.1C203.5 543 196.4 545.9 189.4 548.4Z" fill="url(#paint0_linear)"/>
<path d="M80.3 161.4C128.8 89.9001 229.2 61.1001 310.6 88.0001C349.8 101 382.7 128 413.1 156.1C439.8 180.8 465.8 207.5 484 239.3C496.5 261 505.4 287 511.7 311.3C521.1 347.7 512.6 394.5 465.6 391.1C454.6 390.3 445 386.3 434.7 382.9C426.4 380.1 418.2 381.8 409.5 380.4C387.7 376.9 366.7 368.9 346.8 359.5C306.3 340.3 269.4 314.3 227.7 297.5C193.6 283.7 157.2 276.6 120.4 276.6C104.9 276.6 88.6 277.7 74.7 270.7C40.5 253.6 55.9 207.4 68.7 181.5C72.1 174.5 76 167.8 80.3 161.4Z" fill="url(#paint1_linear)"/>
<path d="M460.9 172.2C468.9 179.4 500.3 199.2 500.9 176C501 170.2 498.4 164.6 494.9 160.4C490.8 155.5 486.2 153 483 147.3C479.1 140.5 474.7 134 469.7 128.1C459.6 115.8 447.9 104.4 433.7 99.3C423.7 95.7 406.8 96.6 402 109.4C395.1 128 424.7 131.5 433.7 138.3C442.3 144.7 447.1 155.8 453.9 164.6C456 167.4 458.4 169.9 460.9 172.2Z" fill="url(#paint2_linear)"/>
<path d="M313.1 149.6C330 159.6 342.7 174.5 358.2 186.5C383.9 206.5 419.1 210.6 448.6 224.5C478.6 238.7 501.3 260.7 511.6 292.5C524.9 333.5 526.1 382.3 514.9 424.5C502.5 470.9 473.4 501.8 430.8 522.3C388.2 542.9 341.1 552.5 294.1 554.4C289.6 554.6 285 554.7 280.5 554.7C178.3 555.4 42.2999 519.4 7.5999 409.7C7.2999 408.7 6.9999 407.7 6.6999 406.7C3.0999 394.5 0.999898 381.9 0.399898 369.1C-1.8001 324 6.0999 274.2 21.8999 232C32.4999 203.5 55.3999 179.5 79.5999 162.3C113.5 138.2 154.9 132.1 196.1 129.2C226.6 127.1 260.9 126.3 289.7 137.9C297.8 141.2 305.6 145.1 313.1 149.6Z" fill="url(#paint3_linear)"/>
<path d="M384.3 545.1C253.4 583.2 144.3 546.5 106.1 523.3L70.6001 496.1L82.9001 475.7L159.3 468.9L286.1 462.1L388.4 482.5L494.8 447.2H505.7C489.3 502.7 417.9 535.6 384.3 545.1Z" fill="#FB4C47"/>
<path d="M116.4 492.9H442C442 492.9 453.4 305.7 411.9 278.3C370.4 250.9 176.5 256.6 133.5 280C90.4999 303.4 116.4 492.9 116.4 492.9Z" fill="#FB4C47"/>
<path d="M170.6 238.9C170.1 238.9 169.7 238.7 169.3 238.4C168.4 237.7 147.5 220.1 158.9 184.7C162.9 172.3 166.8 163.5 170.3 155.8C176.5 141.9 181 131.8 181.9 110.3C181.9 109.1 183.1 108.3 184.1 108.3C185.3 108.4 186.2 109.3 186.1 110.5C185.2 132.8 180.3 143.8 174.2 157.6C170.8 165.2 166.9 173.9 163 186.1C152.5 218.7 171.2 234.6 172 235.2C172.9 235.9 173 237.3 172.3 238.2C171.9 238.6 171.3 238.9 170.6 238.9Z" fill="#000C3E"/>
<path d="M286.2 27.6001C285.7 42.3001 273.3 53.8001 258.6 53.2001C243.9 52.7001 232.4 40.3001 233 25.6001C233.6 11.0001 245.9 -0.499919 260.6 8.14237e-05C275.3 0.600081 286.8 13.0001 286.2 27.6001Z" fill="#000C3E"/>
<path d="M168.3 228.5C168.3 228.5 176.1 244.6 208 250.3C239.9 256 264.9 244.4 289.6 253.4C314.2 262.3 349.8 250.7 356.9 240.3C363.9 230 362.5 115.4 343.1 96.1C323.7 76.9 221.9 60.8 199.9 83.3C177.7 105.9 154.3 215.6 168.3 228.5Z" fill="#000C3E"/>
<path d="M352.4 138.1C350.6 186.5 309.9 224.3 261.4 222.5C213 220.7 175.2 180 177 131.5C178.8 83.1 219.5 45.3 268 47.1C316.5 49 354.3 89.7 352.4 138.1Z" fill="#000C3E"/>
<path d="M300.7 211.5C300.7 211.5 306.4 279.8 300.7 287.4C295 295 258.9 289.3 249.4 287.4C239.9 285.5 236.1 211.5 241.8 211.5C247.6 211.5 299.7 196.2 300.7 211.5Z" fill="#FFCEB0"/>
<path d="M193.1 131.5C193.1 131.5 196.7 238 268.7 242.6C340.7 247.2 340.6 97.1001 314.6 82.9001C288.5 68.6001 179.8 71.3001 193.1 131.5Z" fill="#FFCEB0"/>
<path d="M267 154.3C267 154.3 280.8 187.1 277.2 189.3C273.7 191.5 263.3 191.1 260.5 188.7C257.7 186.3 261.4 150.7 267 154.3Z" fill="#EE9B68"/>
<path d="M245.5 165.3C245.3 169 242.1 171.9 238.4 171.7C234.7 171.5 231.8 168.3 232 164.6C232.2 160.9 235.4 158 239.1 158.2C242.8 158.4 245.7 161.6 245.5 165.3Z" fill="#41294A"/>
<path d="M303.6 162.1C303.4 165.8 300.2 168.7 296.5 168.5C292.8 168.3 289.9 165.1 290.1 161.4C290.3 157.7 293.5 154.8 297.2 155C300.9 155.2 303.7 158.4 303.6 162.1Z" fill="#41294A"/>
<path d="M249.8 74.6999C249.8 74.6999 224 87.1999 219.1 110.6C214.2 134 216.7 194.1 189.4 191.3C189.3 191.4 136.4 72.5999 249.8 74.6999Z" fill="#000C3E"/>
<path d="M263.4 75.2001C261.1 76.9001 290 76.8001 306.6 96.9001C323.2 117 327.1 167.1 329.7 168.1C332.3 169 342.5 105.9 324.3 87.0001C306.1 68.0001 276.7 65.7001 263.4 75.2001Z" fill="#000C3E"/>
<path d="M242.9 232.9C242.9 232.9 270.9 248.8 300 233.9C300 233.9 302.3 251.8 300 255.9C297.7 260 251.7 263 242.6 242.6C242.6 242.7 240.3 232.1 242.9 232.9Z" fill="#EE9B68"/>
<path d="M323.4 172.4C323.4 172.4 330.3 145.7 342.3 155.2C354.3 164.7 343.4 192.6 331.6 195.1C319.7 197.6 316.9 186.1 323.4 172.4Z" fill="#FFCEB0"/>
<path d="M209.9 168.1C209.9 168.1 205 141 192.3 149.6C179.6 158.2 188.4 186.8 200 190.2C211.7 193.6 215.4 182.3 209.9 168.1Z" fill="#FFCEB0"/>
<path d="M294.1 138C294.1 138 307 131.6 314.6 141.4C321.3 150 305.7 142.8 299.9 143.8C294.1 144.8 286.4 144.1 294.1 138Z" fill="#41294A"/>
<path d="M243.5 139.3C243.5 139.3 230.6 132.9 223 142.8C216.3 151.5 231.9 144.2 237.7 145.1C243.5 146 251.2 145.3 243.5 139.3Z" fill="#41294A"/>
<path d="M238.2 150.1C227.1 150.1 218 158.8 217.6 170C217.4 175.5 219.3 180.8 223.1 184.8C226.8 188.8 231.9 191.2 237.4 191.4H238.2C249.3 191.4 258.4 182.7 258.8 171.6C259 166.1 257.1 160.8 253.3 156.8C249.6 152.8 244.5 150.4 239 150.2L238.2 150.1ZM238.2 194.2H237.3C231 194 225.3 191.3 221 186.7C216.7 182.1 214.5 176.1 214.8 169.9C215.3 157.3 225.6 147.3 238.2 147.3H239.1C245.4 147.5 251.1 150.2 255.4 154.8C259.7 159.4 261.9 165.4 261.6 171.6C261.1 184.3 250.9 194.2 238.2 194.2Z" fill="#FFFCF6"/>
<path d="M296.7 146.9C285.6 146.9 276.5 155.6 276.1 166.8C275.9 172.3 277.8 177.6 281.6 181.6C285.3 185.6 290.4 188 295.9 188.2H296.7C307.8 188.2 316.9 179.5 317.3 168.3C317.5 162.8 315.6 157.5 311.8 153.5C308.1 149.5 303 147.1 297.5 146.9H296.7ZM296.7 190.9H295.8C289.5 190.7 283.7 188 279.5 183.4C275.2 178.8 273 172.8 273.3 166.6C273.8 154 284.1 144 296.7 144H297.6C303.9 144.2 309.6 146.9 313.9 151.5C318.2 156.1 320.4 162.1 320.1 168.3C319.6 181 309.4 190.9 296.7 190.9Z" fill="#FFFCF6"/>
<path d="M216.8 166.6C216.6 166.6 216.4 166.6 216.3 166.5L207.7 163.1C207 162.8 206.6 162 206.9 161.3C207.2 160.6 208 160.2 208.7 160.5L217.3 163.9C218 164.2 218.4 165 218.1 165.7C217.9 166.3 217.4 166.6 216.8 166.6Z" fill="#FFFCF6"/>
<path d="M317.9 162.9C317.3 162.9 316.7 162.5 316.5 161.9C316.3 161.2 316.7 160.4 317.5 160.2L329.4 156.8C330.1 156.6 330.9 157 331.1 157.8C331.3 158.5 330.9 159.3 330.1 159.5L318.2 162.9C318.1 162.9 318 162.9 317.9 162.9Z" fill="#FFFCF6"/>
<path d="M258.5 69.0999C258.5 69.0999 261.7 126.8 277.7 132.1C293.6 137.3 332.7 135.9 334.6 129.6C336.5 123.3 304.3 72.4999 281.1 64.2999C240.5 49.9999 205.5 116 210.2 131.8C214.8 147.7 249.7 133.8 257.1 131.7C264.6 129.8 257.1 80.5999 258.5 69.0999Z" fill="#000C3E"/>
<g opacity="0.21">
<g opacity="0.21">
<path opacity="0.21" d="M218.9 189.9C218.9 189.9 255.8 169.8 271.6 173.1C287.5 176.4 315.5 177.5 316.6 183.3C317.7 189.1 281 185.6 269.7 186.4C258.4 187.2 214.7 199.2 218.9 189.9Z" fill="#DB5C5D"/>
</g>
</g>
<path d="M239.6 177.1C238.7 177.1 237.9 176.6 237.6 175.7C237.2 174.6 237.7 173.4 238.8 173C242.1 171.8 242.8 170.7 242.8 170.7C243.2 169.6 244.4 169.2 245.5 169.6C246.6 170 247.1 171.3 246.7 172.5C246.4 173.4 245.1 175.2 240.3 177C240.1 177 239.9 177.1 239.6 177.1Z" fill="#EE9B68"/>
<path d="M295.3 175.6C294 175.6 292.1 175.2 289.1 173.6C288.1 173.1 287.7 171.8 288.2 170.7C288.7 169.7 290 169.3 291.1 169.8C294.2 171.4 295.5 171.3 295.5 171.3C296.6 170.9 297.7 171.4 298.1 172.5C298.5 173.6 297.9 174.9 296.8 175.3C296.4 175.4 296 175.6 295.3 175.6Z" fill="#EE9B68"/>
<path d="M260.2 171.8C259.5 171.8 258.8 171.2 258.8 170.5C258.7 169.7 259.3 169 260.1 169L274.6 167.9C275.4 167.8 276.1 168.4 276.1 169.2C276.2 170 275.6 170.7 274.8 170.7L260.3 171.8H260.2Z" fill="#FFFCF6"/>
<path d="M243 53.2999C242.7 53.2999 242.3 53.1999 242 53.0999C234.2 49.0999 229.6 43.4999 228.2 36.4999C225.2 21.0999 239.2 4.49993 239.8 3.89993C240.6 2.99993 241.9 2.89993 242.8 3.69993C243.7 4.49993 243.8 5.79993 243 6.69993C242.9 6.89993 229.7 22.3999 232.3 35.7999C233.4 41.4999 237.3 46.0999 243.9 49.4999C244.9 49.9999 245.4 51.2999 244.8 52.3999C244.5 52.8999 243.7 53.2999 243 53.2999Z" fill="#000C3E"/>
<path d="M273.7 58C273.1 58 272.5 57.7 272.1 57.2C271.3 56.3 271.5 55 272.4 54.2C272.6 54.1 288.1 40.9 287.7 27.3C287.5 21.5 284.5 16.3 278.5 11.9C277.6 11.2 277.4 9.90003 278.1 8.90003C278.8 8.00003 280.1 7.80003 281.1 8.50003C288.1 13.7 291.8 20 292 27.2C292.4 42.9 275.9 56.9 275.2 57.5C274.7 57.9 274.2 58 273.7 58Z" fill="#000C3E"/>
<path d="M349.7 237.1C349.1 237.1 348.4 236.8 348 236.3C347.3 235.4 347.4 234 348.4 233.3C349.1 232.7 366.3 219 361.8 195.9C360 186.9 356.8 176.9 353.4 166.3C347.4 147.8 341.3 128.7 341.2 110.3C341.2 109.1 342.1 108.2 343.3 108.2C344.5 108.2 345.4 109.1 345.4 110.3C345.5 128.1 351.6 146.9 357.4 165C360.9 175.7 364.1 185.8 365.9 195.1C370.9 220.8 351.7 236 350.9 236.6C350.6 236.9 350.2 237.1 349.7 237.1Z" fill="#000C3E"/>
<path d="M356.8 140.3C356.7 140.3 356.6 140.3 356.5 140.3C355.3 140.2 354.5 139.1 354.7 137.9C357.6 114.6 353.1 95.5 341.5 81.2C322.7 58.1 291.4 55.3 291.1 55.3C289.9 55.2 289.1 54.2 289.2 53C289.3 51.8 290.3 51 291.5 51.1C292.9 51.2 325 54.1 344.9 78.5C357.3 93.7 362.1 113.9 359.1 138.4C358.8 139.5 357.9 140.3 356.8 140.3Z" fill="#000C3E"/>
<path d="M270.6 222.8C268.4 222.8 266 222.7 263.8 222.7C262.2 222.6 261 221.3 261.1 219.8C261.2 218.2 262.5 217.2 264 217.1C268.7 217.3 274.5 217.3 275.7 217C277.2 216.5 278.7 217.2 279.3 218.7C279.8 220.2 279 221.8 277.6 222.3C276.5 222.6 273.8 222.8 270.6 222.8Z" fill="#DB5C5D"/>
<path d="M202.5 183.5C202.3 183.5 202.1 183.5 201.9 183.4C200.8 183.1 200.1 181.9 200.5 180.8C204.4 168.1 195.1 159.7 195 159.6C194.1 158.8 194.1 157.5 194.8 156.6C195.6 155.7 196.9 155.7 197.8 156.4C198.3 156.8 209.1 166.7 204.5 182C204.3 182.9 203.5 183.5 202.5 183.5Z" fill="#EE9B68"/>
<path d="M328.3 189.8C328.2 189.8 328.2 189.8 328.1 189.8C326.9 189.7 326.1 188.7 326.2 187.5C327.6 171.6 335.5 163.2 335.8 162.9C336.6 162.1 337.9 162 338.8 162.8C339.6 163.6 339.7 164.9 338.9 165.8C338.8 165.9 331.7 173.5 330.4 187.9C330.4 188.9 329.4 189.8 328.3 189.8Z" fill="#EE9B68"/>
<path d="M210.5 169.9C210.5 169.9 228.9 185.3 230.4 187.6C231.8 189.9 231.3 219.9 228.4 219.6C225.5 219.2 207.9 190.7 206 190.7C204.1 190.8 204.9 193.8 204.9 193.8C204.9 193.8 220 218.7 229 225.7C238 232.7 294.5 233 306 226.5C317.5 220 327.3 195.7 326.4 195.1C325.5 194.6 323.3 192.6 323 193.4C322.7 194.1 307.1 221.9 305.1 221.1C303.1 220.2 305.3 189.3 305.1 186.4C304.9 183.5 327.7 161.3 327.7 161.3L329.3 158.5L327 157.9C327 157.9 304.6 180.2 299 180.1C293.4 180 234.6 184.2 231.9 183.2C229.2 182.2 211 162.5 208.7 163.3C206.5 164.3 209.9 168.1 210.5 169.9Z" fill="#FFFCF6"/>
<path d="M203.1 284.3C203.1 284.3 251.3 341.9 288.4 326.5C325.5 311.1 360.4 269.3 341.7 263.8C323.1 258.2 173.9 261.2 203.1 284.3Z" fill="#FFCEB0"/>
<path d="M414.7 250.2C414.7 250.2 408.2 199.4 406 196.1C403.8 192.8 387.3 217.8 391.7 232C396.2 246.2 334.3 246.5 339.1 267.2C343.9 287.9 341 315.9 366.6 317.3C392.3 318.7 421.6 311.8 427.6 302.2C433.6 292.7 414.7 250.2 414.7 250.2Z" fill="url(#paint4_linear)"/>
<path d="M453.2 296C453.2 296 524.8 379.6 510.8 434.6C496.8 489.6 428.8 498.5 414.8 491.4C400.9 484.2 406.1 248.3 453.2 296Z" fill="#D9423D"/>
<path d="M122.1 285.5C122.1 285.5 35.2999 378.7 40.8999 462C45.5999 530.7 151 520.3 164 513.8C177 507.3 165.9 242.1 122.1 285.5Z" fill="#D9423D"/>
<path d="M419.6 262.3C419.6 262.3 506.7 434.7 482.8 464.2C458.9 493.7 416.3 497.1 399.3 472.6C389.4 458.3 403.2 332.1 388.6 316.6C374 301.1 415 254.2 419.6 262.3Z" fill="#FFCEB0"/>
<path d="M285.5 440C285.5 440 344.7 462.4 354.2 481.2C363.7 500 328.5 477.1 320.2 473.6C311.9 470.2 341.7 493.9 342.7 499.4C343.6 504.9 309.5 483.2 309.5 483.2C309.5 483.2 333.2 508.2 330.8 513.5C328.5 518.7 301.4 497.2 301.4 497.2C301.4 497.2 315.4 519.4 310.8 522.6C306.2 525.8 275.6 488.9 250.4 490.4C225.2 491.9 129.7 547.3 93.4001 491.7C57.1001 436.1 87.7001 409.6 158.1 410.4C228.6 411.1 266 431.8 285.5 440Z" fill="#FFCEB0"/>
<path d="M267.8 9.20012C267.2 9.20012 266.5 9.30012 265.7 9.40012C263.9 9.80012 262.7 10.6001 262 12.2001C258.9 19.0001 265.5 35.3001 270.2 44.8001C273.1 34.2001 276.6 16.4001 271.7 10.8001C270.8 9.70012 269.5 9.20012 267.8 9.20012ZM270.8 52.9001C270 52.9001 269.3 52.5001 268.9 51.8001C267.2 48.8001 252.7 22.1001 258 10.4001C259.3 7.60012 261.7 5.80012 264.8 5.20012C270.3 4.00012 273.4 6.00012 275 7.90012C283.6 17.6001 274 47.9001 272.9 51.3001C272.6 52.1001 271.9 52.7001 271 52.8001C271 52.9001 270.9 52.9001 270.8 52.9001Z" fill="#FFD310"/>
<path d="M297.4 20.0001C297.2 20.0001 297 20.0001 296.8 20.0001C289.4 21.0001 280.4 36.7001 275.7 46.7001C285.6 42.5001 301.2 34.6001 303.3 27.4001C303.8 25.8001 303.5 24.3001 302.3 22.9001C300.7 21.0001 299.2 20.0001 297.4 20.0001ZM271.4 53.0001C270.8 53.0001 270.2 52.8001 269.8 52.3001C269.2 51.7001 269 50.7001 269.4 49.9001C270.8 46.6001 283.3 17.4001 296.2 15.7001C298.7 15.4001 302.3 15.9001 305.7 20.2001C307.7 22.8001 308.3 25.7001 307.4 28.6001C303.9 40.9001 275.4 51.6001 272.1 52.8001C271.9 53.0001 271.7 53.0001 271.4 53.0001Z" fill="#FFD310"/>
<path d="M230.2 45.2C240.9 52.1 265.3 57.4 284.3 45.2" stroke="#FFD310" stroke-width="3.87"/>
</g>
<defs>
<linearGradient id="paint0_linear" x1="65.3388" y1="401.657" x2="154.296" y2="556.455" gradientUnits="userSpaceOnUse">
<stop stop-color="#FFC5C6"/>
<stop offset="1" stop-color="#FFF6F6"/>
</linearGradient>
<linearGradient id="paint1_linear" x1="456.446" y1="347.372" x2="97.7225" y2="114.067" gradientUnits="userSpaceOnUse">
<stop stop-color="white"/>
<stop offset="1" stop-color="#FFD7D7"/>
</linearGradient>
<linearGradient id="paint2_linear" x1="507.075" y1="163.152" x2="389.008" y2="112.723" gradientUnits="userSpaceOnUse">
<stop stop-color="#FFBEBF"/>
<stop offset="1" stop-color="#FFFBFC"/>
</linearGradient>
<linearGradient id="paint3_linear" x1="522.103" y1="457.524" x2="10.1027" y2="253.524" gradientUnits="userSpaceOnUse">
<stop stop-color="#FFD7D7"/>
<stop offset="1" stop-color="#FFF8F8"/>
</linearGradient>
<linearGradient id="paint4_linear" x1="405.367" y1="336.745" x2="360.685" y2="203.523" gradientUnits="userSpaceOnUse">
<stop stop-color="#FFC4A0"/>
<stop offset="1" stop-color="#FFCEB0"/>
</linearGradient>
<clipPath id="clip0">
<rect width="522.5" height="561.5" fill="white"/>
</clipPath>
</defs>
</svg>
